<ttFont>
<head>
    <!-- Most of this table will be recalculated by the compiler -->
    <tableVersion value="1.0"/>
    <fontRevision value="1.00199890137"/>
    <checkSumAdjustment value="0x4f90d958"/>
    <magicNumber value="0x5f0f3cf5"/>
    <flags value="00000000 00011001"/>
    <unitsPerEm value="2048"/>
    <created value="Sun Aug 26 16:34:00 2012"/>
    <modified value="Wed Sep 12 11:17:52 2012"/>
    <xMin value="-432"/>
    <yMin value="-620"/>
    <xMax value="1977"/>
    <yMax value="1960"/>
    <macStyle value="00000000 00000010"/>
    <lowestRecPPEM value="9"/>
    <fontDirectionHint value="2"/>
    <indexToLocFormat value="0"/>
    <glyphDataFormat value="0"/>
  </head>
    <TTGlyph name=".notdef" xMin="-100" yMin="0" xMax="1124" yMax="1434">
      <contour>
        <pt x="922" y="0" on="1"/>
        <pt x="-100" y="0" on="1"/>
        <pt x="100" y="1434" on="1"/>
        <pt x="1124" y="1434" on="1"/>
      </contour>
      <contour>
        <pt x="76" y="102" on="1"/>
        <pt x="772" y="102" on="1"/>
        <pt x="498" y="625" on="1"/>
      </contour>
      <contour>
        <pt x="29" y="195" on="1"/>
        <pt x="451" y="717" on="1"/>
        <pt x="174" y="1239" on="1"/>
      </contour>
      <contour>
        <pt x="573" y="717" on="1"/>
        <pt x="848" y="195" on="1"/>
        <pt x="993" y="1239" on="1"/>
      </contour>
      <contour>
        <pt x="250" y="1331" on="1"/>
        <pt x="524" y="809" on="1"/>
        <pt x="946" y="1331" on="1"/>
      </contour>
    </TTGlyph>
    <TTGlyph name="A" xMin="-74" yMin="0" xMax="1049" yMax="1405">
      <contour>
        <pt x="809" y="313" on="1"/>
        <pt x="246" y="313" on="1"/>
        <pt x="104" y="0" on="1"/>
        <pt x="-74" y="0" on="1"/>
        <pt x="569" y="1405" on="1"/>
        <pt x="801" y="1405" on="1"/>
        <pt x="1049" y="0" on="1"/>
        <pt x="862" y="0" on="1"/>
      </contour>
      <contour>
        <pt x="319" y="477" on="1"/>
        <pt x="782" y="477" on="1"/>
        <pt x="678" y="1102" on="1"/>
        <pt x="675" y="1119" on="0"/>
        <pt x="671" y="1172" on="0"/>
        <pt x="670" y="1197" on="1"/>
        <pt x="668" y="1226" on="0"/>
        <pt x="668" y="1257" on="1"/>
        <pt x="659" y="1257" on="1"/>
        <pt x="649" y="1225" on="0"/>
        <pt x="638" y="1196" on="1"/>
        <pt x="629" y="1171" on="0"/>
        <pt x="610" y="1119" on="0"/>
        <pt x="602" y="1102" on="1"/>
      </contour>
    </TTGlyph>
    <TTGlyph name="AE" xMin="-88" yMin="0" xMax="1700" yMax="1405">
      <contour>
        <pt x="1538" y="164" on="1"/>
        <pt x="1513" y="0" on="1"/>
        <pt x="840" y="0" on="1"/>
        <pt x="813" y="313" on="1"/>
        <pt x="262" y="313" on="1"/>
        <pt x="100" y="0" on="1"/>
        <pt x="-88" y="0" on="1"/>
        <pt x="678" y="1405" on="1"/>
        <pt x="1700" y="1405" on="1"/>
        <pt x="1675" y="1241" on="1"/>
        <pt x="924" y="1241" on="1"/>
        <pt x="961" y="801" on="1"/>
        <pt x="1524" y="801" on="1"/>
        <pt x="1501" y="637" on="1"/>
        <pt x="973" y="637" on="1"/>
        <pt x="1014" y="164" on="1"/>
      </contour>
      <contour>
        <pt x="348" y="477" on="1"/>
        <pt x="801" y="477" on="1"/>
        <pt x="752" y="1077" on="1"/>
        <pt x="750" y="1094" on="0"/>
        <pt x="748" y="1148" on="0"/>
        <pt x="746" y="1173" on="1"/>
        <pt x="744" y="1202" on="0"/>
        <pt x="743" y="1233" on="1"/>
        <pt x="735" y="1233" on="1"/>
        <pt x="720" y="1202" on="0"/>
        <pt x="707" y="1173" on="1"/>
        <pt x="696" y="1148" on="0"/>
        <pt x="671" y="1094" on="0"/>
        <pt x="662" y="1077" on="1"/>
      </contour>
    </TTGlyph>
    <TTGlyph name="AEacute" xMin="-88" yMin="0" xMax="1700" yMax="1808">
      <contour>
        <pt x="1094" y="1802" on="1"/>
        <pt x="872" y="1538" on="1"/>
        <pt x="729" y="1538" on="1"/>
        <pt x="905" y="1808" on="1"/>
        <pt x="1092" y="1808" on="1"/>
      </contour>
      <contour>
        <pt x="1538" y="164" on="1"/>
        <pt x="1513" y="0" on="1"/>
        <pt x="840" y="0" on="1"/>
        <pt x="813" y="313" on="1"/>
        <pt x="262" y="313" on="1"/>
        <pt x="100" y="0" on="1"/>
        <pt x="-88" y="0" on="1"/>
        <pt x="678" y="1405" on="1"/>
        <pt x="1700" y="1405" on="1"/>
        <pt x="1675" y="1241" on="1"/>
        <pt x="924" y="1241" on="1"/>
        <pt x="961" y="801" on="1"/>
        <pt x="1524" y="801" on="1"/>
        <pt x="1501" y="637" on="1"/>
        <pt x="973" y="637" on="1"/>
        <pt x="1014" y="164" on="1"/>
      </contour>
      <contour>
        <pt x="348" y="477" on="1"/>
        <pt x="801" y="477" on="1"/>
        <pt x="752" y="1077" on="1"/>
        <pt x="750" y="1094" on="0"/>
        <pt x="748" y="1148" on="0"/>
        <pt x="746" y="1173" on="1"/>
        <pt x="744" y="1202" on="0"/>
        <pt x="743" y="1233" on="1"/>
        <pt x="735" y="1233" on="1"/>
        <pt x="720" y="1202" on="0"/>
        <pt x="707" y="1173" on="1"/>
        <pt x="696" y="1148" on="0"/>
        <pt x="671" y="1094" on="0"/>
        <pt x="662" y="1077" on="1"/>
      </contour>
    </TTGlyph>
    <TTGlyph name="Aacute" xMin="-74" yMin="0" xMax="1049" yMax="1808">
      <contour>
        <pt x="963" y="1802" on="1"/>
        <pt x="741" y="1538" on="1"/>
        <pt x="598" y="1538" on="1"/>
        <pt x="774" y="1808" on="1"/>
        <pt x="961" y="1808" on="1"/>
      </contour>
      <contour>
        <pt x="809" y="313" on="1"/>
        <pt x="246" y="313" on="1"/>
        <pt x="104" y="0" on="1"/>
        <pt x="-74" y="0" on="1"/>
        <pt x="569" y="1405" on="1"/>
        <pt x="801" y="1405" on="1"/>
        <pt x="1049" y="0" on="1"/>
        <pt x="862" y="0" on="1"/>
      </contour>
      <contour>
        <pt x="319" y="477" on="1"/>
        <pt x="782" y="477" on="1"/>
        <pt x="678" y="1102" on="1"/>
        <pt x="675" y="1119" on="0"/>
        <pt x="671" y="1172" on="0"/>
        <pt x="670" y="1197" on="1"/>
        <pt x="668" y="1226" on="0"/>
        <pt x="668" y="1257" on="1"/>
        <pt x="659" y="1257" on="1"/>
        <pt x="649" y="1225" on="0"/>
        <pt x="638" y="1196" on="1"/>
        <pt x="629" y="1171" on="0"/>
        <pt x="610" y="1119" on="0"/>
        <pt x="602" y="1102" on="1"/>
      </contour>
    </TTGlyph>
    <TTGlyph name="Abreve" xMin="-74" yMin="0" xMax="1049" yMax="1808">
      <contour>
        <pt x="997" y="1808" on="1"/>
        <pt x="992" y="1773" on="0"/>
        <pt x="950" y="1703" on="0"/>
        <pt x="879" y="1646" on="0"/>
        <pt x="784" y="1610" on="0"/>
        <pt x="727" y="1610" on="1"/>
        <pt x="670" y="1610" on="0"/>
        <pt x="581" y="1641" on="0"/>
        <pt x="521" y="1692" on="0"/>
        <pt x="489" y="1757" on="0"/>
        <pt x="489" y="1790" on="1"/>
        <pt x="489" y="1795" on="0"/>
        <pt x="490" y="1803" on="0"/>
        <pt x="492" y="1808" on="1"/>
        <pt x="623" y="1808" on="1"/>
        <pt x="624" y="1797" on="0"/>
        <pt x="640" y="1774" on="0"/>
        <pt x="669" y="1754" on="0"/>
        <pt x="710" y="1741" on="0"/>
        <pt x="735" y="1741" on="1"/>
        <pt x="761" y="1741" on="0"/>
        <pt x="806" y="1754" on="0"/>
        <pt x="841" y="1774" on="0"/>
        <pt x="863" y="1797" on="0"/>
        <pt x="866" y="1808" on="1"/>
      </contour>
      <contour>
        <pt x="809" y="313" on="1"/>
        <pt x="246" y="313" on="1"/>
        <pt x="104" y="0" on="1"/>
        <pt x="-74" y="0" on="1"/>
        <pt x="569" y="1405" on="1"/>
        <pt x="801" y="1405" on="1"/>
        <pt x="1049" y="0" on="1"/>
        <pt x="862" y="0" on="1"/>
      </contour>
      <contour>
        <pt x="319" y="477" on="1"/>
        <pt x="782" y="477" on="1"/>
        <pt x="678" y="1102" on="1"/>
        <pt x="675" y="1119" on="0"/>
        <pt x="671" y="1172" on="0"/>
        <pt x="670" y="1197" on="1"/>
        <pt x="668" y="1226" on="0"/>
        <pt x="668" y="1257" on="1"/>
        <pt x="659" y="1257" on="1"/>
        <pt x="649" y="1225" on="0"/>
        <pt x="638" y="1196" on="1"/>
        <pt x="629" y="1171" on="0"/>
        <pt x="610" y="1119" on="0"/>
        <pt x="602" y="1102" on="1"/>
      </contour>
    </TTGlyph>
    <TTGlyph name="Acircumflex" xMin="-74" yMin="0" xMax="1049" yMax="1808">
      <contour>
        <pt x="952" y="1532" on="1"/>
        <pt x="795" y="1532" on="1"/>
        <pt x="727" y="1694" on="1"/>
        <pt x="612" y="1532" on="1"/>
        <pt x="442" y="1532" on="1"/>
        <pt x="657" y="1808" on="1"/>
        <pt x="817" y="1808" on="1"/>
      </contour>
      <contour>
        <pt x="809" y="313" on="1"/>
        <pt x="246" y="313" on="1"/>
        <pt x="104" y="0" on="1"/>
        <pt x="-74" y="0" on="1"/>
        <pt x="569" y="1405" on="1"/>
        <pt x="801" y="1405" on="1"/>
        <pt x="1049" y="0" on="1"/>
        <pt x="862" y="0" on="1"/>
      </contour>
      <contour>
        <pt x="319" y="477" on="1"/>
        <pt x="782" y="477" on="1"/>
        <pt x="678" y="1102" on="1"/>
        <pt x="675" y="1119" on="0"/>
        <pt x="671" y="1172" on="0"/>
        <pt x="670" y="1197" on="1"/>
        <pt x="668" y="1226" on="0"/>
        <pt x="668" y="1257" on="1"/>
        <pt x="659" y="1257" on="1"/>
        <pt x="649" y="1225" on="0"/>
        <pt x="638" y="1196" on="1"/>
        <pt x="629" y="1171" on="0"/>
        <pt x="610" y="1119" on="0"/>
        <pt x="602" y="1102" on="1"/>
      </contour>
    </TTGlyph>
    <TTGlyph name="Adieresis" xMin="-74" yMin="0" xMax="1049" yMax="1808">
      <contour>
        <pt x="963" y="1614" on="1"/>
        <pt x="784" y="1614" on="1"/>
        <pt x="811" y="1808" on="1"/>
        <pt x="989" y="1808" on="1"/>
      </contour>
      <contour>
        <pt x="655" y="1614" on="1"/>
        <pt x="477" y="1614" on="1"/>
        <pt x="506" y="1808" on="1"/>
        <pt x="682" y="1808" on="1"/>
      </contour>
      <contour>
        <pt x="809" y="313" on="1"/>
        <pt x="246" y="313" on="1"/>
        <pt x="104" y="0" on="1"/>
        <pt x="-74" y="0" on="1"/>
        <pt x="569" y="1405" on="1"/>
        <pt x="801" y="1405" on="1"/>
        <pt x="1049" y="0" on="1"/>
        <pt x="862" y="0" on="1"/>
      </contour>
      <contour>
        <pt x="319" y="477" on="1"/>
        <pt x="782" y="477" on="1"/>
        <pt x="678" y="1102" on="1"/>
        <pt x="675" y="1119" on="0"/>
        <pt x="671" y="1172" on="0"/>
        <pt x="670" y="1197" on="1"/>
        <pt x="668" y="1226" on="0"/>
        <pt x="668" y="1257" on="1"/>
        <pt x="659" y="1257" on="1"/>
        <pt x="649" y="1225" on="0"/>
        <pt x="638" y="1196" on="1"/>
        <pt x="629" y="1171" on="0"/>
        <pt x="610" y="1119" on="0"/>
        <pt x="602" y="1102" on="1"/>
      </contour>
    </TTGlyph>
    <TTGlyph name="Agrave" xMin="-74" yMin="0" xMax="1049" yMax="1808">
      <contour>
        <pt x="829" y="1538" on="1"/>
        <pt x="686" y="1538" on="1"/>
        <pt x="504" y="1802" on="1"/>
        <pt x="508" y="1808" on="1"/>
        <pt x="690" y="1808" on="1"/>
      </contour>
      <contour>
        <pt x="809" y="313" on="1"/>
        <pt x="246" y="313" on="1"/>
        <pt x="104" y="0" on="1"/>
        <pt x="-74" y="0" on="1"/>
        <pt x="569" y="1405" on="1"/>
        <pt x="801" y="1405" on="1"/>
        <pt x="1049" y="0" on="1"/>
        <pt x="862" y="0" on="1"/>
      </contour>
      <contour>
        <pt x="319" y="477" on="1"/>
        <pt x="782" y="477" on="1"/>
        <pt x="678" y="1102" on="1"/>
        <pt x="675" y="1119" on="0"/>
        <pt x="671" y="1172" on="0"/>
        <pt x="670" y="1197" on="1"/>
        <pt x="668" y="1226" on="0"/>
        <pt x="668" y="1257" on="1"/>
        <pt x="659" y="1257" on="1"/>
        <pt x="649" y="1225" on="0"/>
        <pt x="638" y="1196" on="1"/>
        <pt x="629" y="1171" on="0"/>
        <pt x="610" y="1119" on="0"/>
        <pt x="602" y="1102" on="1"/>
      </contour>
    </TTGlyph>
    <TTGlyph name="Amacron" xMin="-74" yMin="0" xMax="1049" yMax="1702">
      <contour>
        <pt x="956" y="1554" on="1"/>
        <pt x="444" y="1554" on="1"/>
        <pt x="467" y="1702" on="1"/>
        <pt x="979" y="1702" on="1"/>
      </contour>
      <contour>
        <pt x="809" y="313" on="1"/>
        <pt x="246" y="313" on="1"/>
        <pt x="104" y="0" on="1"/>
        <pt x="-74" y="0" on="1"/>
        <pt x="569" y="1405" on="1"/>
        <pt x="801" y="1405" on="1"/>
        <pt x="1049" y="0" on="1"/>
        <pt x="862" y="0" on="1"/>
      </contour>
      <contour>
        <pt x="319" y="477" on="1"/>
        <pt x="782" y="477" on="1"/>
        <pt x="678" y="1102" on="1"/>
        <pt x="675" y="1119" on="0"/>
        <pt x="671" y="1172" on="0"/>
        <pt x="670" y="1197" on="1"/>
        <pt x="668" y="1226" on="0"/>
        <pt x="668" y="1257" on="1"/>
        <pt x="659" y="1257" on="1"/>
        <pt x="649" y="1225" on="0"/>
        <pt x="638" y="1196" on="1"/>
        <pt x="629" y="1171" on="0"/>
        <pt x="610" y="1119" on="0"/>
        <pt x="602" y="1102" on="1"/>
      </contour>
    </TTGlyph>
    <TTGlyph name="Aogonek" xMin="-74" yMin="-389" xMax="1110" yMax="1405">
      <contour>
        <pt x="1094" y="-360" on="1"/>
        <pt x="1025" y="-389" on="0"/>
        <pt x="965" y="-389" on="1"/>
        <pt x="933" y="-389" on="0"/>
        <pt x="873" y="-374" on="0"/>
        <pt x="826" y="-336" on="0"/>
        <pt x="797" y="-274" on="0"/>
        <pt x="797" y="-227" on="1"/>
        <pt x="797" y="-187" on="0"/>
        <pt x="817" y="-121" on="0"/>
        <pt x="850" y="-66" on="0"/>
        <pt x="893" y="-20" on="0"/>
        <pt x="915" y="0" on="1"/>
        <pt x="862" y="0" on="1"/>
        <pt x="809" y="313" on="1"/>
        <pt x="246" y="313" on="1"/>
        <pt x="104" y="0" on="1"/>
        <pt x="-74" y="0" on="1"/>
        <pt x="569" y="1405" on="1"/>
        <pt x="801" y="1405" on="1"/>
        <pt x="1049" y="0" on="1"/>
        <pt x="1036" y="-13" on="0"/>
        <pt x="1006" y="-50" on="0"/>
        <pt x="981" y="-95" on="0"/>
        <pt x="965" y="-145" on="0"/>
        <pt x="965" y="-170" on="1"/>
        <pt x="965" y="-205" on="0"/>
        <pt x="999" y="-256" on="0"/>
        <pt x="1042" y="-256" on="1"/>
        <pt x="1110" y="-256" on="1"/>
      </contour>
      <contour>
        <pt x="678" y="1102" on="1"/>
        <pt x="675" y="1119" on="0"/>
        <pt x="671" y="1172" on="0"/>
        <pt x="670" y="1197" on="1"/>
        <pt x="668" y="1226" on="0"/>
        <pt x="668" y="1257" on="1"/>
        <pt x="659" y="1257" on="1"/>
        <pt x="649" y="1225" on="0"/>
        <pt x="638" y="1196" on="1"/>
        <pt x="629" y="1171" on="0"/>
        <pt x="610" y="1119" on="0"/>
        <pt x="602" y="1102" on="1"/>
        <pt x="319" y="477" on="1"/>
        <pt x="782" y="477" on="1"/>
      </contour>
    </TTGlyph>
    <TTGlyph name="Aring" xMin="-74" yMin="0" xMax="1049" yMax="1837">
      <contour>
        <pt x="733" y="1837" on="1"/>
        <pt x="772" y="1837" on="0"/>
        <pt x="836" y="1811" on="0"/>
        <pt x="883" y="1765" on="0"/>
        <pt x="909" y="1702" on="0"/>
        <pt x="909" y="1665" on="1"/>
        <pt x="909" y="1623" on="0"/>
        <pt x="876" y="1549" on="0"/>
        <pt x="820" y="1495" on="0"/>
        <pt x="748" y="1464" on="0"/>
        <pt x="709" y="1464" on="1"/>
        <pt x="670" y="1464" on="0"/>
        <pt x="605" y="1490" on="0"/>
        <pt x="557" y="1535" on="0"/>
        <pt x="530" y="1598" on="0"/>
        <pt x="530" y="1636" on="1"/>
        <pt x="530" y="1681" on="0"/>
        <pt x="565" y="1755" on="0"/>
        <pt x="622" y="1808" on="0"/>
        <pt x="695" y="1837" on="0"/>
      </contour>
      <contour>
        <pt x="727" y="1755" on="1"/>
        <pt x="684" y="1755" on="0"/>
        <pt x="623" y="1692" on="0"/>
        <pt x="623" y="1642" on="1"/>
        <pt x="623" y="1623" on="0"/>
        <pt x="636" y="1588" on="0"/>
        <pt x="660" y="1562" on="0"/>
        <pt x="694" y="1546" on="0"/>
        <pt x="715" y="1546" on="1"/>
        <pt x="736" y="1546" on="0"/>
        <pt x="773" y="1563" on="0"/>
        <pt x="802" y="1593" on="0"/>
        <pt x="819" y="1634" on="0"/>
        <pt x="819" y="1659" on="1"/>
        <pt x="819" y="1678" on="0"/>
        <pt x="805" y="1713" on="0"/>
        <pt x="781" y="1739" on="0"/>
        <pt x="747" y="1755" on="0"/>
      </contour>
      <contour>
        <pt x="809" y="313" on="1"/>
        <pt x="246" y="313" on="1"/>
        <pt x="104" y="0" on="1"/>
        <pt x="-74" y="0" on="1"/>
        <pt x="569" y="1405" on="1"/>
        <pt x="801" y="1405" on="1"/>
        <pt x="1049" y="0" on="1"/>
        <pt x="862" y="0" on="1"/>
      </contour>
      <contour>
        <pt x="319" y="477" on="1"/>
        <pt x="782" y="477" on="1"/>
        <pt x="678" y="1102" on="1"/>
        <pt x="675" y="1119" on="0"/>
        <pt x="671" y="1172" on="0"/>
        <pt x="670" y="1197" on="1"/>
        <pt x="668" y="1226" on="0"/>
        <pt x="668" y="1257" on="1"/>
        <pt x="659" y="1257" on="1"/>
        <pt x="649" y="1225" on="0"/>
        <pt x="638" y="1196" on="1"/>
        <pt x="629" y="1171" on="0"/>
        <pt x="610" y="1119" on="0"/>
        <pt x="602" y="1102" on="1"/>
      </contour>
    </TTGlyph>
    <TTGlyph name="Aringacute" xMin="-74" yMin="0" xMax="1049" yMax="1960">
      <contour>
        <pt x="692" y="1737" on="1"/>
        <pt x="838" y="1960" on="1"/>
        <pt x="1022" y="1960" on="1"/>
        <pt x="1024" y="1954" on="1"/>
        <pt x="836" y="1737" on="1"/>
      </contour>
      <contour>
        <pt x="862" y="0" on="1"/>
        <pt x="809" y="313" on="1"/>
        <pt x="246" y="313" on="1"/>
        <pt x="104" y="0" on="1"/>
        <pt x="-74" y="0" on="1"/>
        <pt x="549" y="1358" on="1"/>
        <pt x="498" y="1406" on="0"/>
        <pt x="498" y="1481" on="1"/>
        <pt x="498" y="1525" on="0"/>
        <pt x="532" y="1599" on="0"/>
        <pt x="589" y="1652" on="0"/>
        <pt x="662" y="1681" on="0"/>
        <pt x="700" y="1681" on="1"/>
        <pt x="739" y="1681" on="0"/>
        <pt x="804" y="1655" on="0"/>
        <pt x="851" y="1609" on="0"/>
        <pt x="877" y="1546" on="0"/>
        <pt x="877" y="1509" on="1"/>
        <pt x="877" y="1464" on="0"/>
        <pt x="840" y="1388" on="0"/>
        <pt x="809" y="1362" on="1"/>
        <pt x="1049" y="0" on="1"/>
      </contour>
      <contour>
        <pt x="694" y="1599" on="1"/>
        <pt x="673" y="1599" on="0"/>
        <pt x="635" y="1582" on="0"/>
        <pt x="606" y="1552" on="0"/>
        <pt x="590" y="1511" on="0"/>
        <pt x="590" y="1487" on="1"/>
        <pt x="590" y="1468" on="0"/>
        <pt x="603" y="1433" on="0"/>
        <pt x="627" y="1407" on="0"/>
        <pt x="661" y="1391" on="0"/>
        <pt x="682" y="1391" on="1"/>
        <pt x="703" y="1391" on="0"/>
        <pt x="740" y="1408" on="0"/>
        <pt x="769" y="1438" on="0"/>
        <pt x="786" y="1479" on="0"/>
        <pt x="786" y="1503" on="1"/>
        <pt x="786" y="1522" on="0"/>
        <pt x="772" y="1557" on="0"/>
        <pt x="748" y="1583" on="0"/>
        <pt x="714" y="1599" on="0"/>
      </contour>
      <contour>
        <pt x="678" y="1102" on="1"/>
        <pt x="675" y="1119" on="0"/>
        <pt x="671" y="1172" on="0"/>
        <pt x="670" y="1197" on="1"/>
        <pt x="668" y="1226" on="0"/>
        <pt x="668" y="1257" on="1"/>
        <pt x="659" y="1257" on="1"/>
        <pt x="649" y="1225" on="0"/>
        <pt x="638" y="1196" on="1"/>
        <pt x="629" y="1171" on="0"/>
        <pt x="610" y="1119" on="0"/>
        <pt x="602" y="1102" on="1"/>
        <pt x="319" y="477" on="1"/>
        <pt x="782" y="477" on="1"/>
      </contour>
    </TTGlyph>
    <TTGlyph name="Atilde" xMin="-74" yMin="0" xMax="1049" yMax="1808">
      <contour>
        <pt x="1038" y="1808" on="1"/>
        <pt x="1033" y="1773" on="0"/>
        <pt x="1004" y="1697" on="0"/>
        <pt x="955" y="1635" on="0"/>
        <pt x="887" y="1595" on="0"/>
        <pt x="842" y="1595" on="1"/>
        <pt x="807" y="1595" on="0"/>
        <pt x="749" y="1615" on="0"/>
        <pt x="694" y="1639" on="0"/>
        <pt x="639" y="1659" on="0"/>
        <pt x="608" y="1659" on="1"/>
        <pt x="580" y="1659" on="0"/>
        <pt x="538" y="1630" on="0"/>
        <pt x="528" y="1595" on="1"/>
        <pt x="412" y="1595" on="1"/>
        <pt x="417" y="1631" on="0"/>
        <pt x="446" y="1706" on="0"/>
        <pt x="494" y="1768" on="0"/>
        <pt x="561" y="1808" on="0"/>
        <pt x="606" y="1808" on="1"/>
        <pt x="640" y="1808" on="0"/>
        <pt x="699" y="1788" on="0"/>
        <pt x="754" y="1765" on="0"/>
        <pt x="809" y="1745" on="0"/>
        <pt x="840" y="1745" on="1"/>
        <pt x="868" y="1745" on="0"/>
        <pt x="910" y="1773" on="0"/>
        <pt x="920" y="1808" on="1"/>
      </contour>
      <contour>
        <pt x="809" y="313" on="1"/>
        <pt x="246" y="313" on="1"/>
        <pt x="104" y="0" on="1"/>
        <pt x="-74" y="0" on="1"/>
        <pt x="569" y="1405" on="1"/>
        <pt x="801" y="1405" on="1"/>
        <pt x="1049" y="0" on="1"/>
        <pt x="862" y="0" on="1"/>
      </contour>
      <contour>
        <pt x="319" y="477" on="1"/>
        <pt x="782" y="477" on="1"/>
        <pt x="678" y="1102" on="1"/>
        <pt x="675" y="1119" on="0"/>
        <pt x="671" y="1172" on="0"/>
        <pt x="670" y="1197" on="1"/>
        <pt x="668" y="1226" on="0"/>
        <pt x="668" y="1257" on="1"/>
        <pt x="659" y="1257" on="1"/>
        <pt x="649" y="1225" on="0"/>
        <pt x="638" y="1196" on="1"/>
        <pt x="629" y="1171" on="0"/>
        <pt x="610" y="1119" on="0"/>
        <pt x="602" y="1102" on="1"/>
      </contour>
    </TTGlyph>
    <TTGlyph name="B" xMin="70" yMin="0" xMax="1100" yMax="1405">
      <contour>
        <pt x="268" y="1405" on="1"/>
        <pt x="762" y="1405" on="1"/>
        <pt x="838" y="1405" on="0"/>
        <pt x="963" y="1363" on="0"/>
        <pt x="1051" y="1285" on="0"/>
        <pt x="1100" y="1175" on="0"/>
        <pt x="1100" y="1108" on="1"/>
        <pt x="1100" y="1039" on="0"/>
        <pt x="1057" y="919" on="0"/>
        <pt x="984" y="823" on="0"/>
        <pt x="888" y="755" on="0"/>
        <pt x="836" y="737" on="1"/>
        <pt x="834" y="729" on="1"/>
        <pt x="878" y="714" on="0"/>
        <pt x="952" y="658" on="0"/>
        <pt x="1006" y="580" on="0"/>
        <pt x="1036" y="480" on="0"/>
        <pt x="1036" y="422" on="1"/>
        <pt x="1036" y="323" on="0"/>
        <pt x="961" y="166" on="0"/>
        <pt x="839" y="58" on="0"/>
        <pt x="682" y="0" on="0"/>
        <pt x="600" y="0" on="1"/>
        <pt x="70" y="0" on="1"/>
      </contour>
      <contour>
        <pt x="340" y="637" on="1"/>
        <pt x="274" y="164" on="1"/>
        <pt x="600" y="164" on="1"/>
        <pt x="648" y="164" on="0"/>
        <pt x="738" y="198" on="0"/>
        <pt x="808" y="264" on="0"/>
        <pt x="850" y="360" on="0"/>
        <pt x="850" y="422" on="1"/>
        <pt x="850" y="466" on="0"/>
        <pt x="821" y="544" on="0"/>
        <pt x="767" y="603" on="0"/>
        <pt x="688" y="637" on="0"/>
        <pt x="637" y="637" on="1"/>
      </contour>
      <contour>
        <pt x="424" y="1241" on="1"/>
        <pt x="362" y="801" on="1"/>
        <pt x="643" y="801" on="1"/>
        <pt x="703" y="801" on="0"/>
        <pt x="800" y="845" on="0"/>
        <pt x="868" y="917" on="0"/>
        <pt x="905" y="1011" on="0"/>
        <pt x="905" y="1061" on="1"/>
        <pt x="905" y="1153" on="0"/>
        <pt x="791" y="1241" on="0"/>
        <pt x="696" y="1241" on="1"/>
      </contour>
    </TTGlyph>
    <TTGlyph name="C" xMin="104" yMin="-25" xMax="1167" yMax="1430">
      <contour>
        <pt x="723" y="1430" on="1"/>
        <pt x="941" y="1430" on="0"/>
        <pt x="1167" y="1184" on="0"/>
        <pt x="1167" y="928" on="1"/>
        <pt x="1167" y="895" on="1"/>
        <pt x="981" y="895" on="1"/>
        <pt x="981" y="940" on="1"/>
        <pt x="981" y="1101" on="0"/>
        <pt x="854" y="1264" on="0"/>
        <pt x="721" y="1264" on="1"/>
        <pt x="649" y="1264" on="0"/>
        <pt x="535" y="1211" on="0"/>
        <pt x="447" y="1122" on="0"/>
        <pt x="383" y="1005" on="0"/>
        <pt x="338" y="876" on="0"/>
        <pt x="310" y="745" on="0"/>
        <pt x="295" y="628" on="0"/>
        <pt x="289" y="532" on="0"/>
        <pt x="289" y="504" on="1"/>
        <pt x="289" y="329" on="0"/>
        <pt x="437" y="143" on="0"/>
        <pt x="578" y="143" on="1"/>
        <pt x="656" y="143" on="0"/>
        <pt x="777" y="201" on="0"/>
        <pt x="865" y="298" on="0"/>
        <pt x="919" y="426" on="0"/>
        <pt x="930" y="496" on="1"/>
        <pt x="1108" y="496" on="1"/>
        <pt x="1094" y="391" on="0"/>
        <pt x="1014" y="202" on="0"/>
        <pt x="883" y="59" on="0"/>
        <pt x="701" y="-25" on="0"/>
        <pt x="584" y="-25" on="1"/>
        <pt x="474" y="-25" on="0"/>
        <pt x="297" y="37" on="0"/>
        <pt x="172" y="164" on="0"/>
        <pt x="104" y="360" on="0"/>
        <pt x="104" y="494" on="1"/>
        <pt x="104" y="586" on="0"/>
        <pt x="129" y="796" on="0"/>
        <pt x="186" y="1004" on="0"/>
        <pt x="279" y="1196" on="0"/>
        <pt x="417" y="1342" on="0"/>
        <pt x="602" y="1430" on="0"/>
      </contour>
    </TTGlyph>
    <TTGlyph name="Cacute" xMin="104" yMin="-25" xMax="1167" yMax="1809">
      <contour>
        <pt x="723" y="1430" on="1"/>
        <pt x="941" y="1430" on="0"/>
        <pt x="1167" y="1184" on="0"/>
        <pt x="1167" y="928" on="1"/>
        <pt x="1167" y="895" on="1"/>
        <pt x="981" y="895" on="1"/>
        <pt x="981" y="940" on="1"/>
        <pt x="981" y="1101" on="0"/>
        <pt x="854" y="1264" on="0"/>
        <pt x="721" y="1264" on="1"/>
        <pt x="649" y="1264" on="0"/>
        <pt x="535" y="1211" on="0"/>
        <pt x="447" y="1122" on="0"/>
        <pt x="383" y="1005" on="0"/>
        <pt x="338" y="876" on="0"/>
        <pt x="310" y="745" on="0"/>
        <pt x="295" y="628" on="0"/>
        <pt x="289" y="532" on="0"/>
        <pt x="289" y="504" on="1"/>
        <pt x="289" y="329" on="0"/>
        <pt x="437" y="143" on="0"/>
        <pt x="578" y="143" on="1"/>
        <pt x="656" y="143" on="0"/>
        <pt x="777" y="201" on="0"/>
        <pt x="865" y="298" on="0"/>
        <pt x="919" y="426" on="0"/>
        <pt x="930" y="496" on="1"/>
        <pt x="1108" y="496" on="1"/>
        <pt x="1094" y="391" on="0"/>
        <pt x="1014" y="202" on="0"/>
        <pt x="883" y="59" on="0"/>
        <pt x="701" y="-25" on="0"/>
        <pt x="584" y="-25" on="1"/>
        <pt x="474" y="-25" on="0"/>
        <pt x="297" y="37" on="0"/>
        <pt x="172" y="164" on="0"/>
        <pt x="104" y="360" on="0"/>
        <pt x="104" y="494" on="1"/>
        <pt x="104" y="586" on="0"/>
        <pt x="129" y="796" on="0"/>
        <pt x="186" y="1004" on="0"/>
        <pt x="279" y="1196" on="0"/>
        <pt x="417" y="1342" on="0"/>
        <pt x="602" y="1430" on="0"/>
      </contour>
      <contour>
        <pt x="993" y="1803" on="1"/>
        <pt x="772" y="1538" on="1"/>
        <pt x="630" y="1538" on="1"/>
        <pt x="806" y="1809" on="1"/>
        <pt x="991" y="1809" on="1"/>
      </contour>
    </TTGlyph>
    <TTGlyph name="Ccaron" xMin="104" yMin="-25" xMax="1167" yMax="1809">
      <contour>
        <pt x="723" y="1430" on="1"/>
        <pt x="941" y="1430" on="0"/>
        <pt x="1167" y="1184" on="0"/>
        <pt x="1167" y="928" on="1"/>
        <pt x="1167" y="895" on="1"/>
        <pt x="981" y="895" on="1"/>
        <pt x="981" y="940" on="1"/>
        <pt x="981" y="1101" on="0"/>
        <pt x="854" y="1264" on="0"/>
        <pt x="721" y="1264" on="1"/>
        <pt x="649" y="1264" on="0"/>
        <pt x="535" y="1211" on="0"/>
        <pt x="447" y="1122" on="0"/>
        <pt x="383" y="1005" on="0"/>
        <pt x="338" y="876" on="0"/>
        <pt x="310" y="745" on="0"/>
        <pt x="295" y="628" on="0"/>
        <pt x="289" y="532" on="0"/>
        <pt x="289" y="504" on="1"/>
        <pt x="289" y="329" on="0"/>
        <pt x="437" y="143" on="0"/>
        <pt x="578" y="143" on="1"/>
        <pt x="656" y="143" on="0"/>
        <pt x="777" y="201" on="0"/>
        <pt x="865" y="298" on="0"/>
        <pt x="919" y="426" on="0"/>
        <pt x="930" y="496" on="1"/>
        <pt x="1108" y="496" on="1"/>
        <pt x="1094" y="391" on="0"/>
        <pt x="1014" y="202" on="0"/>
        <pt x="883" y="59" on="0"/>
        <pt x="701" y="-25" on="0"/>
        <pt x="584" y="-25" on="1"/>
        <pt x="474" y="-25" on="0"/>
        <pt x="297" y="37" on="0"/>
        <pt x="172" y="164" on="0"/>
        <pt x="104" y="360" on="0"/>
        <pt x="104" y="494" on="1"/>
        <pt x="104" y="586" on="0"/>
        <pt x="129" y="796" on="0"/>
        <pt x="186" y="1004" on="0"/>
        <pt x="279" y="1196" on="0"/>
        <pt x="417" y="1342" on="0"/>
        <pt x="602" y="1430" on="0"/>
      </contour>
      <contour>
        <pt x="812" y="1532" on="1"/>
        <pt x="653" y="1532" on="1"/>
        <pt x="518" y="1809" on="1"/>
        <pt x="681" y="1809" on="1"/>
        <pt x="749" y="1647" on="1"/>
        <pt x="857" y="1809" on="1"/>
        <pt x="1027" y="1809" on="1"/>
      </contour>
    </TTGlyph>
    <TTGlyph name="Ccedilla" xMin="104" yMin="-373" xMax="1167" yMax="1430">
      <contour>
        <pt x="981" y="940" on="1"/>
        <pt x="981" y="1101" on="0"/>
        <pt x="854" y="1264" on="0"/>
        <pt x="721" y="1264" on="1"/>
        <pt x="649" y="1264" on="0"/>
        <pt x="535" y="1211" on="0"/>
        <pt x="447" y="1122" on="0"/>
        <pt x="383" y="1005" on="0"/>
        <pt x="338" y="876" on="0"/>
        <pt x="310" y="745" on="0"/>
        <pt x="295" y="628" on="0"/>
        <pt x="289" y="532" on="0"/>
        <pt x="289" y="504" on="1"/>
        <pt x="289" y="329" on="0"/>
        <pt x="437" y="143" on="0"/>
        <pt x="578" y="143" on="1"/>
        <pt x="656" y="143" on="0"/>
        <pt x="777" y="201" on="0"/>
        <pt x="865" y="298" on="0"/>
        <pt x="919" y="426" on="0"/>
        <pt x="930" y="496" on="1"/>
        <pt x="1108" y="496" on="1"/>
        <pt x="1094" y="391" on="0"/>
        <pt x="1014" y="202" on="0"/>
        <pt x="883" y="59" on="0"/>
        <pt x="701" y="-25" on="0"/>
        <pt x="584" y="-25" on="1"/>
        <pt x="573" y="-25" on="1"/>
        <pt x="558" y="-74" on="1"/>
        <pt x="588" y="-76" on="0"/>
        <pt x="642" y="-90" on="0"/>
        <pt x="684" y="-116" on="0"/>
        <pt x="708" y="-156" on="0"/>
        <pt x="708" y="-184" on="1"/>
        <pt x="708" y="-243" on="0"/>
        <pt x="657" y="-317" on="0"/>
        <pt x="584" y="-358" on="0"/>
        <pt x="501" y="-373" on="0"/>
        <pt x="470" y="-373" on="1"/>
        <pt x="427" y="-373" on="0"/>
        <pt x="335" y="-364" on="0"/>
        <pt x="300" y="-356" on="1"/>
        <pt x="314" y="-256" on="1"/>
        <pt x="470" y="-256" on="1"/>
        <pt x="507" y="-256" on="0"/>
        <pt x="552" y="-232" on="0"/>
        <pt x="552" y="-195" on="1"/>
        <pt x="552" y="-176" on="0"/>
        <pt x="523" y="-158" on="0"/>
        <pt x="489" y="-158" on="1"/>
        <pt x="421" y="-158" on="1"/>
        <pt x="463" y="-15" on="1"/>
        <pt x="380" y="0" on="0"/>
        <pt x="247" y="77" on="0"/>
        <pt x="154" y="203" on="0"/>
        <pt x="104" y="380" on="0"/>
        <pt x="104" y="494" on="1"/>
        <pt x="104" y="586" on="0"/>
        <pt x="129" y="796" on="0"/>
        <pt x="186" y="1004" on="0"/>
        <pt x="279" y="1196" on="0"/>
        <pt x="417" y="1342" on="0"/>
        <pt x="602" y="1430" on="0"/>
        <pt x="723" y="1430" on="1"/>
        <pt x="941" y="1430" on="0"/>
        <pt x="1167" y="1184" on="0"/>
        <pt x="1167" y="928" on="1"/>
        <pt x="1167" y="895" on="1"/>
        <pt x="981" y="895" on="1"/>
      </contour>
    </TTGlyph>
    <TTGlyph name="Ccircumflex" xMin="104" yMin="-25" xMax="1167" yMax="1809">
      <contour>
        <pt x="723" y="1430" on="1"/>
        <pt x="941" y="1430" on="0"/>
        <pt x="1167" y="1184" on="0"/>
        <pt x="1167" y="928" on="1"/>
        <pt x="1167" y="895" on="1"/>
        <pt x="981" y="895" on="1"/>
        <pt x="981" y="940" on="1"/>
        <pt x="981" y="1101" on="0"/>
        <pt x="854" y="1264" on="0"/>
        <pt x="721" y="1264" on="1"/>
        <pt x="649" y="1264" on="0"/>
        <pt x="535" y="1211" on="0"/>
        <pt x="447" y="1122" on="0"/>
        <pt x="383" y="1005" on="0"/>
        <pt x="338" y="876" on="0"/>
        <pt x="310" y="745" on="0"/>
        <pt x="295" y="628" on="0"/>
        <pt x="289" y="532" on="0"/>
        <pt x="289" y="504" on="1"/>
        <pt x="289" y="329" on="0"/>
        <pt x="437" y="143" on="0"/>
        <pt x="578" y="143" on="1"/>
        <pt x="656" y="143" on="0"/>
        <pt x="777" y="201" on="0"/>
        <pt x="865" y="298" on="0"/>
        <pt x="919" y="426" on="0"/>
        <pt x="930" y="496" on="1"/>
        <pt x="1108" y="496" on="1"/>
        <pt x="1094" y="391" on="0"/>
        <pt x="1014" y="202" on="0"/>
        <pt x="883" y="59" on="0"/>
        <pt x="701" y="-25" on="0"/>
        <pt x="584" y="-25" on="1"/>
        <pt x="474" y="-25" on="0"/>
        <pt x="297" y="37" on="0"/>
        <pt x="172" y="164" on="0"/>
        <pt x="104" y="360" on="0"/>
        <pt x="104" y="494" on="1"/>
        <pt x="104" y="586" on="0"/>
        <pt x="129" y="796" on="0"/>
        <pt x="186" y="1004" on="0"/>
        <pt x="279" y="1196" on="0"/>
        <pt x="417" y="1342" on="0"/>
        <pt x="602" y="1430" on="0"/>
      </contour>
      <contour>
        <pt x="984" y="1532" on="1"/>
        <pt x="826" y="1532" on="1"/>
        <pt x="759" y="1694" on="1"/>
        <pt x="644" y="1532" on="1"/>
        <pt x="474" y="1532" on="1"/>
        <pt x="689" y="1809" on="1"/>
        <pt x="849" y="1809" on="1"/>
      </contour>
    </TTGlyph>
    <TTGlyph name="Cdotaccent" xMin="104" yMin="-25" xMax="1167" yMax="1809">
      <contour>
        <pt x="723" y="1430" on="1"/>
        <pt x="941" y="1430" on="0"/>
        <pt x="1167" y="1184" on="0"/>
        <pt x="1167" y="928" on="1"/>
        <pt x="1167" y="895" on="1"/>
        <pt x="981" y="895" on="1"/>
        <pt x="981" y="940" on="1"/>
        <pt x="981" y="1101" on="0"/>
        <pt x="854" y="1264" on="0"/>
        <pt x="721" y="1264" on="1"/>
        <pt x="649" y="1264" on="0"/>
        <pt x="535" y="1211" on="0"/>
        <pt x="447" y="1122" on="0"/>
        <pt x="383" y="1005" on="0"/>
        <pt x="338" y="876" on="0"/>
        <pt x="310" y="745" on="0"/>
        <pt x="295" y="628" on="0"/>
        <pt x="289" y="532" on="0"/>
        <pt x="289" y="504" on="1"/>
        <pt x="289" y="329" on="0"/>
        <pt x="437" y="143" on="0"/>
        <pt x="578" y="143" on="1"/>
        <pt x="656" y="143" on="0"/>
        <pt x="777" y="201" on="0"/>
        <pt x="865" y="298" on="0"/>
        <pt x="919" y="426" on="0"/>
        <pt x="930" y="496" on="1"/>
        <pt x="1108" y="496" on="1"/>
        <pt x="1094" y="391" on="0"/>
        <pt x="1014" y="202" on="0"/>
        <pt x="883" y="59" on="0"/>
        <pt x="701" y="-25" on="0"/>
        <pt x="584" y="-25" on="1"/>
        <pt x="474" y="-25" on="0"/>
        <pt x="297" y="37" on="0"/>
        <pt x="172" y="164" on="0"/>
        <pt x="104" y="360" on="0"/>
        <pt x="104" y="494" on="1"/>
        <pt x="104" y="586" on="0"/>
        <pt x="129" y="796" on="0"/>
        <pt x="186" y="1004" on="0"/>
        <pt x="279" y="1196" on="0"/>
        <pt x="417" y="1342" on="0"/>
        <pt x="602" y="1430" on="0"/>
      </contour>
      <contour>
        <pt x="838" y="1614" on="1"/>
        <pt x="660" y="1614" on="1"/>
        <pt x="687" y="1809" on="1"/>
        <pt x="865" y="1809" on="1"/>
      </contour>
    </TTGlyph>
    <TTGlyph name="D" xMin="70" yMin="0" xMax="1153" yMax="1405">
      <contour>
        <pt x="70" y="0" on="1"/>
        <pt x="268" y="1405" on="1"/>
        <pt x="684" y="1405" on="1"/>
        <pt x="795" y="1405" on="0"/>
        <pt x="970" y="1339" on="0"/>
        <pt x="1090" y="1207" on="0"/>
        <pt x="1153" y="1010" on="0"/>
        <pt x="1153" y="879" on="1"/>
        <pt x="1153" y="788" on="0"/>
        <pt x="1125" y="587" on="0"/>
        <pt x="1064" y="391" on="0"/>
        <pt x="968" y="214" on="0"/>
        <pt x="832" y="80" on="0"/>
        <pt x="655" y="0" on="0"/>
        <pt x="543" y="0" on="1"/>
      </contour>
      <contour>
        <pt x="424" y="1241" on="1"/>
        <pt x="274" y="164" on="1"/>
        <pt x="522" y="164" on="1"/>
        <pt x="610" y="164" on="0"/>
        <pt x="744" y="230" on="0"/>
        <pt x="843" y="340" on="0"/>
        <pt x="910" y="485" on="0"/>
        <pt x="950" y="644" on="0"/>
        <pt x="967" y="805" on="0"/>
        <pt x="967" y="877" on="1"/>
        <pt x="967" y="969" on="0"/>
        <pt x="926" y="1106" on="0"/>
        <pt x="848" y="1196" on="0"/>
        <pt x="735" y="1241" on="0"/>
        <pt x="664" y="1241" on="1"/>
      </contour>
    </TTGlyph>
    <TTGlyph name="Dcaron" xMin="70" yMin="0" xMax="1153" yMax="1808">
      <contour>
        <pt x="758" y="1532" on="1"/>
        <pt x="598" y="1532" on="1"/>
        <pt x="463" y="1808" on="1"/>
        <pt x="627" y="1808" on="1"/>
        <pt x="694" y="1647" on="1"/>
        <pt x="803" y="1808" on="1"/>
        <pt x="973" y="1808" on="1"/>
      </contour>
      <contour>
        <pt x="70" y="0" on="1"/>
        <pt x="268" y="1405" on="1"/>
        <pt x="684" y="1405" on="1"/>
        <pt x="795" y="1405" on="0"/>
        <pt x="970" y="1339" on="0"/>
        <pt x="1090" y="1207" on="0"/>
        <pt x="1153" y="1010" on="0"/>
        <pt x="1153" y="879" on="1"/>
        <pt x="1153" y="788" on="0"/>
        <pt x="1125" y="587" on="0"/>
        <pt x="1064" y="391" on="0"/>
        <pt x="968" y="214" on="0"/>
        <pt x="832" y="80" on="0"/>
        <pt x="655" y="0" on="0"/>
        <pt x="543" y="0" on="1"/>
      </contour>
      <contour>
        <pt x="424" y="1241" on="1"/>
        <pt x="274" y="164" on="1"/>
        <pt x="522" y="164" on="1"/>
        <pt x="610" y="164" on="0"/>
        <pt x="744" y="230" on="0"/>
        <pt x="843" y="340" on="0"/>
        <pt x="910" y="485" on="0"/>
        <pt x="950" y="644" on="0"/>
        <pt x="967" y="805" on="0"/>
        <pt x="967" y="877" on="1"/>
        <pt x="967" y="969" on="0"/>
        <pt x="926" y="1106" on="0"/>
        <pt x="848" y="1196" on="0"/>
        <pt x="735" y="1241" on="0"/>
        <pt x="664" y="1241" on="1"/>
      </contour>
    </TTGlyph>
    <TTGlyph name="Dcroat" xMin="29" yMin="0" xMax="1153" yMax="1405">
      <contour>
        <pt x="70" y="0" on="1"/>
        <pt x="162" y="662" on="1"/>
        <pt x="29" y="662" on="1"/>
        <pt x="47" y="793" on="1"/>
        <pt x="180" y="793" on="1"/>
        <pt x="268" y="1405" on="1"/>
        <pt x="684" y="1405" on="1"/>
        <pt x="795" y="1405" on="0"/>
        <pt x="970" y="1339" on="0"/>
        <pt x="1090" y="1207" on="0"/>
        <pt x="1153" y="1010" on="0"/>
        <pt x="1153" y="879" on="1"/>
        <pt x="1153" y="788" on="0"/>
        <pt x="1125" y="587" on="0"/>
        <pt x="1064" y="391" on="0"/>
        <pt x="968" y="214" on="0"/>
        <pt x="832" y="80" on="0"/>
        <pt x="655" y="0" on="0"/>
        <pt x="543" y="0" on="1"/>
      </contour>
      <contour>
        <pt x="424" y="1241" on="1"/>
        <pt x="360" y="793" on="1"/>
        <pt x="682" y="793" on="1"/>
        <pt x="664" y="662" on="1"/>
        <pt x="342" y="662" on="1"/>
        <pt x="274" y="164" on="1"/>
        <pt x="522" y="164" on="1"/>
        <pt x="610" y="164" on="0"/>
        <pt x="744" y="230" on="0"/>
        <pt x="843" y="340" on="0"/>
        <pt x="910" y="485" on="0"/>
        <pt x="950" y="644" on="0"/>
        <pt x="967" y="805" on="0"/>
        <pt x="967" y="877" on="1"/>
        <pt x="967" y="969" on="0"/>
        <pt x="926" y="1106" on="0"/>
        <pt x="848" y="1196" on="0"/>
        <pt x="735" y="1241" on="0"/>
        <pt x="664" y="1241" on="1"/>
      </contour>
    </TTGlyph>
    <TTGlyph name="Delta" xMin="11" yMin="0" xMax="1107" yMax="1405">
      <contour>
        <pt x="1107" y="78" on="1"/>
        <pt x="1098" y="0" on="1"/>
        <pt x="11" y="0" on="1"/>
        <pt x="19" y="78" on="1"/>
        <pt x="633" y="1405" on="1"/>
        <pt x="865" y="1405" on="1"/>
      </contour>
      <contour>
        <pt x="711" y="1208" on="1"/>
        <pt x="242" y="172" on="1"/>
        <pt x="902" y="172" on="1"/>
        <pt x="719" y="1208" on="1"/>
      </contour>
    </TTGlyph>
    <TTGlyph name="E" xMin="70" yMin="0" xMax="1135" yMax="1405">
      <contour>
        <pt x="70" y="0" on="1"/>
        <pt x="268" y="1405" on="1"/>
        <pt x="1135" y="1405" on="1"/>
        <pt x="1110" y="1241" on="1"/>
        <pt x="424" y="1241" on="1"/>
        <pt x="362" y="801" on="1"/>
        <pt x="958" y="801" on="1"/>
        <pt x="936" y="637" on="1"/>
        <pt x="340" y="637" on="1"/>
        <pt x="274" y="164" on="1"/>
        <pt x="973" y="164" on="1"/>
        <pt x="948" y="0" on="1"/>
      </contour>
    </TTGlyph>
    <TTGlyph name="Eacute" xMin="70" yMin="0" xMax="1135" yMax="1808">
      <contour>
        <pt x="942" y="1802" on="1"/>
        <pt x="723" y="1538" on="1"/>
        <pt x="580" y="1538" on="1"/>
        <pt x="756" y="1808" on="1"/>
        <pt x="940" y="1808" on="1"/>
      </contour>
      <contour>
        <pt x="70" y="0" on="1"/>
        <pt x="268" y="1405" on="1"/>
        <pt x="1135" y="1405" on="1"/>
        <pt x="1110" y="1241" on="1"/>
        <pt x="424" y="1241" on="1"/>
        <pt x="362" y="801" on="1"/>
        <pt x="958" y="801" on="1"/>
        <pt x="936" y="637" on="1"/>
        <pt x="340" y="637" on="1"/>
        <pt x="274" y="164" on="1"/>
        <pt x="973" y="164" on="1"/>
        <pt x="948" y="0" on="1"/>
      </contour>
    </TTGlyph>
    <TTGlyph name="Ebreve" xMin="70" yMin="0" xMax="1135" yMax="1808">
      <contour>
        <pt x="979" y="1808" on="1"/>
        <pt x="974" y="1773" on="0"/>
        <pt x="931" y="1703" on="0"/>
        <pt x="861" y="1646" on="0"/>
        <pt x="766" y="1610" on="0"/>
        <pt x="709" y="1610" on="1"/>
        <pt x="652" y="1610" on="0"/>
        <pt x="563" y="1641" on="0"/>
        <pt x="503" y="1692" on="0"/>
        <pt x="471" y="1757" on="0"/>
        <pt x="471" y="1790" on="1"/>
        <pt x="471" y="1795" on="0"/>
        <pt x="471" y="1803" on="0"/>
        <pt x="473" y="1808" on="1"/>
        <pt x="604" y="1808" on="1"/>
        <pt x="605" y="1797" on="0"/>
        <pt x="621" y="1774" on="0"/>
        <pt x="650" y="1754" on="0"/>
        <pt x="691" y="1741" on="0"/>
        <pt x="717" y="1741" on="1"/>
        <pt x="743" y="1741" on="0"/>
        <pt x="788" y="1754" on="0"/>
        <pt x="823" y="1774" on="0"/>
        <pt x="845" y="1797" on="0"/>
        <pt x="848" y="1808" on="1"/>
      </contour>
      <contour>
        <pt x="70" y="0" on="1"/>
        <pt x="268" y="1405" on="1"/>
        <pt x="1135" y="1405" on="1"/>
        <pt x="1110" y="1241" on="1"/>
        <pt x="424" y="1241" on="1"/>
        <pt x="362" y="801" on="1"/>
        <pt x="958" y="801" on="1"/>
        <pt x="936" y="637" on="1"/>
        <pt x="340" y="637" on="1"/>
        <pt x="274" y="164" on="1"/>
        <pt x="973" y="164" on="1"/>
        <pt x="948" y="0" on="1"/>
      </contour>
    </TTGlyph>
    <TTGlyph name="Ecaron" xMin="70" yMin="0" xMax="1135" yMax="1808">
      <contour>
        <pt x="762" y="1532" on="1"/>
        <pt x="602" y="1532" on="1"/>
        <pt x="469" y="1808" on="1"/>
        <pt x="631" y="1808" on="1"/>
        <pt x="698" y="1647" on="1"/>
        <pt x="807" y="1808" on="1"/>
        <pt x="977" y="1808" on="1"/>
      </contour>
      <contour>
        <pt x="70" y="0" on="1"/>
        <pt x="268" y="1405" on="1"/>
        <pt x="1135" y="1405" on="1"/>
        <pt x="1110" y="1241" on="1"/>
        <pt x="424" y="1241" on="1"/>
        <pt x="362" y="801" on="1"/>
        <pt x="958" y="801" on="1"/>
        <pt x="936" y="637" on="1"/>
        <pt x="340" y="637" on="1"/>
        <pt x="274" y="164" on="1"/>
        <pt x="973" y="164" on="1"/>
        <pt x="948" y="0" on="1"/>
      </contour>
    </TTGlyph>
    <TTGlyph name="Ecircumflex" xMin="70" yMin="0" xMax="1135" yMax="1808">
      <contour>
        <pt x="934" y="1532" on="1"/>
        <pt x="776" y="1532" on="1"/>
        <pt x="709" y="1694" on="1"/>
        <pt x="594" y="1532" on="1"/>
        <pt x="424" y="1532" on="1"/>
        <pt x="639" y="1808" on="1"/>
        <pt x="799" y="1808" on="1"/>
      </contour>
      <contour>
        <pt x="70" y="0" on="1"/>
        <pt x="268" y="1405" on="1"/>
        <pt x="1135" y="1405" on="1"/>
        <pt x="1110" y="1241" on="1"/>
        <pt x="424" y="1241" on="1"/>
        <pt x="362" y="801" on="1"/>
        <pt x="958" y="801" on="1"/>
        <pt x="936" y="637" on="1"/>
        <pt x="340" y="637" on="1"/>
        <pt x="274" y="164" on="1"/>
        <pt x="973" y="164" on="1"/>
        <pt x="948" y="0" on="1"/>
      </contour>
    </TTGlyph>
    <TTGlyph name="Edieresis" xMin="70" yMin="0" xMax="1135" yMax="1808">
      <contour>
        <pt x="944" y="1614" on="1"/>
        <pt x="766" y="1614" on="1"/>
        <pt x="793" y="1808" on="1"/>
        <pt x="971" y="1808" on="1"/>
      </contour>
      <contour>
        <pt x="637" y="1614" on="1"/>
        <pt x="459" y="1614" on="1"/>
        <pt x="485" y="1808" on="1"/>
        <pt x="664" y="1808" on="1"/>
      </contour>
      <contour>
        <pt x="70" y="0" on="1"/>
        <pt x="268" y="1405" on="1"/>
        <pt x="1135" y="1405" on="1"/>
        <pt x="1110" y="1241" on="1"/>
        <pt x="424" y="1241" on="1"/>
        <pt x="362" y="801" on="1"/>
        <pt x="958" y="801" on="1"/>
        <pt x="936" y="637" on="1"/>
        <pt x="340" y="637" on="1"/>
        <pt x="274" y="164" on="1"/>
        <pt x="973" y="164" on="1"/>
        <pt x="948" y="0" on="1"/>
      </contour>
    </TTGlyph>
    <TTGlyph name="Edotaccent" xMin="70" yMin="0" xMax="1135" yMax="1808">
      <contour>
        <pt x="788" y="1614" on="1"/>
        <pt x="610" y="1614" on="1"/>
        <pt x="637" y="1808" on="1"/>
        <pt x="815" y="1808" on="1"/>
      </contour>
      <contour>
        <pt x="70" y="0" on="1"/>
        <pt x="268" y="1405" on="1"/>
        <pt x="1135" y="1405" on="1"/>
        <pt x="1110" y="1241" on="1"/>
        <pt x="424" y="1241" on="1"/>
        <pt x="362" y="801" on="1"/>
        <pt x="958" y="801" on="1"/>
        <pt x="936" y="637" on="1"/>
        <pt x="340" y="637" on="1"/>
        <pt x="274" y="164" on="1"/>
        <pt x="973" y="164" on="1"/>
        <pt x="948" y="0" on="1"/>
      </contour>
    </TTGlyph>
    <TTGlyph name="Egrave" xMin="70" yMin="0" xMax="1135" yMax="1808">
      <contour>
        <pt x="811" y="1538" on="1"/>
        <pt x="668" y="1538" on="1"/>
        <pt x="483" y="1802" on="1"/>
        <pt x="487" y="1808" on="1"/>
        <pt x="672" y="1808" on="1"/>
      </contour>
      <contour>
        <pt x="70" y="0" on="1"/>
        <pt x="268" y="1405" on="1"/>
        <pt x="1135" y="1405" on="1"/>
        <pt x="1110" y="1241" on="1"/>
        <pt x="424" y="1241" on="1"/>
        <pt x="362" y="801" on="1"/>
        <pt x="958" y="801" on="1"/>
        <pt x="936" y="637" on="1"/>
        <pt x="340" y="637" on="1"/>
        <pt x="274" y="164" on="1"/>
        <pt x="973" y="164" on="1"/>
        <pt x="948" y="0" on="1"/>
      </contour>
    </TTGlyph>
    <TTGlyph name="Emacron" xMin="70" yMin="0" xMax="1135" yMax="1702">
      <contour>
        <pt x="938" y="1554" on="1"/>
        <pt x="426" y="1554" on="1"/>
        <pt x="449" y="1702" on="1"/>
        <pt x="961" y="1702" on="1"/>
      </contour>
      <contour>
        <pt x="70" y="0" on="1"/>
        <pt x="268" y="1405" on="1"/>
        <pt x="1135" y="1405" on="1"/>
        <pt x="1110" y="1241" on="1"/>
        <pt x="424" y="1241" on="1"/>
        <pt x="362" y="801" on="1"/>
        <pt x="958" y="801" on="1"/>
        <pt x="936" y="637" on="1"/>
        <pt x="340" y="637" on="1"/>
        <pt x="274" y="164" on="1"/>
        <pt x="973" y="164" on="1"/>
        <pt x="948" y="0" on="1"/>
      </contour>
    </TTGlyph>
    <TTGlyph name="Eng" xMin="68" yMin="-373" xMax="1192" yMax="1405">
      <contour>
        <pt x="977" y="-125" on="1"/>
        <pt x="970" y="-171" on="0"/>
        <pt x="937" y="-260" on="0"/>
        <pt x="878" y="-330" on="0"/>
        <pt x="792" y="-373" on="0"/>
        <pt x="731" y="-373" on="1"/>
        <pt x="694" y="-373" on="0"/>
        <pt x="619" y="-357" on="0"/>
        <pt x="594" y="-348" on="1"/>
        <pt x="610" y="-231" on="1"/>
        <pt x="700" y="-231" on="1"/>
        <pt x="795" y="-231" on="0"/>
        <pt x="807" y="-133" on="1"/>
        <pt x="831" y="43" on="1"/>
        <pt x="449" y="895" on="1"/>
        <pt x="438" y="917" on="0"/>
        <pt x="416" y="981" on="0"/>
        <pt x="405" y="1011" on="1"/>
        <pt x="393" y="1046" on="0"/>
        <pt x="381" y="1083" on="1"/>
        <pt x="375" y="1081" on="1"/>
        <pt x="373" y="1043" on="0"/>
        <pt x="369" y="1009" on="1"/>
        <pt x="366" y="980" on="0"/>
        <pt x="359" y="916" on="0"/>
        <pt x="356" y="895" on="1"/>
        <pt x="229" y="0" on="1"/>
        <pt x="68" y="0" on="1"/>
        <pt x="266" y="1405" on="1"/>
        <pt x="414" y="1405" on="1"/>
        <pt x="813" y="522" on="1"/>
        <pt x="821" y="502" on="0"/>
        <pt x="844" y="438" on="0"/>
        <pt x="855" y="408" on="1"/>
        <pt x="867" y="373" on="0"/>
        <pt x="879" y="334" on="1"/>
        <pt x="885" y="336" on="1"/>
        <pt x="889" y="376" on="0"/>
        <pt x="893" y="412" on="1"/>
        <pt x="896" y="443" on="0"/>
        <pt x="903" y="505" on="0"/>
        <pt x="905" y="522" on="1"/>
        <pt x="1030" y="1405" on="1"/>
        <pt x="1192" y="1405" on="1"/>
      </contour>
    </TTGlyph>
    <TTGlyph name="Eogonek" xMin="70" yMin="-389" xMax="1135" yMax="1405">
      <contour>
        <pt x="362" y="801" on="1"/>
        <pt x="958" y="801" on="1"/>
        <pt x="936" y="637" on="1"/>
        <pt x="340" y="637" on="1"/>
        <pt x="274" y="164" on="1"/>
        <pt x="973" y="164" on="1"/>
        <pt x="948" y="0" on="1"/>
        <pt x="935" y="-13" on="0"/>
        <pt x="905" y="-50" on="0"/>
        <pt x="880" y="-95" on="0"/>
        <pt x="864" y="-145" on="0"/>
        <pt x="864" y="-170" on="1"/>
        <pt x="864" y="-205" on="0"/>
        <pt x="899" y="-256" on="0"/>
        <pt x="942" y="-256" on="1"/>
        <pt x="1008" y="-256" on="1"/>
        <pt x="993" y="-360" on="1"/>
        <pt x="924" y="-389" on="0"/>
        <pt x="864" y="-389" on="1"/>
        <pt x="832" y="-389" on="0"/>
        <pt x="772" y="-374" on="0"/>
        <pt x="725" y="-336" on="0"/>
        <pt x="696" y="-274" on="0"/>
        <pt x="696" y="-227" on="1"/>
        <pt x="696" y="-187" on="0"/>
        <pt x="717" y="-121" on="0"/>
        <pt x="750" y="-66" on="0"/>
        <pt x="793" y="-20" on="0"/>
        <pt x="815" y="0" on="1"/>
        <pt x="70" y="0" on="1"/>
        <pt x="268" y="1405" on="1"/>
        <pt x="1135" y="1405" on="1"/>
        <pt x="1110" y="1241" on="1"/>
        <pt x="424" y="1241" on="1"/>
      </contour>
    </TTGlyph>
    <TTGlyph name="Eth" xMin="29" yMin="0" xMax="1153" yMax="1405">
      <contour>
        <pt x="70" y="0" on="1"/>
        <pt x="162" y="662" on="1"/>
        <pt x="29" y="662" on="1"/>
        <pt x="47" y="793" on="1"/>
        <pt x="180" y="793" on="1"/>
        <pt x="268" y="1405" on="1"/>
        <pt x="684" y="1405" on="1"/>
        <pt x="795" y="1405" on="0"/>
        <pt x="970" y="1339" on="0"/>
        <pt x="1090" y="1207" on="0"/>
        <pt x="1153" y="1010" on="0"/>
        <pt x="1153" y="879" on="1"/>
        <pt x="1153" y="788" on="0"/>
        <pt x="1125" y="587" on="0"/>
        <pt x="1064" y="391" on="0"/>
        <pt x="968" y="214" on="0"/>
        <pt x="832" y="80" on="0"/>
        <pt x="655" y="0" on="0"/>
        <pt x="543" y="0" on="1"/>
      </contour>
      <contour>
        <pt x="424" y="1241" on="1"/>
        <pt x="360" y="793" on="1"/>
        <pt x="682" y="793" on="1"/>
        <pt x="664" y="662" on="1"/>
        <pt x="342" y="662" on="1"/>
        <pt x="274" y="164" on="1"/>
        <pt x="522" y="164" on="1"/>
        <pt x="610" y="164" on="0"/>
        <pt x="744" y="230" on="0"/>
        <pt x="843" y="340" on="0"/>
        <pt x="910" y="485" on="0"/>
        <pt x="950" y="644" on="0"/>
        <pt x="967" y="805" on="0"/>
        <pt x="967" y="877" on="1"/>
        <pt x="967" y="969" on="0"/>
        <pt x="926" y="1106" on="0"/>
        <pt x="848" y="1196" on="0"/>
        <pt x="735" y="1241" on="0"/>
        <pt x="664" y="1241" on="1"/>
      </contour>
    </TTGlyph>
    <TTGlyph name="Euro" xMin="8" yMin="-25" xMax="973" yMax="1430">
      <contour>
        <pt x="838" y="1430" on="1"/>
        <pt x="908" y="1430" on="0"/>
        <pt x="973" y="1409" on="1"/>
        <pt x="952" y="1264" on="1"/>
        <pt x="926" y="1272" on="0"/>
        <pt x="871" y="1280" on="0"/>
        <pt x="842" y="1280" on="1"/>
        <pt x="679" y="1280" on="0"/>
        <pt x="440" y="1099" on="0"/>
        <pt x="371" y="907" on="1"/>
        <pt x="784" y="907" on="1"/>
        <pt x="764" y="774" on="1"/>
        <pt x="332" y="774" on="1"/>
        <pt x="329" y="756" on="0"/>
        <pt x="324" y="721" on="0"/>
        <pt x="322" y="702" on="1"/>
        <pt x="318" y="684" on="0"/>
        <pt x="313" y="648" on="0"/>
        <pt x="313" y="631" on="1"/>
        <pt x="745" y="631" on="1"/>
        <pt x="725" y="498" on="1"/>
        <pt x="311" y="498" on="1"/>
        <pt x="328" y="306" on="0"/>
        <pt x="519" y="125" on="0"/>
        <pt x="680" y="125" on="1"/>
        <pt x="709" y="125" on="0"/>
        <pt x="766" y="133" on="0"/>
        <pt x="795" y="141" on="1"/>
        <pt x="774" y="-4" on="1"/>
        <pt x="739" y="-13" on="0"/>
        <pt x="670" y="-25" on="0"/>
        <pt x="635" y="-25" on="1"/>
        <pt x="519" y="-25" on="0"/>
        <pt x="338" y="44" on="0"/>
        <pt x="212" y="178" on="0"/>
        <pt x="142" y="373" on="0"/>
        <pt x="137" y="498" on="1"/>
        <pt x="8" y="498" on="1"/>
        <pt x="29" y="631" on="1"/>
        <pt x="143" y="631" on="1"/>
        <pt x="143" y="648" on="0"/>
        <pt x="148" y="684" on="0"/>
        <pt x="152" y="702" on="1"/>
        <pt x="154" y="721" on="0"/>
        <pt x="159" y="756" on="0"/>
        <pt x="162" y="774" on="1"/>
        <pt x="47" y="774" on="1"/>
        <pt x="68" y="907" on="1"/>
        <pt x="197" y="907" on="1"/>
        <pt x="235" y="1032" on="0"/>
        <pt x="349" y="1227" on="0"/>
        <pt x="507" y="1360" on="0"/>
        <pt x="710" y="1430" on="0"/>
      </contour>
    </TTGlyph>
    <TTGlyph name="F" xMin="70" yMin="0" xMax="1079" yMax="1405">
      <contour>
        <pt x="70" y="0" on="1"/>
        <pt x="268" y="1405" on="1"/>
        <pt x="1079" y="1405" on="1"/>
        <pt x="1055" y="1241" on="1"/>
        <pt x="424" y="1241" on="1"/>
        <pt x="360" y="786" on="1"/>
        <pt x="918" y="786" on="1"/>
        <pt x="895" y="623" on="1"/>
        <pt x="338" y="623" on="1"/>
        <pt x="250" y="0" on="1"/>
      </contour>
    </TTGlyph>
    <TTGlyph name="G" xMin="102" yMin="-25" xMax="1221" yMax="1430">
      <contour>
        <pt x="956" y="156" on="1"/>
        <pt x="891" y="72" on="0"/>
        <pt x="708" y="-25" on="0"/>
        <pt x="584" y="-25" on="1"/>
        <pt x="474" y="-25" on="0"/>
        <pt x="296" y="37" on="0"/>
        <pt x="170" y="164" on="0"/>
        <pt x="102" y="360" on="0"/>
        <pt x="102" y="494" on="1"/>
        <pt x="102" y="586" on="0"/>
        <pt x="128" y="796" on="0"/>
        <pt x="187" y="1004" on="0"/>
        <pt x="284" y="1196" on="0"/>
        <pt x="427" y="1342" on="0"/>
        <pt x="620" y="1430" on="0"/>
        <pt x="745" y="1430" on="1"/>
        <pt x="980" y="1430" on="0"/>
        <pt x="1221" y="1182" on="0"/>
        <pt x="1221" y="926" on="1"/>
        <pt x="1034" y="926" on="1"/>
        <pt x="1034" y="940" on="1"/>
        <pt x="1034" y="1101" on="0"/>
        <pt x="893" y="1264" on="0"/>
        <pt x="743" y="1264" on="1"/>
        <pt x="667" y="1264" on="0"/>
        <pt x="548" y="1214" on="0"/>
        <pt x="456" y="1128" on="0"/>
        <pt x="388" y="1015" on="0"/>
        <pt x="340" y="890" on="0"/>
        <pt x="310" y="759" on="0"/>
        <pt x="293" y="640" on="0"/>
        <pt x="287" y="538" on="0"/>
        <pt x="287" y="504" on="1"/>
        <pt x="287" y="330" on="0"/>
        <pt x="440" y="143" on="0"/>
        <pt x="600" y="143" on="1"/>
        <pt x="685" y="143" on="0"/>
        <pt x="816" y="200" on="0"/>
        <pt x="910" y="297" on="0"/>
        <pt x="967" y="425" on="0"/>
        <pt x="979" y="496" on="1"/>
        <pt x="991" y="573" on="1"/>
        <pt x="623" y="573" on="1"/>
        <pt x="645" y="731" on="1"/>
        <pt x="1196" y="731" on="1"/>
        <pt x="1092" y="0" on="1"/>
        <pt x="973" y="0" on="1"/>
      </contour>
    </TTGlyph>
    <TTGlyph name="Gbreve" xMin="102" yMin="-25" xMax="1221" yMax="1808">
      <contour>
        <pt x="1067" y="1808" on="1"/>
        <pt x="1062" y="1773" on="0"/>
        <pt x="1019" y="1703" on="0"/>
        <pt x="949" y="1646" on="0"/>
        <pt x="854" y="1610" on="0"/>
        <pt x="797" y="1610" on="1"/>
        <pt x="740" y="1610" on="0"/>
        <pt x="651" y="1641" on="0"/>
        <pt x="591" y="1692" on="0"/>
        <pt x="559" y="1757" on="0"/>
        <pt x="559" y="1790" on="1"/>
        <pt x="559" y="1795" on="0"/>
        <pt x="559" y="1803" on="0"/>
        <pt x="561" y="1808" on="1"/>
        <pt x="692" y="1808" on="1"/>
        <pt x="693" y="1797" on="0"/>
        <pt x="709" y="1774" on="0"/>
        <pt x="738" y="1754" on="0"/>
        <pt x="779" y="1741" on="0"/>
        <pt x="805" y="1741" on="1"/>
        <pt x="831" y="1741" on="0"/>
        <pt x="876" y="1754" on="0"/>
        <pt x="911" y="1774" on="0"/>
        <pt x="933" y="1797" on="0"/>
        <pt x="936" y="1808" on="1"/>
      </contour>
      <contour>
        <pt x="956" y="156" on="1"/>
        <pt x="891" y="72" on="0"/>
        <pt x="708" y="-25" on="0"/>
        <pt x="584" y="-25" on="1"/>
        <pt x="474" y="-25" on="0"/>
        <pt x="296" y="37" on="0"/>
        <pt x="170" y="164" on="0"/>
        <pt x="102" y="360" on="0"/>
        <pt x="102" y="494" on="1"/>
        <pt x="102" y="586" on="0"/>
        <pt x="128" y="796" on="0"/>
        <pt x="187" y="1004" on="0"/>
        <pt x="284" y="1196" on="0"/>
        <pt x="427" y="1342" on="0"/>
        <pt x="620" y="1430" on="0"/>
        <pt x="745" y="1430" on="1"/>
        <pt x="980" y="1430" on="0"/>
        <pt x="1221" y="1182" on="0"/>
        <pt x="1221" y="926" on="1"/>
        <pt x="1034" y="926" on="1"/>
        <pt x="1034" y="940" on="1"/>
        <pt x="1034" y="1101" on="0"/>
        <pt x="893" y="1264" on="0"/>
        <pt x="743" y="1264" on="1"/>
        <pt x="667" y="1264" on="0"/>
        <pt x="548" y="1214" on="0"/>
        <pt x="456" y="1128" on="0"/>
        <pt x="388" y="1015" on="0"/>
        <pt x="340" y="890" on="0"/>
        <pt x="310" y="759" on="0"/>
        <pt x="293" y="640" on="0"/>
        <pt x="287" y="538" on="0"/>
        <pt x="287" y="504" on="1"/>
        <pt x="287" y="330" on="0"/>
        <pt x="440" y="143" on="0"/>
        <pt x="600" y="143" on="1"/>
        <pt x="685" y="143" on="0"/>
        <pt x="816" y="200" on="0"/>
        <pt x="910" y="297" on="0"/>
        <pt x="967" y="425" on="0"/>
        <pt x="979" y="496" on="1"/>
        <pt x="991" y="573" on="1"/>
        <pt x="623" y="573" on="1"/>
        <pt x="645" y="731" on="1"/>
        <pt x="1196" y="731" on="1"/>
        <pt x="1092" y="0" on="1"/>
        <pt x="973" y="0" on="1"/>
      </contour>
    </TTGlyph>
    <TTGlyph name="Gcircumflex" xMin="102" yMin="-25" xMax="1221" yMax="1808">
      <contour>
        <pt x="1022" y="1532" on="1"/>
        <pt x="864" y="1532" on="1"/>
        <pt x="797" y="1694" on="1"/>
        <pt x="682" y="1532" on="1"/>
        <pt x="512" y="1532" on="1"/>
        <pt x="727" y="1808" on="1"/>
        <pt x="887" y="1808" on="1"/>
      </contour>
      <contour>
        <pt x="956" y="156" on="1"/>
        <pt x="891" y="72" on="0"/>
        <pt x="708" y="-25" on="0"/>
        <pt x="584" y="-25" on="1"/>
        <pt x="474" y="-25" on="0"/>
        <pt x="296" y="37" on="0"/>
        <pt x="170" y="164" on="0"/>
        <pt x="102" y="360" on="0"/>
        <pt x="102" y="494" on="1"/>
        <pt x="102" y="586" on="0"/>
        <pt x="128" y="796" on="0"/>
        <pt x="187" y="1004" on="0"/>
        <pt x="284" y="1196" on="0"/>
        <pt x="427" y="1342" on="0"/>
        <pt x="620" y="1430" on="0"/>
        <pt x="745" y="1430" on="1"/>
        <pt x="980" y="1430" on="0"/>
        <pt x="1221" y="1182" on="0"/>
        <pt x="1221" y="926" on="1"/>
        <pt x="1034" y="926" on="1"/>
        <pt x="1034" y="940" on="1"/>
        <pt x="1034" y="1101" on="0"/>
        <pt x="893" y="1264" on="0"/>
        <pt x="743" y="1264" on="1"/>
        <pt x="667" y="1264" on="0"/>
        <pt x="548" y="1214" on="0"/>
        <pt x="456" y="1128" on="0"/>
        <pt x="388" y="1015" on="0"/>
        <pt x="340" y="890" on="0"/>
        <pt x="310" y="759" on="0"/>
        <pt x="293" y="640" on="0"/>
        <pt x="287" y="538" on="0"/>
        <pt x="287" y="504" on="1"/>
        <pt x="287" y="330" on="0"/>
        <pt x="440" y="143" on="0"/>
        <pt x="600" y="143" on="1"/>
        <pt x="685" y="143" on="0"/>
        <pt x="816" y="200" on="0"/>
        <pt x="910" y="297" on="0"/>
        <pt x="967" y="425" on="0"/>
        <pt x="979" y="496" on="1"/>
        <pt x="991" y="573" on="1"/>
        <pt x="623" y="573" on="1"/>
        <pt x="645" y="731" on="1"/>
        <pt x="1196" y="731" on="1"/>
        <pt x="1092" y="0" on="1"/>
        <pt x="973" y="0" on="1"/>
      </contour>
    </TTGlyph>
    <TTGlyph name="Gcommaaccent" xMin="102" yMin="-451" xMax="1221" yMax="1430">
      <contour>
        <pt x="653" y="-295" on="1"/>
        <pt x="582" y="-451" on="1"/>
        <pt x="483" y="-451" on="1"/>
        <pt x="549" y="-309" on="1"/>
        <pt x="477" y="-309" on="1"/>
        <pt x="506" y="-123" on="1"/>
        <pt x="680" y="-123" on="1"/>
      </contour>
      <contour>
        <pt x="956" y="156" on="1"/>
        <pt x="891" y="72" on="0"/>
        <pt x="708" y="-25" on="0"/>
        <pt x="584" y="-25" on="1"/>
        <pt x="474" y="-25" on="0"/>
        <pt x="296" y="37" on="0"/>
        <pt x="170" y="164" on="0"/>
        <pt x="102" y="360" on="0"/>
        <pt x="102" y="494" on="1"/>
        <pt x="102" y="586" on="0"/>
        <pt x="128" y="796" on="0"/>
        <pt x="187" y="1004" on="0"/>
        <pt x="284" y="1196" on="0"/>
        <pt x="427" y="1342" on="0"/>
        <pt x="620" y="1430" on="0"/>
        <pt x="745" y="1430" on="1"/>
        <pt x="980" y="1430" on="0"/>
        <pt x="1221" y="1182" on="0"/>
        <pt x="1221" y="926" on="1"/>
        <pt x="1034" y="926" on="1"/>
        <pt x="1034" y="940" on="1"/>
        <pt x="1034" y="1101" on="0"/>
        <pt x="893" y="1264" on="0"/>
        <pt x="743" y="1264" on="1"/>
        <pt x="667" y="1264" on="0"/>
        <pt x="548" y="1214" on="0"/>
        <pt x="456" y="1128" on="0"/>
        <pt x="388" y="1015" on="0"/>
        <pt x="340" y="890" on="0"/>
        <pt x="310" y="759" on="0"/>
        <pt x="293" y="640" on="0"/>
        <pt x="287" y="538" on="0"/>
        <pt x="287" y="504" on="1"/>
        <pt x="287" y="330" on="0"/>
        <pt x="440" y="143" on="0"/>
        <pt x="600" y="143" on="1"/>
        <pt x="685" y="143" on="0"/>
        <pt x="816" y="200" on="0"/>
        <pt x="910" y="297" on="0"/>
        <pt x="967" y="425" on="0"/>
        <pt x="979" y="496" on="1"/>
        <pt x="991" y="573" on="1"/>
        <pt x="623" y="573" on="1"/>
        <pt x="645" y="731" on="1"/>
        <pt x="1196" y="731" on="1"/>
        <pt x="1092" y="0" on="1"/>
        <pt x="973" y="0" on="1"/>
      </contour>
    </TTGlyph>
    <TTGlyph name="Gdotaccent" xMin="102" yMin="-25" xMax="1221" yMax="1808">
      <contour>
        <pt x="877" y="1614" on="1"/>
        <pt x="698" y="1614" on="1"/>
        <pt x="725" y="1808" on="1"/>
        <pt x="903" y="1808" on="1"/>
      </contour>
      <contour>
        <pt x="956" y="156" on="1"/>
        <pt x="891" y="72" on="0"/>
        <pt x="708" y="-25" on="0"/>
        <pt x="584" y="-25" on="1"/>
        <pt x="474" y="-25" on="0"/>
        <pt x="296" y="37" on="0"/>
        <pt x="170" y="164" on="0"/>
        <pt x="102" y="360" on="0"/>
        <pt x="102" y="494" on="1"/>
        <pt x="102" y="586" on="0"/>
        <pt x="128" y="796" on="0"/>
        <pt x="187" y="1004" on="0"/>
        <pt x="284" y="1196" on="0"/>
        <pt x="427" y="1342" on="0"/>
        <pt x="620" y="1430" on="0"/>
        <pt x="745" y="1430" on="1"/>
        <pt x="980" y="1430" on="0"/>
        <pt x="1221" y="1182" on="0"/>
        <pt x="1221" y="926" on="1"/>
        <pt x="1034" y="926" on="1"/>
        <pt x="1034" y="940" on="1"/>
        <pt x="1034" y="1101" on="0"/>
        <pt x="893" y="1264" on="0"/>
        <pt x="743" y="1264" on="1"/>
        <pt x="667" y="1264" on="0"/>
        <pt x="548" y="1214" on="0"/>
        <pt x="456" y="1128" on="0"/>
        <pt x="388" y="1015" on="0"/>
        <pt x="340" y="890" on="0"/>
        <pt x="310" y="759" on="0"/>
        <pt x="293" y="640" on="0"/>
        <pt x="287" y="538" on="0"/>
        <pt x="287" y="504" on="1"/>
        <pt x="287" y="330" on="0"/>
        <pt x="440" y="143" on="0"/>
        <pt x="600" y="143" on="1"/>
        <pt x="685" y="143" on="0"/>
        <pt x="816" y="200" on="0"/>
        <pt x="910" y="297" on="0"/>
        <pt x="967" y="425" on="0"/>
        <pt x="979" y="496" on="1"/>
        <pt x="991" y="573" on="1"/>
        <pt x="623" y="573" on="1"/>
        <pt x="645" y="731" on="1"/>
        <pt x="1196" y="731" on="1"/>
        <pt x="1092" y="0" on="1"/>
        <pt x="973" y="0" on="1"/>
      </contour>
    </TTGlyph>
    <TTGlyph name="H" xMin="70" yMin="0" xMax="1194" yMax="1405">
      <contour>
        <pt x="995" y="0" on="1"/>
        <pt x="815" y="0" on="1"/>
        <pt x="905" y="637" on="1"/>
        <pt x="340" y="637" on="1"/>
        <pt x="250" y="0" on="1"/>
        <pt x="70" y="0" on="1"/>
        <pt x="268" y="1405" on="1"/>
        <pt x="449" y="1405" on="1"/>
        <pt x="362" y="801" on="1"/>
        <pt x="928" y="801" on="1"/>
        <pt x="1014" y="1405" on="1"/>
        <pt x="1194" y="1405" on="1"/>
      </contour>
    </TTGlyph>
    <TTGlyph name="Hbar" xMin="70" yMin="0" xMax="1268" yMax="1405">
      <contour>
        <pt x="1137" y="1004" on="1"/>
        <pt x="995" y="0" on="1"/>
        <pt x="815" y="0" on="1"/>
        <pt x="903" y="627" on="1"/>
        <pt x="340" y="627" on="1"/>
        <pt x="250" y="0" on="1"/>
        <pt x="70" y="0" on="1"/>
        <pt x="211" y="1004" on="1"/>
        <pt x="94" y="1004" on="1"/>
        <pt x="117" y="1151" on="1"/>
        <pt x="231" y="1151" on="1"/>
        <pt x="268" y="1405" on="1"/>
        <pt x="449" y="1405" on="1"/>
        <pt x="414" y="1151" on="1"/>
        <pt x="979" y="1151" on="1"/>
        <pt x="1014" y="1405" on="1"/>
        <pt x="1194" y="1405" on="1"/>
        <pt x="1157" y="1151" on="1"/>
        <pt x="1268" y="1151" on="1"/>
        <pt x="1245" y="1004" on="1"/>
      </contour>
      <contour>
        <pt x="393" y="1004" on="1"/>
        <pt x="365" y="791" on="1"/>
        <pt x="930" y="791" on="1"/>
        <pt x="958" y="1004" on="1"/>
      </contour>
    </TTGlyph>
    <TTGlyph name="Hcircumflex" xMin="70" yMin="0" xMax="1194" yMax="1808">
      <contour>
        <pt x="993" y="1532" on="1"/>
        <pt x="836" y="1532" on="1"/>
        <pt x="768" y="1694" on="1"/>
        <pt x="653" y="1532" on="1"/>
        <pt x="483" y="1532" on="1"/>
        <pt x="698" y="1808" on="1"/>
        <pt x="858" y="1808" on="1"/>
      </contour>
      <contour>
        <pt x="995" y="0" on="1"/>
        <pt x="815" y="0" on="1"/>
        <pt x="905" y="637" on="1"/>
        <pt x="340" y="637" on="1"/>
        <pt x="250" y="0" on="1"/>
        <pt x="70" y="0" on="1"/>
        <pt x="268" y="1405" on="1"/>
        <pt x="449" y="1405" on="1"/>
        <pt x="362" y="801" on="1"/>
        <pt x="928" y="801" on="1"/>
        <pt x="1014" y="1405" on="1"/>
        <pt x="1194" y="1405" on="1"/>
      </contour>
    </TTGlyph>
    <TTGlyph name="I" xMin="70" yMin="0" xMax="449" yMax="1405">
      <contour>
        <pt x="250" y="0" on="1"/>
        <pt x="70" y="0" on="1"/>
        <pt x="268" y="1405" on="1"/>
        <pt x="449" y="1405" on="1"/>
      </contour>
    </TTGlyph>
    <TTGlyph name="IJ" xMin="70" yMin="-25" xMax="1301" yMax="1405">
      <contour>
        <pt x="250" y="0" on="1"/>
        <pt x="70" y="0" on="1"/>
        <pt x="268" y="1405" on="1"/>
        <pt x="449" y="1405" on="1"/>
      </contour>
      <contour>
        <pt x="1149" y="334" on="1"/>
        <pt x="1124" y="157" on="0"/>
        <pt x="933" y="-25" on="0"/>
        <pt x="778" y="-25" on="1"/>
        <pt x="627" y="-25" on="0"/>
        <pt x="465" y="117" on="0"/>
        <pt x="465" y="254" on="1"/>
        <pt x="465" y="263" on="0"/>
        <pt x="466" y="285" on="0"/>
        <pt x="470" y="323" on="0"/>
        <pt x="477" y="381" on="0"/>
        <pt x="483" y="426" on="1"/>
        <pt x="662" y="426" on="1"/>
        <pt x="656" y="382" on="0"/>
        <pt x="648" y="330" on="0"/>
        <pt x="644" y="300" on="0"/>
        <pt x="643" y="286" on="0"/>
        <pt x="643" y="281" on="1"/>
        <pt x="643" y="211" on="0"/>
        <pt x="714" y="141" on="0"/>
        <pt x="782" y="141" on="1"/>
        <pt x="860" y="141" on="0"/>
        <pt x="954" y="234" on="0"/>
        <pt x="967" y="324" on="1"/>
        <pt x="1120" y="1405" on="1"/>
        <pt x="1301" y="1405" on="1"/>
      </contour>
    </TTGlyph>
    <TTGlyph name="Iacute" xMin="70" yMin="0" xMax="634" yMax="1809">
      <contour>
        <pt x="250" y="0" on="1"/>
        <pt x="70" y="0" on="1"/>
        <pt x="268" y="1405" on="1"/>
        <pt x="449" y="1405" on="1"/>
      </contour>
      <contour>
        <pt x="634" y="1803" on="1"/>
        <pt x="413" y="1538" on="1"/>
        <pt x="271" y="1538" on="1"/>
        <pt x="447" y="1809" on="1"/>
        <pt x="632" y="1809" on="1"/>
      </contour>
    </TTGlyph>
    <TTGlyph name="Ibreve" xMin="70" yMin="0" xMax="670" yMax="1809">
      <contour>
        <pt x="250" y="0" on="1"/>
        <pt x="70" y="0" on="1"/>
        <pt x="268" y="1405" on="1"/>
        <pt x="449" y="1405" on="1"/>
      </contour>
      <contour>
        <pt x="670" y="1809" on="1"/>
        <pt x="665" y="1774" on="0"/>
        <pt x="622" y="1704" on="0"/>
        <pt x="551" y="1646" on="0"/>
        <pt x="456" y="1610" on="0"/>
        <pt x="399" y="1610" on="1"/>
        <pt x="342" y="1610" on="0"/>
        <pt x="254" y="1641" on="0"/>
        <pt x="194" y="1692" on="0"/>
        <pt x="162" y="1757" on="0"/>
        <pt x="162" y="1790" on="1"/>
        <pt x="162" y="1799" on="1"/>
        <pt x="162" y="1804" on="0"/>
        <pt x="164" y="1809" on="1"/>
        <pt x="295" y="1809" on="1"/>
        <pt x="296" y="1798" on="0"/>
        <pt x="312" y="1774" on="0"/>
        <pt x="341" y="1754" on="0"/>
        <pt x="382" y="1741" on="0"/>
        <pt x="408" y="1741" on="1"/>
        <pt x="434" y="1741" on="0"/>
        <pt x="479" y="1754" on="0"/>
        <pt x="513" y="1774" on="0"/>
        <pt x="536" y="1798" on="0"/>
        <pt x="539" y="1809" on="1"/>
      </contour>
    </TTGlyph>
    <TTGlyph name="Icircumflex" xMin="70" yMin="0" xMax="625" yMax="1809">
      <contour>
        <pt x="250" y="0" on="1"/>
        <pt x="70" y="0" on="1"/>
        <pt x="268" y="1405" on="1"/>
        <pt x="449" y="1405" on="1"/>
      </contour>
      <contour>
        <pt x="625" y="1532" on="1"/>
        <pt x="467" y="1532" on="1"/>
        <pt x="400" y="1694" on="1"/>
        <pt x="285" y="1532" on="1"/>
        <pt x="115" y="1532" on="1"/>
        <pt x="330" y="1809" on="1"/>
        <pt x="490" y="1809" on="1"/>
      </contour>
    </TTGlyph>
    <TTGlyph name="Idieresis" xMin="70" yMin="0" xMax="662" yMax="1809">
      <contour>
        <pt x="250" y="0" on="1"/>
        <pt x="70" y="0" on="1"/>
        <pt x="268" y="1405" on="1"/>
        <pt x="449" y="1405" on="1"/>
      </contour>
      <contour>
        <pt x="635" y="1614" on="1"/>
        <pt x="457" y="1614" on="1"/>
        <pt x="484" y="1809" on="1"/>
        <pt x="662" y="1809" on="1"/>
      </contour>
      <contour>
        <pt x="328" y="1614" on="1"/>
        <pt x="150" y="1614" on="1"/>
        <pt x="177" y="1809" on="1"/>
        <pt x="355" y="1809" on="1"/>
      </contour>
    </TTGlyph>
    <TTGlyph name="Idotaccent" xMin="70" yMin="0" xMax="506" yMax="1809">
      <contour>
        <pt x="250" y="0" on="1"/>
        <pt x="70" y="0" on="1"/>
        <pt x="268" y="1405" on="1"/>
        <pt x="449" y="1405" on="1"/>
      </contour>
      <contour>
        <pt x="479" y="1614" on="1"/>
        <pt x="301" y="1614" on="1"/>
        <pt x="328" y="1809" on="1"/>
        <pt x="506" y="1809" on="1"/>
      </contour>
    </TTGlyph>
    <TTGlyph name="Igrave" xMin="70" yMin="0" xMax="501" yMax="1809">
      <contour>
        <pt x="250" y="0" on="1"/>
        <pt x="70" y="0" on="1"/>
        <pt x="268" y="1405" on="1"/>
        <pt x="449" y="1405" on="1"/>
      </contour>
      <contour>
        <pt x="501" y="1538" on="1"/>
        <pt x="359" y="1538" on="1"/>
        <pt x="175" y="1803" on="1"/>
        <pt x="179" y="1809" on="1"/>
        <pt x="363" y="1809" on="1"/>
      </contour>
    </TTGlyph>
    <TTGlyph name="Imacron" xMin="70" yMin="0" xMax="651" yMax="1702">
      <contour>
        <pt x="250" y="0" on="1"/>
        <pt x="70" y="0" on="1"/>
        <pt x="268" y="1405" on="1"/>
        <pt x="449" y="1405" on="1"/>
      </contour>
      <contour>
        <pt x="629" y="1555" on="1"/>
        <pt x="117" y="1555" on="1"/>
        <pt x="139" y="1702" on="1"/>
        <pt x="651" y="1702" on="1"/>
      </contour>
    </TTGlyph>
    <TTGlyph name="Iogonek" xMin="-2" yMin="-389" xMax="449" yMax="1405">
      <contour>
        <pt x="250" y="0" on="1"/>
        <pt x="237" y="-13" on="0"/>
        <pt x="207" y="-50" on="0"/>
        <pt x="182" y="-95" on="0"/>
        <pt x="166" y="-145" on="0"/>
        <pt x="166" y="-170" on="1"/>
        <pt x="166" y="-205" on="0"/>
        <pt x="201" y="-256" on="0"/>
        <pt x="244" y="-256" on="1"/>
        <pt x="310" y="-256" on="1"/>
        <pt x="295" y="-360" on="1"/>
        <pt x="261" y="-374" on="0"/>
        <pt x="197" y="-389" on="0"/>
        <pt x="166" y="-389" on="1"/>
        <pt x="134" y="-389" on="0"/>
        <pt x="74" y="-374" on="0"/>
        <pt x="27" y="-336" on="0"/>
        <pt x="-2" y="-274" on="0"/>
        <pt x="-2" y="-227" on="1"/>
        <pt x="-2" y="-187" on="0"/>
        <pt x="18" y="-121" on="0"/>
        <pt x="52" y="-66" on="0"/>
        <pt x="94" y="-20" on="0"/>
        <pt x="117" y="0" on="1"/>
        <pt x="70" y="0" on="1"/>
        <pt x="268" y="1405" on="1"/>
        <pt x="449" y="1405" on="1"/>
      </contour>
    </TTGlyph>
    <TTGlyph name="Itilde" xMin="70" yMin="0" xMax="710" yMax="1809">
      <contour>
        <pt x="250" y="0" on="1"/>
        <pt x="70" y="0" on="1"/>
        <pt x="268" y="1405" on="1"/>
        <pt x="449" y="1405" on="1"/>
      </contour>
      <contour>
        <pt x="710" y="1809" on="1"/>
        <pt x="705" y="1773" on="0"/>
        <pt x="675" y="1698" on="0"/>
        <pt x="627" y="1636" on="0"/>
        <pt x="558" y="1596" on="0"/>
        <pt x="514" y="1596" on="1"/>
        <pt x="479" y="1596" on="0"/>
        <pt x="420" y="1616" on="0"/>
        <pt x="365" y="1639" on="0"/>
        <pt x="311" y="1659" on="0"/>
        <pt x="280" y="1659" on="1"/>
        <pt x="252" y="1659" on="0"/>
        <pt x="210" y="1631" on="0"/>
        <pt x="200" y="1596" on="1"/>
        <pt x="83" y="1596" on="1"/>
        <pt x="89" y="1631" on="0"/>
        <pt x="117" y="1707" on="0"/>
        <pt x="165" y="1769" on="0"/>
        <pt x="233" y="1809" on="0"/>
        <pt x="278" y="1809" on="1"/>
        <pt x="312" y="1809" on="0"/>
        <pt x="371" y="1789" on="0"/>
        <pt x="426" y="1765" on="0"/>
        <pt x="481" y="1745" on="0"/>
        <pt x="512" y="1745" on="1"/>
        <pt x="539" y="1745" on="0"/>
        <pt x="582" y="1774" on="0"/>
        <pt x="591" y="1809" on="1"/>
      </contour>
    </TTGlyph>
    <TTGlyph name="J" xMin="-2" yMin="-25" xMax="834" yMax="1405">
      <contour>
        <pt x="682" y="334" on="1"/>
        <pt x="657" y="157" on="0"/>
        <pt x="466" y="-25" on="0"/>
        <pt x="311" y="-25" on="1"/>
        <pt x="160" y="-25" on="0"/>
        <pt x="-2" y="117" on="0"/>
        <pt x="-2" y="254" on="1"/>
        <pt x="-2" y="263" on="0"/>
        <pt x="-1" y="285" on="0"/>
        <pt x="3" y="323" on="0"/>
        <pt x="10" y="381" on="0"/>
        <pt x="16" y="426" on="1"/>
        <pt x="195" y="426" on="1"/>
        <pt x="189" y="382" on="0"/>
        <pt x="181" y="330" on="0"/>
        <pt x="177" y="300" on="0"/>
        <pt x="176" y="286" on="0"/>
        <pt x="176" y="281" on="1"/>
        <pt x="176" y="211" on="0"/>
        <pt x="247" y="141" on="0"/>
        <pt x="315" y="141" on="1"/>
        <pt x="393" y="141" on="0"/>
        <pt x="487" y="234" on="0"/>
        <pt x="500" y="324" on="1"/>
        <pt x="653" y="1405" on="1"/>
        <pt x="834" y="1405" on="1"/>
      </contour>
    </TTGlyph>
    <TTGlyph name="Jcircumflex" xMin="-2" yMin="-25" xMax="1011" yMax="1809">
      <contour>
        <pt x="682" y="334" on="1"/>
        <pt x="657" y="157" on="0"/>
        <pt x="466" y="-25" on="0"/>
        <pt x="311" y="-25" on="1"/>
        <pt x="160" y="-25" on="0"/>
        <pt x="-2" y="117" on="0"/>
        <pt x="-2" y="254" on="1"/>
        <pt x="-2" y="263" on="0"/>
        <pt x="-1" y="285" on="0"/>
        <pt x="3" y="323" on="0"/>
        <pt x="10" y="381" on="0"/>
        <pt x="16" y="426" on="1"/>
        <pt x="195" y="426" on="1"/>
        <pt x="189" y="382" on="0"/>
        <pt x="181" y="330" on="0"/>
        <pt x="177" y="300" on="0"/>
        <pt x="176" y="286" on="0"/>
        <pt x="176" y="281" on="1"/>
        <pt x="176" y="211" on="0"/>
        <pt x="247" y="141" on="0"/>
        <pt x="315" y="141" on="1"/>
        <pt x="393" y="141" on="0"/>
        <pt x="487" y="234" on="0"/>
        <pt x="500" y="324" on="1"/>
        <pt x="653" y="1405" on="1"/>
        <pt x="834" y="1405" on="1"/>
      </contour>
      <contour>
        <pt x="1011" y="1532" on="1"/>
        <pt x="853" y="1532" on="1"/>
        <pt x="786" y="1694" on="1"/>
        <pt x="671" y="1532" on="1"/>
        <pt x="501" y="1532" on="1"/>
        <pt x="716" y="1809" on="1"/>
        <pt x="876" y="1809" on="1"/>
      </contour>
    </TTGlyph>
    <TTGlyph name="K" xMin="70" yMin="0" xMax="1206" yMax="1405">
      <contour>
        <pt x="344" y="674" on="1"/>
        <pt x="991" y="1405" on="1"/>
        <pt x="1206" y="1405" on="1"/>
        <pt x="705" y="838" on="1"/>
        <pt x="1022" y="0" on="1"/>
        <pt x="821" y="0" on="1"/>
        <pt x="571" y="686" on="1"/>
        <pt x="311" y="436" on="1"/>
        <pt x="250" y="0" on="1"/>
        <pt x="70" y="0" on="1"/>
        <pt x="268" y="1405" on="1"/>
        <pt x="449" y="1405" on="1"/>
      </contour>
    </TTGlyph>
    <TTGlyph name="Kcommaaccent" xMin="70" yMin="-451" xMax="1206" yMax="1405">
      <contour>
        <pt x="500" y="-295" on="1"/>
        <pt x="428" y="-451" on="1"/>
        <pt x="330" y="-451" on="1"/>
        <pt x="393" y="-309" on="1"/>
        <pt x="324" y="-309" on="1"/>
        <pt x="350" y="-123" on="1"/>
        <pt x="524" y="-123" on="1"/>
      </contour>
      <contour>
        <pt x="344" y="674" on="1"/>
        <pt x="991" y="1405" on="1"/>
        <pt x="1206" y="1405" on="1"/>
        <pt x="705" y="838" on="1"/>
        <pt x="1022" y="0" on="1"/>
        <pt x="821" y="0" on="1"/>
        <pt x="571" y="686" on="1"/>
        <pt x="311" y="436" on="1"/>
        <pt x="250" y="0" on="1"/>
        <pt x="70" y="0" on="1"/>
        <pt x="268" y="1405" on="1"/>
        <pt x="449" y="1405" on="1"/>
      </contour>
    </TTGlyph>
    <TTGlyph name="L" xMin="70" yMin="0" xMax="848" yMax="1405">
      <contour>
        <pt x="70" y="0" on="1"/>
        <pt x="268" y="1405" on="1"/>
        <pt x="449" y="1405" on="1"/>
        <pt x="274" y="164" on="1"/>
        <pt x="848" y="164" on="1"/>
        <pt x="823" y="0" on="1"/>
      </contour>
    </TTGlyph>
    <TTGlyph name="Lacute" xMin="70" yMin="0" xMax="848" yMax="1808">
      <contour>
        <pt x="637" y="1802" on="1"/>
        <pt x="416" y="1538" on="1"/>
        <pt x="272" y="1538" on="1"/>
        <pt x="449" y="1808" on="1"/>
        <pt x="635" y="1808" on="1"/>
      </contour>
      <contour>
        <pt x="70" y="0" on="1"/>
        <pt x="268" y="1405" on="1"/>
        <pt x="449" y="1405" on="1"/>
        <pt x="274" y="164" on="1"/>
        <pt x="848" y="164" on="1"/>
        <pt x="823" y="0" on="1"/>
      </contour>
    </TTGlyph>
    <TTGlyph name="Lcaron" xMin="70" yMin="0" xMax="932" yMax="1405">
      <contour>
        <pt x="903" y="1202" on="1"/>
        <pt x="772" y="930" on="1"/>
        <pt x="659" y="930" on="1"/>
        <pt x="764" y="1184" on="1"/>
        <pt x="696" y="1184" on="1"/>
        <pt x="727" y="1405" on="1"/>
        <pt x="932" y="1405" on="1"/>
      </contour>
      <contour>
        <pt x="70" y="0" on="1"/>
        <pt x="268" y="1405" on="1"/>
        <pt x="449" y="1405" on="1"/>
        <pt x="274" y="164" on="1"/>
        <pt x="848" y="164" on="1"/>
        <pt x="823" y="0" on="1"/>
      </contour>
    </TTGlyph>
    <TTGlyph name="Lcommaaccent" xMin="70" yMin="-451" xMax="848" yMax="1405">
      <contour>
        <pt x="451" y="-295" on="1"/>
        <pt x="379" y="-451" on="1"/>
        <pt x="281" y="-451" on="1"/>
        <pt x="344" y="-309" on="1"/>
        <pt x="274" y="-309" on="1"/>
        <pt x="301" y="-123" on="1"/>
        <pt x="475" y="-123" on="1"/>
      </contour>
      <contour>
        <pt x="70" y="0" on="1"/>
        <pt x="268" y="1405" on="1"/>
        <pt x="449" y="1405" on="1"/>
        <pt x="274" y="164" on="1"/>
        <pt x="848" y="164" on="1"/>
        <pt x="823" y="0" on="1"/>
      </contour>
    </TTGlyph>
    <TTGlyph name="Ldot" xMin="70" yMin="0" xMax="852" yMax="1405">
      <contour>
        <pt x="819" y="590" on="1"/>
        <pt x="612" y="590" on="1"/>
        <pt x="643" y="817" on="1"/>
        <pt x="852" y="817" on="1"/>
      </contour>
      <contour>
        <pt x="70" y="0" on="1"/>
        <pt x="268" y="1405" on="1"/>
        <pt x="449" y="1405" on="1"/>
        <pt x="274" y="164" on="1"/>
        <pt x="848" y="164" on="1"/>
        <pt x="823" y="0" on="1"/>
      </contour>
    </TTGlyph>
    <TTGlyph name="Lslash" xMin="-18" yMin="0" xMax="848" yMax="1405">
      <contour>
        <pt x="137" y="485" on="1"/>
        <pt x="-18" y="362" on="1"/>
        <pt x="6" y="528" on="1"/>
        <pt x="162" y="651" on="1"/>
        <pt x="268" y="1405" on="1"/>
        <pt x="449" y="1405" on="1"/>
        <pt x="365" y="811" on="1"/>
        <pt x="608" y="1006" on="1"/>
        <pt x="584" y="836" on="1"/>
        <pt x="342" y="643" on="1"/>
        <pt x="274" y="164" on="1"/>
        <pt x="848" y="164" on="1"/>
        <pt x="823" y="0" on="1"/>
        <pt x="70" y="0" on="1"/>
      </contour>
    </TTGlyph>
    <TTGlyph name="M" xMin="49" yMin="0" xMax="1393" yMax="1405">
      <contour>
        <pt x="1194" y="0" on="1"/>
        <pt x="1014" y="0" on="1"/>
        <pt x="1157" y="1020" on="1"/>
        <pt x="1159" y="1035" on="0"/>
        <pt x="1170" y="1094" on="0"/>
        <pt x="1175" y="1123" on="1"/>
        <pt x="1181" y="1157" on="0"/>
        <pt x="1188" y="1196" on="1"/>
        <pt x="1180" y="1196" on="1"/>
        <pt x="1167" y="1157" on="0"/>
        <pt x="1155" y="1123" on="1"/>
        <pt x="1144" y="1094" on="0"/>
        <pt x="1123" y="1035" on="0"/>
        <pt x="1116" y="1020" on="1"/>
        <pt x="692" y="0" on="1"/>
        <pt x="530" y="0" on="1"/>
        <pt x="397" y="1020" on="1"/>
        <pt x="395" y="1031" on="0"/>
        <pt x="390" y="1090" on="0"/>
        <pt x="388" y="1120" on="1"/>
        <pt x="385" y="1155" on="0"/>
        <pt x="383" y="1196" on="1"/>
        <pt x="375" y="1196" on="1"/>
        <pt x="370" y="1155" on="0"/>
        <pt x="366" y="1120" on="1"/>
        <pt x="362" y="1090" on="0"/>
        <pt x="356" y="1032" on="0"/>
        <pt x="354" y="1020" on="1"/>
        <pt x="211" y="0" on="1"/>
        <pt x="49" y="0" on="1"/>
        <pt x="248" y="1405" on="1"/>
        <pt x="518" y="1405" on="1"/>
        <pt x="635" y="483" on="1"/>
        <pt x="640" y="449" on="0"/>
        <pt x="644" y="355" on="0"/>
        <pt x="646" y="312" on="1"/>
        <pt x="648" y="262" on="0"/>
        <pt x="649" y="209" on="1"/>
        <pt x="657" y="209" on="1"/>
        <pt x="670" y="263" on="0"/>
        <pt x="683" y="314" on="1"/>
        <pt x="689" y="336" on="0"/>
        <pt x="701" y="382" on="0"/>
        <pt x="715" y="426" on="0"/>
        <pt x="728" y="467" on="0"/>
        <pt x="735" y="483" on="1"/>
        <pt x="1116" y="1405" on="1"/>
        <pt x="1393" y="1405" on="1"/>
      </contour>
    </TTGlyph>
    <TTGlyph name="N" xMin="68" yMin="0" xMax="1192" yMax="1405">
      <contour>
        <pt x="993" y="0" on="1"/>
        <pt x="852" y="0" on="1"/>
        <pt x="449" y="895" on="1"/>
        <pt x="438" y="917" on="0"/>
        <pt x="416" y="981" on="0"/>
        <pt x="405" y="1011" on="1"/>
        <pt x="393" y="1046" on="0"/>
        <pt x="381" y="1083" on="1"/>
        <pt x="375" y="1081" on="1"/>
        <pt x="373" y="1043" on="0"/>
        <pt x="369" y="1009" on="1"/>
        <pt x="366" y="980" on="0"/>
        <pt x="359" y="916" on="0"/>
        <pt x="356" y="895" on="1"/>
        <pt x="229" y="0" on="1"/>
        <pt x="68" y="0" on="1"/>
        <pt x="266" y="1405" on="1"/>
        <pt x="414" y="1405" on="1"/>
        <pt x="813" y="522" on="1"/>
        <pt x="821" y="502" on="0"/>
        <pt x="844" y="438" on="0"/>
        <pt x="855" y="408" on="1"/>
        <pt x="867" y="373" on="0"/>
        <pt x="879" y="334" on="1"/>
        <pt x="885" y="336" on="1"/>
        <pt x="889" y="376" on="0"/>
        <pt x="893" y="412" on="1"/>
        <pt x="896" y="443" on="0"/>
        <pt x="903" y="505" on="0"/>
        <pt x="905" y="522" on="1"/>
        <pt x="1030" y="1405" on="1"/>
        <pt x="1192" y="1405" on="1"/>
      </contour>
    </TTGlyph>
    <TTGlyph name="Nacute" xMin="68" yMin="0" xMax="1192" yMax="1809">
      <contour>
        <pt x="993" y="0" on="1"/>
        <pt x="852" y="0" on="1"/>
        <pt x="449" y="895" on="1"/>
        <pt x="438" y="917" on="0"/>
        <pt x="416" y="981" on="0"/>
        <pt x="405" y="1011" on="1"/>
        <pt x="393" y="1046" on="0"/>
        <pt x="381" y="1083" on="1"/>
        <pt x="375" y="1081" on="1"/>
        <pt x="373" y="1043" on="0"/>
        <pt x="369" y="1009" on="1"/>
        <pt x="366" y="980" on="0"/>
        <pt x="359" y="916" on="0"/>
        <pt x="356" y="895" on="1"/>
        <pt x="229" y="0" on="1"/>
        <pt x="68" y="0" on="1"/>
        <pt x="266" y="1405" on="1"/>
        <pt x="414" y="1405" on="1"/>
        <pt x="813" y="522" on="1"/>
        <pt x="821" y="502" on="0"/>
        <pt x="844" y="438" on="0"/>
        <pt x="855" y="408" on="1"/>
        <pt x="867" y="373" on="0"/>
        <pt x="879" y="334" on="1"/>
        <pt x="885" y="336" on="1"/>
        <pt x="889" y="376" on="0"/>
        <pt x="893" y="412" on="1"/>
        <pt x="896" y="443" on="0"/>
        <pt x="903" y="505" on="0"/>
        <pt x="905" y="522" on="1"/>
        <pt x="1030" y="1405" on="1"/>
        <pt x="1192" y="1405" on="1"/>
      </contour>
      <contour>
        <pt x="1003" y="1803" on="1"/>
        <pt x="782" y="1538" on="1"/>
        <pt x="640" y="1538" on="1"/>
        <pt x="816" y="1809" on="1"/>
        <pt x="1001" y="1809" on="1"/>
      </contour>
    </TTGlyph>
    <TTGlyph name="Ncaron" xMin="68" yMin="0" xMax="1192" yMax="1809">
      <contour>
        <pt x="993" y="0" on="1"/>
        <pt x="852" y="0" on="1"/>
        <pt x="449" y="895" on="1"/>
        <pt x="438" y="917" on="0"/>
        <pt x="416" y="981" on="0"/>
        <pt x="405" y="1011" on="1"/>
        <pt x="393" y="1046" on="0"/>
        <pt x="381" y="1083" on="1"/>
        <pt x="375" y="1081" on="1"/>
        <pt x="373" y="1043" on="0"/>
        <pt x="369" y="1009" on="1"/>
        <pt x="366" y="980" on="0"/>
        <pt x="359" y="916" on="0"/>
        <pt x="356" y="895" on="1"/>
        <pt x="229" y="0" on="1"/>
        <pt x="68" y="0" on="1"/>
        <pt x="266" y="1405" on="1"/>
        <pt x="414" y="1405" on="1"/>
        <pt x="813" y="522" on="1"/>
        <pt x="821" y="502" on="0"/>
        <pt x="844" y="438" on="0"/>
        <pt x="855" y="408" on="1"/>
        <pt x="867" y="373" on="0"/>
        <pt x="879" y="334" on="1"/>
        <pt x="885" y="336" on="1"/>
        <pt x="889" y="376" on="0"/>
        <pt x="893" y="412" on="1"/>
        <pt x="896" y="443" on="0"/>
        <pt x="903" y="505" on="0"/>
        <pt x="905" y="522" on="1"/>
        <pt x="1030" y="1405" on="1"/>
        <pt x="1192" y="1405" on="1"/>
      </contour>
      <contour>
        <pt x="822" y="1532" on="1"/>
        <pt x="663" y="1532" on="1"/>
        <pt x="528" y="1809" on="1"/>
        <pt x="691" y="1809" on="1"/>
        <pt x="759" y="1647" on="1"/>
        <pt x="867" y="1809" on="1"/>
        <pt x="1037" y="1809" on="1"/>
      </contour>
    </TTGlyph>
    <TTGlyph name="Ncommaaccent" xMin="68" yMin="-451" xMax="1192" yMax="1405">
      <contour>
        <pt x="993" y="0" on="1"/>
        <pt x="852" y="0" on="1"/>
        <pt x="449" y="895" on="1"/>
        <pt x="438" y="917" on="0"/>
        <pt x="416" y="981" on="0"/>
        <pt x="405" y="1011" on="1"/>
        <pt x="393" y="1046" on="0"/>
        <pt x="381" y="1083" on="1"/>
        <pt x="375" y="1081" on="1"/>
        <pt x="373" y="1043" on="0"/>
        <pt x="369" y="1009" on="1"/>
        <pt x="366" y="980" on="0"/>
        <pt x="359" y="916" on="0"/>
        <pt x="356" y="895" on="1"/>
        <pt x="229" y="0" on="1"/>
        <pt x="68" y="0" on="1"/>
        <pt x="266" y="1405" on="1"/>
        <pt x="414" y="1405" on="1"/>
        <pt x="813" y="522" on="1"/>
        <pt x="821" y="502" on="0"/>
        <pt x="844" y="438" on="0"/>
        <pt x="855" y="408" on="1"/>
        <pt x="867" y="373" on="0"/>
        <pt x="879" y="334" on="1"/>
        <pt x="885" y="336" on="1"/>
        <pt x="889" y="376" on="0"/>
        <pt x="893" y="412" on="1"/>
        <pt x="896" y="443" on="0"/>
        <pt x="903" y="505" on="0"/>
        <pt x="905" y="522" on="1"/>
        <pt x="1030" y="1405" on="1"/>
        <pt x="1192" y="1405" on="1"/>
      </contour>
      <contour>
        <pt x="576" y="-295" on="1"/>
        <pt x="504" y="-451" on="1"/>
        <pt x="405" y="-451" on="1"/>
        <pt x="470" y="-309" on="1"/>
        <pt x="400" y="-309" on="1"/>
        <pt x="427" y="-123" on="1"/>
        <pt x="601" y="-123" on="1"/>
      </contour>
    </TTGlyph>
    <TTGlyph name="Ntilde" xMin="68" yMin="0" xMax="1192" yMax="1809">
      <contour>
        <pt x="993" y="0" on="1"/>
        <pt x="852" y="0" on="1"/>
        <pt x="449" y="895" on="1"/>
        <pt x="438" y="917" on="0"/>
        <pt x="416" y="981" on="0"/>
        <pt x="405" y="1011" on="1"/>
        <pt x="393" y="1046" on="0"/>
        <pt x="381" y="1083" on="1"/>
        <pt x="375" y="1081" on="1"/>
        <pt x="373" y="1043" on="0"/>
        <pt x="369" y="1009" on="1"/>
        <pt x="366" y="980" on="0"/>
        <pt x="359" y="916" on="0"/>
        <pt x="356" y="895" on="1"/>
        <pt x="229" y="0" on="1"/>
        <pt x="68" y="0" on="1"/>
        <pt x="266" y="1405" on="1"/>
        <pt x="414" y="1405" on="1"/>
        <pt x="813" y="522" on="1"/>
        <pt x="821" y="502" on="0"/>
        <pt x="844" y="438" on="0"/>
        <pt x="855" y="408" on="1"/>
        <pt x="867" y="373" on="0"/>
        <pt x="879" y="334" on="1"/>
        <pt x="885" y="336" on="1"/>
        <pt x="889" y="376" on="0"/>
        <pt x="893" y="412" on="1"/>
        <pt x="896" y="443" on="0"/>
        <pt x="903" y="505" on="0"/>
        <pt x="905" y="522" on="1"/>
        <pt x="1030" y="1405" on="1"/>
        <pt x="1192" y="1405" on="1"/>
      </contour>
      <contour>
        <pt x="1079" y="1809" on="1"/>
        <pt x="1074" y="1773" on="0"/>
        <pt x="1044" y="1698" on="0"/>
        <pt x="996" y="1636" on="0"/>
        <pt x="927" y="1596" on="0"/>
        <pt x="883" y="1596" on="1"/>
        <pt x="848" y="1596" on="0"/>
        <pt x="789" y="1616" on="0"/>
        <pt x="734" y="1639" on="0"/>
        <pt x="680" y="1659" on="0"/>
        <pt x="649" y="1659" on="1"/>
        <pt x="621" y="1659" on="0"/>
        <pt x="579" y="1631" on="0"/>
        <pt x="569" y="1596" on="1"/>
        <pt x="452" y="1596" on="1"/>
        <pt x="458" y="1631" on="0"/>
        <pt x="486" y="1707" on="0"/>
        <pt x="534" y="1769" on="0"/>
        <pt x="602" y="1809" on="0"/>
        <pt x="647" y="1809" on="1"/>
        <pt x="681" y="1809" on="0"/>
        <pt x="740" y="1789" on="0"/>
        <pt x="795" y="1765" on="0"/>
        <pt x="850" y="1745" on="0"/>
        <pt x="881" y="1745" on="1"/>
        <pt x="908" y="1745" on="0"/>
        <pt x="951" y="1774" on="0"/>
        <pt x="960" y="1809" on="1"/>
      </contour>
    </TTGlyph>
    <TTGlyph name="O" xMin="104" yMin="-25" xMax="1239" yMax="1430">
      <contour>
        <pt x="752" y="1430" on="1"/>
        <pt x="867" y="1430" on="0"/>
        <pt x="1048" y="1363" on="0"/>
        <pt x="1173" y="1230" on="0"/>
        <pt x="1239" y="1029" on="0"/>
        <pt x="1239" y="895" on="1"/>
        <pt x="1239" y="797" on="0"/>
        <pt x="1211" y="585" on="0"/>
        <pt x="1149" y="380" on="0"/>
        <pt x="1049" y="196" on="0"/>
        <pt x="905" y="57" on="0"/>
        <pt x="713" y="-25" on="0"/>
        <pt x="590" y="-25" on="1"/>
        <pt x="475" y="-25" on="0"/>
        <pt x="294" y="41" on="0"/>
        <pt x="170" y="173" on="0"/>
        <pt x="104" y="372" on="0"/>
        <pt x="104" y="506" on="1"/>
        <pt x="104" y="604" on="0"/>
        <pt x="131" y="817" on="0"/>
        <pt x="193" y="1022" on="0"/>
        <pt x="292" y="1207" on="0"/>
        <pt x="436" y="1347" on="0"/>
        <pt x="629" y="1430" on="0"/>
      </contour>
      <contour>
        <pt x="750" y="1264" on="1"/>
        <pt x="658" y="1264" on="0"/>
        <pt x="518" y="1195" on="0"/>
        <pt x="415" y="1078" on="0"/>
        <pt x="347" y="925" on="0"/>
        <pt x="306" y="757" on="0"/>
        <pt x="289" y="586" on="0"/>
        <pt x="289" y="510" on="1"/>
        <pt x="289" y="324" on="0"/>
        <pt x="447" y="141" on="0"/>
        <pt x="592" y="141" on="1"/>
        <pt x="685" y="141" on="0"/>
        <pt x="825" y="211" on="0"/>
        <pt x="928" y="328" on="0"/>
        <pt x="996" y="482" on="0"/>
        <pt x="1036" y="650" on="0"/>
        <pt x="1053" y="820" on="0"/>
        <pt x="1053" y="895" on="1"/>
        <pt x="1053" y="987" on="0"/>
        <pt x="1012" y="1126" on="0"/>
        <pt x="934" y="1218" on="0"/>
        <pt x="821" y="1264" on="0"/>
      </contour>
    </TTGlyph>
    <TTGlyph name="OE" xMin="82" yMin="-25" xMax="1706" yMax="1430">
      <contour>
        <pt x="657" y="1264" on="1"/>
        <pt x="579" y="1264" on="0"/>
        <pt x="461" y="1182" on="0"/>
        <pt x="375" y="1049" on="0"/>
        <pt x="317" y="879" on="0"/>
        <pt x="282" y="705" on="0"/>
        <pt x="268" y="542" on="0"/>
        <pt x="268" y="481" on="1"/>
        <pt x="268" y="310" on="0"/>
        <pt x="388" y="141" on="0"/>
        <pt x="500" y="141" on="1"/>
        <pt x="581" y="141" on="0"/>
        <pt x="702" y="223" on="0"/>
        <pt x="789" y="356" on="0"/>
        <pt x="844" y="525" on="0"/>
        <pt x="877" y="699" on="0"/>
        <pt x="889" y="862" on="0"/>
        <pt x="889" y="924" on="1"/>
        <pt x="889" y="1095" on="0"/>
        <pt x="769" y="1264" on="0"/>
      </contour>
      <contour>
        <pt x="791" y="139" on="1"/>
        <pt x="652" y="-25" on="0"/>
        <pt x="457" y="-25" on="1"/>
        <pt x="277" y="-25" on="0"/>
        <pt x="82" y="222" on="0"/>
        <pt x="82" y="473" on="1"/>
        <pt x="82" y="536" on="0"/>
        <pt x="94" y="684" on="0"/>
        <pt x="122" y="842" on="0"/>
        <pt x="167" y="1003" on="0"/>
        <pt x="233" y="1151" on="0"/>
        <pt x="321" y="1280" on="0"/>
        <pt x="434" y="1375" on="0"/>
        <pt x="574" y="1430" on="0"/>
        <pt x="659" y="1430" on="1"/>
        <pt x="858" y="1430" on="0"/>
        <pt x="948" y="1266" on="1"/>
        <pt x="969" y="1405" on="1"/>
        <pt x="1706" y="1405" on="1"/>
        <pt x="1681" y="1241" on="1"/>
        <pt x="1124" y="1241" on="1"/>
        <pt x="1063" y="801" on="1"/>
        <pt x="1530" y="801" on="1"/>
        <pt x="1507" y="637" on="1"/>
        <pt x="1040" y="637" on="1"/>
        <pt x="975" y="164" on="1"/>
        <pt x="1544" y="164" on="1"/>
        <pt x="1520" y="0" on="1"/>
        <pt x="770" y="0" on="1"/>
      </contour>
    </TTGlyph>
    <TTGlyph name="Oacute" xMin="104" yMin="-25" xMax="1239" yMax="1809">
      <contour>
        <pt x="752" y="1430" on="1"/>
        <pt x="867" y="1430" on="0"/>
        <pt x="1048" y="1363" on="0"/>
        <pt x="1173" y="1230" on="0"/>
        <pt x="1239" y="1029" on="0"/>
        <pt x="1239" y="895" on="1"/>
        <pt x="1239" y="797" on="0"/>
        <pt x="1211" y="585" on="0"/>
        <pt x="1149" y="380" on="0"/>
        <pt x="1049" y="196" on="0"/>
        <pt x="905" y="57" on="0"/>
        <pt x="713" y="-25" on="0"/>
        <pt x="590" y="-25" on="1"/>
        <pt x="475" y="-25" on="0"/>
        <pt x="294" y="41" on="0"/>
        <pt x="170" y="173" on="0"/>
        <pt x="104" y="372" on="0"/>
        <pt x="104" y="506" on="1"/>
        <pt x="104" y="604" on="0"/>
        <pt x="131" y="817" on="0"/>
        <pt x="193" y="1022" on="0"/>
        <pt x="292" y="1207" on="0"/>
        <pt x="436" y="1347" on="0"/>
        <pt x="629" y="1430" on="0"/>
      </contour>
      <contour>
        <pt x="750" y="1264" on="1"/>
        <pt x="658" y="1264" on="0"/>
        <pt x="518" y="1195" on="0"/>
        <pt x="415" y="1078" on="0"/>
        <pt x="347" y="925" on="0"/>
        <pt x="306" y="757" on="0"/>
        <pt x="289" y="586" on="0"/>
        <pt x="289" y="510" on="1"/>
        <pt x="289" y="324" on="0"/>
        <pt x="447" y="141" on="0"/>
        <pt x="592" y="141" on="1"/>
        <pt x="685" y="141" on="0"/>
        <pt x="825" y="211" on="0"/>
        <pt x="928" y="328" on="0"/>
        <pt x="996" y="482" on="0"/>
        <pt x="1036" y="650" on="0"/>
        <pt x="1053" y="820" on="0"/>
        <pt x="1053" y="895" on="1"/>
        <pt x="1053" y="987" on="0"/>
        <pt x="1012" y="1126" on="0"/>
        <pt x="934" y="1218" on="0"/>
        <pt x="821" y="1264" on="0"/>
      </contour>
      <contour>
        <pt x="1051" y="1803" on="1"/>
        <pt x="830" y="1538" on="1"/>
        <pt x="688" y="1538" on="1"/>
        <pt x="864" y="1809" on="1"/>
        <pt x="1049" y="1809" on="1"/>
      </contour>
    </TTGlyph>
    <TTGlyph name="Obreve" xMin="104" yMin="-25" xMax="1239" yMax="1809">
      <contour>
        <pt x="752" y="1430" on="1"/>
        <pt x="867" y="1430" on="0"/>
        <pt x="1048" y="1363" on="0"/>
        <pt x="1173" y="1230" on="0"/>
        <pt x="1239" y="1029" on="0"/>
        <pt x="1239" y="895" on="1"/>
        <pt x="1239" y="797" on="0"/>
        <pt x="1211" y="585" on="0"/>
        <pt x="1149" y="380" on="0"/>
        <pt x="1049" y="196" on="0"/>
        <pt x="905" y="57" on="0"/>
        <pt x="713" y="-25" on="0"/>
        <pt x="590" y="-25" on="1"/>
        <pt x="475" y="-25" on="0"/>
        <pt x="294" y="41" on="0"/>
        <pt x="170" y="173" on="0"/>
        <pt x="104" y="372" on="0"/>
        <pt x="104" y="506" on="1"/>
        <pt x="104" y="604" on="0"/>
        <pt x="131" y="817" on="0"/>
        <pt x="193" y="1022" on="0"/>
        <pt x="292" y="1207" on="0"/>
        <pt x="436" y="1347" on="0"/>
        <pt x="629" y="1430" on="0"/>
      </contour>
      <contour>
        <pt x="750" y="1264" on="1"/>
        <pt x="658" y="1264" on="0"/>
        <pt x="518" y="1195" on="0"/>
        <pt x="415" y="1078" on="0"/>
        <pt x="347" y="925" on="0"/>
        <pt x="306" y="757" on="0"/>
        <pt x="289" y="586" on="0"/>
        <pt x="289" y="510" on="1"/>
        <pt x="289" y="324" on="0"/>
        <pt x="447" y="141" on="0"/>
        <pt x="592" y="141" on="1"/>
        <pt x="685" y="141" on="0"/>
        <pt x="825" y="211" on="0"/>
        <pt x="928" y="328" on="0"/>
        <pt x="996" y="482" on="0"/>
        <pt x="1036" y="650" on="0"/>
        <pt x="1053" y="820" on="0"/>
        <pt x="1053" y="895" on="1"/>
        <pt x="1053" y="987" on="0"/>
        <pt x="1012" y="1126" on="0"/>
        <pt x="934" y="1218" on="0"/>
        <pt x="821" y="1264" on="0"/>
      </contour>
      <contour>
        <pt x="1087" y="1809" on="1"/>
        <pt x="1082" y="1774" on="0"/>
        <pt x="1039" y="1704" on="0"/>
        <pt x="968" y="1646" on="0"/>
        <pt x="873" y="1610" on="0"/>
        <pt x="816" y="1610" on="1"/>
        <pt x="759" y="1610" on="0"/>
        <pt x="671" y="1641" on="0"/>
        <pt x="611" y="1692" on="0"/>
        <pt x="579" y="1757" on="0"/>
        <pt x="579" y="1790" on="1"/>
        <pt x="579" y="1799" on="1"/>
        <pt x="579" y="1804" on="0"/>
        <pt x="581" y="1809" on="1"/>
        <pt x="712" y="1809" on="1"/>
        <pt x="713" y="1798" on="0"/>
        <pt x="729" y="1774" on="0"/>
        <pt x="758" y="1754" on="0"/>
        <pt x="799" y="1741" on="0"/>
        <pt x="825" y="1741" on="1"/>
        <pt x="851" y="1741" on="0"/>
        <pt x="896" y="1754" on="0"/>
        <pt x="930" y="1774" on="0"/>
        <pt x="953" y="1798" on="0"/>
        <pt x="956" y="1809" on="1"/>
      </contour>
    </TTGlyph>
    <TTGlyph name="Ocircumflex" xMin="104" yMin="-25" xMax="1239" yMax="1809">
      <contour>
        <pt x="752" y="1430" on="1"/>
        <pt x="867" y="1430" on="0"/>
        <pt x="1048" y="1363" on="0"/>
        <pt x="1173" y="1230" on="0"/>
        <pt x="1239" y="1029" on="0"/>
        <pt x="1239" y="895" on="1"/>
        <pt x="1239" y="797" on="0"/>
        <pt x="1211" y="585" on="0"/>
        <pt x="1149" y="380" on="0"/>
        <pt x="1049" y="196" on="0"/>
        <pt x="905" y="57" on="0"/>
        <pt x="713" y="-25" on="0"/>
        <pt x="590" y="-25" on="1"/>
        <pt x="475" y="-25" on="0"/>
        <pt x="294" y="41" on="0"/>
        <pt x="170" y="173" on="0"/>
        <pt x="104" y="372" on="0"/>
        <pt x="104" y="506" on="1"/>
        <pt x="104" y="604" on="0"/>
        <pt x="131" y="817" on="0"/>
        <pt x="193" y="1022" on="0"/>
        <pt x="292" y="1207" on="0"/>
        <pt x="436" y="1347" on="0"/>
        <pt x="629" y="1430" on="0"/>
      </contour>
      <contour>
        <pt x="750" y="1264" on="1"/>
        <pt x="658" y="1264" on="0"/>
        <pt x="518" y="1195" on="0"/>
        <pt x="415" y="1078" on="0"/>
        <pt x="347" y="925" on="0"/>
        <pt x="306" y="757" on="0"/>
        <pt x="289" y="586" on="0"/>
        <pt x="289" y="510" on="1"/>
        <pt x="289" y="324" on="0"/>
        <pt x="447" y="141" on="0"/>
        <pt x="592" y="141" on="1"/>
        <pt x="685" y="141" on="0"/>
        <pt x="825" y="211" on="0"/>
        <pt x="928" y="328" on="0"/>
        <pt x="996" y="482" on="0"/>
        <pt x="1036" y="650" on="0"/>
        <pt x="1053" y="820" on="0"/>
        <pt x="1053" y="895" on="1"/>
        <pt x="1053" y="987" on="0"/>
        <pt x="1012" y="1126" on="0"/>
        <pt x="934" y="1218" on="0"/>
        <pt x="821" y="1264" on="0"/>
      </contour>
      <contour>
        <pt x="1042" y="1532" on="1"/>
        <pt x="884" y="1532" on="1"/>
        <pt x="817" y="1694" on="1"/>
        <pt x="702" y="1532" on="1"/>
        <pt x="532" y="1532" on="1"/>
        <pt x="747" y="1809" on="1"/>
        <pt x="907" y="1809" on="1"/>
      </contour>
    </TTGlyph>
    <TTGlyph name="Odieresis" xMin="104" yMin="-25" xMax="1239" yMax="1809">
      <contour>
        <pt x="752" y="1430" on="1"/>
        <pt x="867" y="1430" on="0"/>
        <pt x="1048" y="1363" on="0"/>
        <pt x="1173" y="1230" on="0"/>
        <pt x="1239" y="1029" on="0"/>
        <pt x="1239" y="895" on="1"/>
        <pt x="1239" y="797" on="0"/>
        <pt x="1211" y="585" on="0"/>
        <pt x="1149" y="380" on="0"/>
        <pt x="1049" y="196" on="0"/>
        <pt x="905" y="57" on="0"/>
        <pt x="713" y="-25" on="0"/>
        <pt x="590" y="-25" on="1"/>
        <pt x="475" y="-25" on="0"/>
        <pt x="294" y="41" on="0"/>
        <pt x="170" y="173" on="0"/>
        <pt x="104" y="372" on="0"/>
        <pt x="104" y="506" on="1"/>
        <pt x="104" y="604" on="0"/>
        <pt x="131" y="817" on="0"/>
        <pt x="193" y="1022" on="0"/>
        <pt x="292" y="1207" on="0"/>
        <pt x="436" y="1347" on="0"/>
        <pt x="629" y="1430" on="0"/>
      </contour>
      <contour>
        <pt x="750" y="1264" on="1"/>
        <pt x="658" y="1264" on="0"/>
        <pt x="518" y="1195" on="0"/>
        <pt x="415" y="1078" on="0"/>
        <pt x="347" y="925" on="0"/>
        <pt x="306" y="757" on="0"/>
        <pt x="289" y="586" on="0"/>
        <pt x="289" y="510" on="1"/>
        <pt x="289" y="324" on="0"/>
        <pt x="447" y="141" on="0"/>
        <pt x="592" y="141" on="1"/>
        <pt x="685" y="141" on="0"/>
        <pt x="825" y="211" on="0"/>
        <pt x="928" y="328" on="0"/>
        <pt x="996" y="482" on="0"/>
        <pt x="1036" y="650" on="0"/>
        <pt x="1053" y="820" on="0"/>
        <pt x="1053" y="895" on="1"/>
        <pt x="1053" y="987" on="0"/>
        <pt x="1012" y="1126" on="0"/>
        <pt x="934" y="1218" on="0"/>
        <pt x="821" y="1264" on="0"/>
      </contour>
      <contour>
        <pt x="1052" y="1614" on="1"/>
        <pt x="874" y="1614" on="1"/>
        <pt x="901" y="1809" on="1"/>
        <pt x="1079" y="1809" on="1"/>
      </contour>
      <contour>
        <pt x="745" y="1614" on="1"/>
        <pt x="567" y="1614" on="1"/>
        <pt x="594" y="1809" on="1"/>
        <pt x="772" y="1809" on="1"/>
      </contour>
    </TTGlyph>
    <TTGlyph name="Ograve" xMin="104" yMin="-25" xMax="1239" yMax="1809">
      <contour>
        <pt x="752" y="1430" on="1"/>
        <pt x="867" y="1430" on="0"/>
        <pt x="1048" y="1363" on="0"/>
        <pt x="1173" y="1230" on="0"/>
        <pt x="1239" y="1029" on="0"/>
        <pt x="1239" y="895" on="1"/>
        <pt x="1239" y="797" on="0"/>
        <pt x="1211" y="585" on="0"/>
        <pt x="1149" y="380" on="0"/>
        <pt x="1049" y="196" on="0"/>
        <pt x="905" y="57" on="0"/>
        <pt x="713" y="-25" on="0"/>
        <pt x="590" y="-25" on="1"/>
        <pt x="475" y="-25" on="0"/>
        <pt x="294" y="41" on="0"/>
        <pt x="170" y="173" on="0"/>
        <pt x="104" y="372" on="0"/>
        <pt x="104" y="506" on="1"/>
        <pt x="104" y="604" on="0"/>
        <pt x="131" y="817" on="0"/>
        <pt x="193" y="1022" on="0"/>
        <pt x="292" y="1207" on="0"/>
        <pt x="436" y="1347" on="0"/>
        <pt x="629" y="1430" on="0"/>
      </contour>
      <contour>
        <pt x="750" y="1264" on="1"/>
        <pt x="658" y="1264" on="0"/>
        <pt x="518" y="1195" on="0"/>
        <pt x="415" y="1078" on="0"/>
        <pt x="347" y="925" on="0"/>
        <pt x="306" y="757" on="0"/>
        <pt x="289" y="586" on="0"/>
        <pt x="289" y="510" on="1"/>
        <pt x="289" y="324" on="0"/>
        <pt x="447" y="141" on="0"/>
        <pt x="592" y="141" on="1"/>
        <pt x="685" y="141" on="0"/>
        <pt x="825" y="211" on="0"/>
        <pt x="928" y="328" on="0"/>
        <pt x="996" y="482" on="0"/>
        <pt x="1036" y="650" on="0"/>
        <pt x="1053" y="820" on="0"/>
        <pt x="1053" y="895" on="1"/>
        <pt x="1053" y="987" on="0"/>
        <pt x="1012" y="1126" on="0"/>
        <pt x="934" y="1218" on="0"/>
        <pt x="821" y="1264" on="0"/>
      </contour>
      <contour>
        <pt x="918" y="1538" on="1"/>
        <pt x="776" y="1538" on="1"/>
        <pt x="592" y="1803" on="1"/>
        <pt x="596" y="1809" on="1"/>
        <pt x="780" y="1809" on="1"/>
      </contour>
    </TTGlyph>
    <TTGlyph name="Ohungarumlaut" xMin="104" yMin="-25" xMax="1239" yMax="1809">
      <contour>
        <pt x="752" y="1430" on="1"/>
        <pt x="867" y="1430" on="0"/>
        <pt x="1048" y="1363" on="0"/>
        <pt x="1173" y="1230" on="0"/>
        <pt x="1239" y="1029" on="0"/>
        <pt x="1239" y="895" on="1"/>
        <pt x="1239" y="797" on="0"/>
        <pt x="1211" y="585" on="0"/>
        <pt x="1149" y="380" on="0"/>
        <pt x="1049" y="196" on="0"/>
        <pt x="905" y="57" on="0"/>
        <pt x="713" y="-25" on="0"/>
        <pt x="590" y="-25" on="1"/>
        <pt x="475" y="-25" on="0"/>
        <pt x="294" y="41" on="0"/>
        <pt x="170" y="173" on="0"/>
        <pt x="104" y="372" on="0"/>
        <pt x="104" y="506" on="1"/>
        <pt x="104" y="604" on="0"/>
        <pt x="131" y="817" on="0"/>
        <pt x="193" y="1022" on="0"/>
        <pt x="292" y="1207" on="0"/>
        <pt x="436" y="1347" on="0"/>
        <pt x="629" y="1430" on="0"/>
      </contour>
      <contour>
        <pt x="750" y="1264" on="1"/>
        <pt x="658" y="1264" on="0"/>
        <pt x="518" y="1195" on="0"/>
        <pt x="415" y="1078" on="0"/>
        <pt x="347" y="925" on="0"/>
        <pt x="306" y="757" on="0"/>
        <pt x="289" y="586" on="0"/>
        <pt x="289" y="510" on="1"/>
        <pt x="289" y="324" on="0"/>
        <pt x="447" y="141" on="0"/>
        <pt x="592" y="141" on="1"/>
        <pt x="685" y="141" on="0"/>
        <pt x="825" y="211" on="0"/>
        <pt x="928" y="328" on="0"/>
        <pt x="996" y="482" on="0"/>
        <pt x="1036" y="650" on="0"/>
        <pt x="1053" y="820" on="0"/>
        <pt x="1053" y="895" on="1"/>
        <pt x="1053" y="987" on="0"/>
        <pt x="1012" y="1126" on="0"/>
        <pt x="934" y="1218" on="0"/>
        <pt x="821" y="1264" on="0"/>
      </contour>
      <contour>
        <pt x="1108" y="1803" on="1"/>
        <pt x="936" y="1538" on="1"/>
        <pt x="794" y="1538" on="1"/>
        <pt x="921" y="1809" on="1"/>
        <pt x="1106" y="1809" on="1"/>
      </contour>
      <contour>
        <pt x="842" y="1803" on="1"/>
        <pt x="670" y="1538" on="1"/>
        <pt x="528" y="1538" on="1"/>
        <pt x="655" y="1809" on="1"/>
        <pt x="839" y="1809" on="1"/>
      </contour>
    </TTGlyph>
    <TTGlyph name="Omacron" xMin="104" yMin="-25" xMax="1239" yMax="1702">
      <contour>
        <pt x="752" y="1430" on="1"/>
        <pt x="867" y="1430" on="0"/>
        <pt x="1048" y="1363" on="0"/>
        <pt x="1173" y="1230" on="0"/>
        <pt x="1239" y="1029" on="0"/>
        <pt x="1239" y="895" on="1"/>
        <pt x="1239" y="797" on="0"/>
        <pt x="1211" y="585" on="0"/>
        <pt x="1149" y="380" on="0"/>
        <pt x="1049" y="196" on="0"/>
        <pt x="905" y="57" on="0"/>
        <pt x="713" y="-25" on="0"/>
        <pt x="590" y="-25" on="1"/>
        <pt x="475" y="-25" on="0"/>
        <pt x="294" y="41" on="0"/>
        <pt x="170" y="173" on="0"/>
        <pt x="104" y="372" on="0"/>
        <pt x="104" y="506" on="1"/>
        <pt x="104" y="604" on="0"/>
        <pt x="131" y="817" on="0"/>
        <pt x="193" y="1022" on="0"/>
        <pt x="292" y="1207" on="0"/>
        <pt x="436" y="1347" on="0"/>
        <pt x="629" y="1430" on="0"/>
      </contour>
      <contour>
        <pt x="750" y="1264" on="1"/>
        <pt x="658" y="1264" on="0"/>
        <pt x="518" y="1195" on="0"/>
        <pt x="415" y="1078" on="0"/>
        <pt x="347" y="925" on="0"/>
        <pt x="306" y="757" on="0"/>
        <pt x="289" y="586" on="0"/>
        <pt x="289" y="510" on="1"/>
        <pt x="289" y="324" on="0"/>
        <pt x="447" y="141" on="0"/>
        <pt x="592" y="141" on="1"/>
        <pt x="685" y="141" on="0"/>
        <pt x="825" y="211" on="0"/>
        <pt x="928" y="328" on="0"/>
        <pt x="996" y="482" on="0"/>
        <pt x="1036" y="650" on="0"/>
        <pt x="1053" y="820" on="0"/>
        <pt x="1053" y="895" on="1"/>
        <pt x="1053" y="987" on="0"/>
        <pt x="1012" y="1126" on="0"/>
        <pt x="934" y="1218" on="0"/>
        <pt x="821" y="1264" on="0"/>
      </contour>
      <contour>
        <pt x="1046" y="1555" on="1"/>
        <pt x="534" y="1555" on="1"/>
        <pt x="556" y="1702" on="1"/>
        <pt x="1068" y="1702" on="1"/>
      </contour>
    </TTGlyph>
    <TTGlyph name="Omega" xMin="158" yMin="0" xMax="1378" yMax="1430">
      <contour>
        <pt x="893" y="1430" on="1"/>
        <pt x="1008" y="1430" on="0"/>
        <pt x="1188" y="1363" on="0"/>
        <pt x="1313" y="1230" on="0"/>
        <pt x="1378" y="1029" on="0"/>
        <pt x="1378" y="895" on="1"/>
        <pt x="1378" y="796" on="0"/>
        <pt x="1349" y="597" on="0"/>
        <pt x="1283" y="409" on="0"/>
        <pt x="1176" y="237" on="0"/>
        <pt x="1098" y="164" on="1"/>
        <pt x="1132" y="166" on="0"/>
        <pt x="1199" y="172" on="0"/>
        <pt x="1237" y="172" on="1"/>
        <pt x="1288" y="172" on="1"/>
        <pt x="1264" y="0" on="1"/>
        <pt x="776" y="0" on="1"/>
        <pt x="795" y="125" on="1"/>
        <pt x="867" y="125" on="0"/>
        <pt x="982" y="208" on="0"/>
        <pt x="1070" y="342" on="0"/>
        <pt x="1133" y="510" on="0"/>
        <pt x="1173" y="682" on="0"/>
        <pt x="1192" y="840" on="0"/>
        <pt x="1192" y="897" on="1"/>
        <pt x="1192" y="989" on="0"/>
        <pt x="1151" y="1127" on="0"/>
        <pt x="1073" y="1218" on="0"/>
        <pt x="960" y="1264" on="0"/>
        <pt x="889" y="1264" on="1"/>
        <pt x="801" y="1264" on="0"/>
        <pt x="665" y="1199" on="0"/>
        <pt x="561" y="1086" on="0"/>
        <pt x="489" y="935" on="0"/>
        <pt x="444" y="764" on="0"/>
        <pt x="424" y="581" on="0"/>
        <pt x="424" y="494" on="1"/>
        <pt x="424" y="335" on="0"/>
        <pt x="549" y="151" on="0"/>
        <pt x="662" y="125" on="1"/>
        <pt x="643" y="0" on="1"/>
        <pt x="158" y="0" on="1"/>
        <pt x="182" y="172" on="1"/>
        <pt x="233" y="172" on="1"/>
        <pt x="258" y="172" on="0"/>
        <pt x="327" y="166" on="0"/>
        <pt x="371" y="164" on="1"/>
        <pt x="311" y="233" on="0"/>
        <pt x="246" y="423" on="0"/>
        <pt x="246" y="547" on="1"/>
        <pt x="246" y="643" on="0"/>
        <pt x="278" y="848" on="0"/>
        <pt x="344" y="1044" on="0"/>
        <pt x="448" y="1220" on="0"/>
        <pt x="591" y="1352" on="0"/>
        <pt x="777" y="1430" on="0"/>
      </contour>
    </TTGlyph>
    <TTGlyph name="Oslash" xMin="102" yMin="-76" xMax="1239" yMax="1481">
      <contour>
        <pt x="1116" y="1290" on="1"/>
        <pt x="1176" y="1222" on="0"/>
        <pt x="1239" y="1026" on="0"/>
        <pt x="1239" y="895" on="1"/>
        <pt x="1239" y="797" on="0"/>
        <pt x="1211" y="585" on="0"/>
        <pt x="1149" y="380" on="0"/>
        <pt x="1049" y="196" on="0"/>
        <pt x="905" y="57" on="0"/>
        <pt x="713" y="-25" on="0"/>
        <pt x="590" y="-25" on="1"/>
        <pt x="424" y="-25" on="0"/>
        <pt x="309" y="43" on="1"/>
        <pt x="233" y="-76" on="1"/>
        <pt x="102" y="-76" on="1"/>
        <pt x="225" y="115" on="1"/>
        <pt x="165" y="181" on="0"/>
        <pt x="104" y="375" on="0"/>
        <pt x="104" y="506" on="1"/>
        <pt x="104" y="604" on="0"/>
        <pt x="131" y="817" on="0"/>
        <pt x="193" y="1022" on="0"/>
        <pt x="292" y="1207" on="0"/>
        <pt x="436" y="1347" on="0"/>
        <pt x="629" y="1430" on="0"/>
        <pt x="752" y="1430" on="1"/>
        <pt x="835" y="1430" on="0"/>
        <pt x="974" y="1395" on="0"/>
        <pt x="1030" y="1360" on="1"/>
        <pt x="1108" y="1481" on="1"/>
        <pt x="1239" y="1481" on="1"/>
      </contour>
      <contour>
        <pt x="408" y="195" on="1"/>
        <pt x="480" y="141" on="0"/>
        <pt x="592" y="141" on="1"/>
        <pt x="685" y="141" on="0"/>
        <pt x="825" y="211" on="0"/>
        <pt x="928" y="328" on="0"/>
        <pt x="996" y="482" on="0"/>
        <pt x="1036" y="650" on="0"/>
        <pt x="1053" y="820" on="0"/>
        <pt x="1053" y="895" on="1"/>
        <pt x="1053" y="964" on="0"/>
        <pt x="1029" y="1077" on="0"/>
        <pt x="1006" y="1120" on="1"/>
      </contour>
      <contour>
        <pt x="750" y="1264" on="1"/>
        <pt x="658" y="1264" on="0"/>
        <pt x="518" y="1195" on="0"/>
        <pt x="415" y="1078" on="0"/>
        <pt x="347" y="925" on="0"/>
        <pt x="306" y="757" on="0"/>
        <pt x="289" y="586" on="0"/>
        <pt x="289" y="510" on="1"/>
        <pt x="289" y="439" on="0"/>
        <pt x="312" y="326" on="0"/>
        <pt x="334" y="283" on="1"/>
        <pt x="932" y="1208" on="1"/>
        <pt x="897" y="1236" on="0"/>
        <pt x="804" y="1264" on="0"/>
      </contour>
    </TTGlyph>
    <TTGlyph name="Oslashacute" xMin="102" yMin="-76" xMax="1239" yMax="1809">
      <contour>
        <pt x="1116" y="1290" on="1"/>
        <pt x="1176" y="1222" on="0"/>
        <pt x="1239" y="1026" on="0"/>
        <pt x="1239" y="895" on="1"/>
        <pt x="1239" y="797" on="0"/>
        <pt x="1211" y="585" on="0"/>
        <pt x="1149" y="380" on="0"/>
        <pt x="1049" y="196" on="0"/>
        <pt x="905" y="57" on="0"/>
        <pt x="713" y="-25" on="0"/>
        <pt x="590" y="-25" on="1"/>
        <pt x="424" y="-25" on="0"/>
        <pt x="309" y="43" on="1"/>
        <pt x="233" y="-76" on="1"/>
        <pt x="102" y="-76" on="1"/>
        <pt x="225" y="115" on="1"/>
        <pt x="165" y="181" on="0"/>
        <pt x="104" y="375" on="0"/>
        <pt x="104" y="506" on="1"/>
        <pt x="104" y="604" on="0"/>
        <pt x="131" y="817" on="0"/>
        <pt x="193" y="1022" on="0"/>
        <pt x="292" y="1207" on="0"/>
        <pt x="436" y="1347" on="0"/>
        <pt x="629" y="1430" on="0"/>
        <pt x="752" y="1430" on="1"/>
        <pt x="835" y="1430" on="0"/>
        <pt x="974" y="1395" on="0"/>
        <pt x="1030" y="1360" on="1"/>
        <pt x="1108" y="1481" on="1"/>
        <pt x="1239" y="1481" on="1"/>
      </contour>
      <contour>
        <pt x="408" y="195" on="1"/>
        <pt x="480" y="141" on="0"/>
        <pt x="592" y="141" on="1"/>
        <pt x="685" y="141" on="0"/>
        <pt x="825" y="211" on="0"/>
        <pt x="928" y="328" on="0"/>
        <pt x="996" y="482" on="0"/>
        <pt x="1036" y="650" on="0"/>
        <pt x="1053" y="820" on="0"/>
        <pt x="1053" y="895" on="1"/>
        <pt x="1053" y="964" on="0"/>
        <pt x="1029" y="1077" on="0"/>
        <pt x="1006" y="1120" on="1"/>
      </contour>
      <contour>
        <pt x="750" y="1264" on="1"/>
        <pt x="658" y="1264" on="0"/>
        <pt x="518" y="1195" on="0"/>
        <pt x="415" y="1078" on="0"/>
        <pt x="347" y="925" on="0"/>
        <pt x="306" y="757" on="0"/>
        <pt x="289" y="586" on="0"/>
        <pt x="289" y="510" on="1"/>
        <pt x="289" y="439" on="0"/>
        <pt x="312" y="326" on="0"/>
        <pt x="334" y="283" on="1"/>
        <pt x="932" y="1208" on="1"/>
        <pt x="897" y="1236" on="0"/>
        <pt x="804" y="1264" on="0"/>
      </contour>
      <contour>
        <pt x="1051" y="1803" on="1"/>
        <pt x="830" y="1538" on="1"/>
        <pt x="688" y="1538" on="1"/>
        <pt x="864" y="1809" on="1"/>
        <pt x="1049" y="1809" on="1"/>
      </contour>
    </TTGlyph>
    <TTGlyph name="Otilde" xMin="104" yMin="-25" xMax="1239" yMax="1809">
      <contour>
        <pt x="752" y="1430" on="1"/>
        <pt x="867" y="1430" on="0"/>
        <pt x="1048" y="1363" on="0"/>
        <pt x="1173" y="1230" on="0"/>
        <pt x="1239" y="1029" on="0"/>
        <pt x="1239" y="895" on="1"/>
        <pt x="1239" y="797" on="0"/>
        <pt x="1211" y="585" on="0"/>
        <pt x="1149" y="380" on="0"/>
        <pt x="1049" y="196" on="0"/>
        <pt x="905" y="57" on="0"/>
        <pt x="713" y="-25" on="0"/>
        <pt x="590" y="-25" on="1"/>
        <pt x="475" y="-25" on="0"/>
        <pt x="294" y="41" on="0"/>
        <pt x="170" y="173" on="0"/>
        <pt x="104" y="372" on="0"/>
        <pt x="104" y="506" on="1"/>
        <pt x="104" y="604" on="0"/>
        <pt x="131" y="817" on="0"/>
        <pt x="193" y="1022" on="0"/>
        <pt x="292" y="1207" on="0"/>
        <pt x="436" y="1347" on="0"/>
        <pt x="629" y="1430" on="0"/>
      </contour>
      <contour>
        <pt x="750" y="1264" on="1"/>
        <pt x="658" y="1264" on="0"/>
        <pt x="518" y="1195" on="0"/>
        <pt x="415" y="1078" on="0"/>
        <pt x="347" y="925" on="0"/>
        <pt x="306" y="757" on="0"/>
        <pt x="289" y="586" on="0"/>
        <pt x="289" y="510" on="1"/>
        <pt x="289" y="324" on="0"/>
        <pt x="447" y="141" on="0"/>
        <pt x="592" y="141" on="1"/>
        <pt x="685" y="141" on="0"/>
        <pt x="825" y="211" on="0"/>
        <pt x="928" y="328" on="0"/>
        <pt x="996" y="482" on="0"/>
        <pt x="1036" y="650" on="0"/>
        <pt x="1053" y="820" on="0"/>
        <pt x="1053" y="895" on="1"/>
        <pt x="1053" y="987" on="0"/>
        <pt x="1012" y="1126" on="0"/>
        <pt x="934" y="1218" on="0"/>
        <pt x="821" y="1264" on="0"/>
      </contour>
      <contour>
        <pt x="1127" y="1809" on="1"/>
        <pt x="1122" y="1773" on="0"/>
        <pt x="1092" y="1698" on="0"/>
        <pt x="1044" y="1636" on="0"/>
        <pt x="975" y="1596" on="0"/>
        <pt x="931" y="1596" on="1"/>
        <pt x="896" y="1596" on="0"/>
        <pt x="837" y="1616" on="0"/>
        <pt x="782" y="1639" on="0"/>
        <pt x="728" y="1659" on="0"/>
        <pt x="697" y="1659" on="1"/>
        <pt x="669" y="1659" on="0"/>
        <pt x="627" y="1631" on="0"/>
        <pt x="617" y="1596" on="1"/>
        <pt x="500" y="1596" on="1"/>
        <pt x="506" y="1631" on="0"/>
        <pt x="534" y="1707" on="0"/>
        <pt x="582" y="1769" on="0"/>
        <pt x="650" y="1809" on="0"/>
        <pt x="695" y="1809" on="1"/>
        <pt x="729" y="1809" on="0"/>
        <pt x="788" y="1789" on="0"/>
        <pt x="843" y="1765" on="0"/>
        <pt x="898" y="1745" on="0"/>
        <pt x="929" y="1745" on="1"/>
        <pt x="956" y="1745" on="0"/>
        <pt x="999" y="1774" on="0"/>
        <pt x="1008" y="1809" on="1"/>
      </contour>
    </TTGlyph>
    <TTGlyph name="P" xMin="70" yMin="0" xMax="1137" yMax="1405">
      <contour>
        <pt x="332" y="580" on="1"/>
        <pt x="250" y="0" on="1"/>
        <pt x="70" y="0" on="1"/>
        <pt x="268" y="1405" on="1"/>
        <pt x="750" y="1405" on="1"/>
        <pt x="847" y="1405" on="0"/>
        <pt x="993" y="1353" on="0"/>
        <pt x="1089" y="1259" on="0"/>
        <pt x="1137" y="1128" on="0"/>
        <pt x="1137" y="1049" on="1"/>
        <pt x="1137" y="938" on="0"/>
        <pt x="1067" y="763" on="0"/>
        <pt x="942" y="643" on="0"/>
        <pt x="767" y="580" on="0"/>
        <pt x="662" y="580" on="1"/>
      </contour>
      <contour>
        <pt x="424" y="1241" on="1"/>
        <pt x="356" y="743" on="1"/>
        <pt x="680" y="743" on="1"/>
        <pt x="737" y="743" on="0"/>
        <pt x="834" y="781" on="0"/>
        <pt x="905" y="852" on="0"/>
        <pt x="946" y="953" on="0"/>
        <pt x="946" y="1016" on="1"/>
        <pt x="946" y="1067" on="0"/>
        <pt x="919" y="1150" on="0"/>
        <pt x="867" y="1209" on="0"/>
        <pt x="790" y="1241" on="0"/>
        <pt x="739" y="1241" on="1"/>
      </contour>
    </TTGlyph>
    <TTGlyph name="Q" xMin="104" yMin="-254" xMax="1239" yMax="1430">
      <contour>
        <pt x="104" y="506" on="1"/>
        <pt x="104" y="604" on="0"/>
        <pt x="131" y="817" on="0"/>
        <pt x="193" y="1022" on="0"/>
        <pt x="292" y="1207" on="0"/>
        <pt x="436" y="1347" on="0"/>
        <pt x="629" y="1430" on="0"/>
        <pt x="752" y="1430" on="1"/>
        <pt x="867" y="1430" on="0"/>
        <pt x="1048" y="1363" on="0"/>
        <pt x="1173" y="1230" on="0"/>
        <pt x="1239" y="1029" on="0"/>
        <pt x="1239" y="895" on="1"/>
        <pt x="1239" y="812" on="0"/>
        <pt x="1219" y="634" on="0"/>
        <pt x="1176" y="458" on="0"/>
        <pt x="1107" y="292" on="0"/>
        <pt x="1008" y="151" on="0"/>
        <pt x="878" y="41" on="0"/>
        <pt x="795" y="10" on="1"/>
        <pt x="1044" y="-254" on="1"/>
        <pt x="819" y="-254" on="1"/>
        <pt x="606" y="-25" on="1"/>
        <pt x="590" y="-25" on="1"/>
        <pt x="475" y="-25" on="0"/>
        <pt x="294" y="41" on="0"/>
        <pt x="170" y="173" on="0"/>
        <pt x="104" y="372" on="0"/>
      </contour>
      <contour>
        <pt x="750" y="1264" on="1"/>
        <pt x="658" y="1264" on="0"/>
        <pt x="518" y="1195" on="0"/>
        <pt x="415" y="1078" on="0"/>
        <pt x="347" y="925" on="0"/>
        <pt x="306" y="757" on="0"/>
        <pt x="289" y="586" on="0"/>
        <pt x="289" y="510" on="1"/>
        <pt x="289" y="324" on="0"/>
        <pt x="447" y="141" on="0"/>
        <pt x="592" y="141" on="1"/>
        <pt x="685" y="141" on="0"/>
        <pt x="825" y="211" on="0"/>
        <pt x="928" y="328" on="0"/>
        <pt x="996" y="482" on="0"/>
        <pt x="1036" y="650" on="0"/>
        <pt x="1053" y="820" on="0"/>
        <pt x="1053" y="895" on="1"/>
        <pt x="1053" y="987" on="0"/>
        <pt x="1012" y="1126" on="0"/>
        <pt x="934" y="1218" on="0"/>
        <pt x="821" y="1264" on="0"/>
      </contour>
    </TTGlyph>
    <TTGlyph name="R" xMin="70" yMin="0" xMax="1194" yMax="1405">
      <contour>
        <pt x="1194" y="1079" on="1"/>
        <pt x="1194" y="1001" on="0"/>
        <pt x="1152" y="866" on="0"/>
        <pt x="1076" y="756" on="0"/>
        <pt x="966" y="674" on="0"/>
        <pt x="899" y="651" on="1"/>
        <pt x="1087" y="0" on="1"/>
        <pt x="897" y="0" on="1"/>
        <pt x="717" y="621" on="1"/>
        <pt x="338" y="621" on="1"/>
        <pt x="250" y="0" on="1"/>
        <pt x="70" y="0" on="1"/>
        <pt x="268" y="1405" on="1"/>
        <pt x="813" y="1405" on="1"/>
        <pt x="913" y="1405" on="0"/>
        <pt x="1057" y="1358" on="0"/>
        <pt x="1150" y="1272" on="0"/>
        <pt x="1194" y="1152" on="0"/>
      </contour>
      <contour>
        <pt x="424" y="1241" on="1"/>
        <pt x="360" y="784" on="1"/>
        <pt x="723" y="784" on="1"/>
        <pt x="782" y="784" on="0"/>
        <pt x="885" y="823" on="0"/>
        <pt x="962" y="893" on="0"/>
        <pt x="1006" y="992" on="0"/>
        <pt x="1006" y="1051" on="1"/>
        <pt x="1006" y="1142" on="0"/>
        <pt x="895" y="1241" on="0"/>
        <pt x="786" y="1241" on="1"/>
      </contour>
    </TTGlyph>
    <TTGlyph name="Racute" xMin="70" yMin="0" xMax="1194" yMax="1808">
      <contour>
        <pt x="991" y="1802" on="1"/>
        <pt x="770" y="1538" on="1"/>
        <pt x="629" y="1538" on="1"/>
        <pt x="805" y="1808" on="1"/>
        <pt x="989" y="1808" on="1"/>
      </contour>
      <contour>
        <pt x="1194" y="1079" on="1"/>
        <pt x="1194" y="1001" on="0"/>
        <pt x="1152" y="866" on="0"/>
        <pt x="1076" y="756" on="0"/>
        <pt x="966" y="674" on="0"/>
        <pt x="899" y="651" on="1"/>
        <pt x="1087" y="0" on="1"/>
        <pt x="897" y="0" on="1"/>
        <pt x="717" y="621" on="1"/>
        <pt x="338" y="621" on="1"/>
        <pt x="250" y="0" on="1"/>
        <pt x="70" y="0" on="1"/>
        <pt x="268" y="1405" on="1"/>
        <pt x="813" y="1405" on="1"/>
        <pt x="913" y="1405" on="0"/>
        <pt x="1057" y="1358" on="0"/>
        <pt x="1150" y="1272" on="0"/>
        <pt x="1194" y="1152" on="0"/>
      </contour>
      <contour>
        <pt x="424" y="1241" on="1"/>
        <pt x="360" y="784" on="1"/>
        <pt x="723" y="784" on="1"/>
        <pt x="782" y="784" on="0"/>
        <pt x="885" y="823" on="0"/>
        <pt x="962" y="893" on="0"/>
        <pt x="1006" y="992" on="0"/>
        <pt x="1006" y="1051" on="1"/>
        <pt x="1006" y="1142" on="0"/>
        <pt x="895" y="1241" on="0"/>
        <pt x="786" y="1241" on="1"/>
      </contour>
    </TTGlyph>
    <TTGlyph name="Rcaron" xMin="70" yMin="0" xMax="1194" yMax="1808">
      <contour>
        <pt x="811" y="1532" on="1"/>
        <pt x="651" y="1532" on="1"/>
        <pt x="516" y="1808" on="1"/>
        <pt x="680" y="1808" on="1"/>
        <pt x="748" y="1647" on="1"/>
        <pt x="854" y="1808" on="1"/>
        <pt x="1024" y="1808" on="1"/>
      </contour>
      <contour>
        <pt x="1194" y="1079" on="1"/>
        <pt x="1194" y="1001" on="0"/>
        <pt x="1152" y="866" on="0"/>
        <pt x="1076" y="756" on="0"/>
        <pt x="966" y="674" on="0"/>
        <pt x="899" y="651" on="1"/>
        <pt x="1087" y="0" on="1"/>
        <pt x="897" y="0" on="1"/>
        <pt x="717" y="621" on="1"/>
        <pt x="338" y="621" on="1"/>
        <pt x="250" y="0" on="1"/>
        <pt x="70" y="0" on="1"/>
        <pt x="268" y="1405" on="1"/>
        <pt x="813" y="1405" on="1"/>
        <pt x="913" y="1405" on="0"/>
        <pt x="1057" y="1358" on="0"/>
        <pt x="1150" y="1272" on="0"/>
        <pt x="1194" y="1152" on="0"/>
      </contour>
      <contour>
        <pt x="424" y="1241" on="1"/>
        <pt x="360" y="784" on="1"/>
        <pt x="723" y="784" on="1"/>
        <pt x="782" y="784" on="0"/>
        <pt x="885" y="823" on="0"/>
        <pt x="962" y="893" on="0"/>
        <pt x="1006" y="992" on="0"/>
        <pt x="1006" y="1051" on="1"/>
        <pt x="1006" y="1142" on="0"/>
        <pt x="895" y="1241" on="0"/>
        <pt x="786" y="1241" on="1"/>
      </contour>
    </TTGlyph>
    <TTGlyph name="Rcommaaccent" xMin="70" yMin="-451" xMax="1194" yMax="1405">
      <contour>
        <pt x="659" y="-295" on="1"/>
        <pt x="588" y="-451" on="1"/>
        <pt x="489" y="-451" on="1"/>
        <pt x="555" y="-309" on="1"/>
        <pt x="483" y="-309" on="1"/>
        <pt x="512" y="-123" on="1"/>
        <pt x="684" y="-123" on="1"/>
      </contour>
      <contour>
        <pt x="1194" y="1079" on="1"/>
        <pt x="1194" y="1001" on="0"/>
        <pt x="1152" y="866" on="0"/>
        <pt x="1076" y="756" on="0"/>
        <pt x="966" y="674" on="0"/>
        <pt x="899" y="651" on="1"/>
        <pt x="1087" y="0" on="1"/>
        <pt x="897" y="0" on="1"/>
        <pt x="717" y="621" on="1"/>
        <pt x="338" y="621" on="1"/>
        <pt x="250" y="0" on="1"/>
        <pt x="70" y="0" on="1"/>
        <pt x="268" y="1405" on="1"/>
        <pt x="813" y="1405" on="1"/>
        <pt x="913" y="1405" on="0"/>
        <pt x="1057" y="1358" on="0"/>
        <pt x="1150" y="1272" on="0"/>
        <pt x="1194" y="1152" on="0"/>
      </contour>
      <contour>
        <pt x="424" y="1241" on="1"/>
        <pt x="360" y="784" on="1"/>
        <pt x="723" y="784" on="1"/>
        <pt x="782" y="784" on="0"/>
        <pt x="885" y="823" on="0"/>
        <pt x="962" y="893" on="0"/>
        <pt x="1006" y="992" on="0"/>
        <pt x="1006" y="1051" on="1"/>
        <pt x="1006" y="1142" on="0"/>
        <pt x="895" y="1241" on="0"/>
        <pt x="786" y="1241" on="1"/>
      </contour>
    </TTGlyph>
    <TTGlyph name="S" xMin="68" yMin="-25" xMax="1077" yMax="1430">
      <contour>
        <pt x="643" y="1430" on="1"/>
        <pt x="764" y="1430" on="0"/>
        <pt x="930" y="1363" on="0"/>
        <pt x="1032" y="1246" on="0"/>
        <pt x="1077" y="1086" on="0"/>
        <pt x="1077" y="993" on="1"/>
        <pt x="891" y="993" on="1"/>
        <pt x="891" y="1081" on="0"/>
        <pt x="843" y="1187" on="0"/>
        <pt x="768" y="1245" on="0"/>
        <pt x="676" y="1264" on="0"/>
        <pt x="633" y="1264" on="1"/>
        <pt x="606" y="1264" on="0"/>
        <pt x="524" y="1251" on="0"/>
        <pt x="448" y="1207" on="0"/>
        <pt x="393" y="1122" on="0"/>
        <pt x="393" y="1049" on="1"/>
        <pt x="393" y="994" on="0"/>
        <pt x="446" y="917" on="0"/>
        <pt x="531" y="859" on="0"/>
        <pt x="641" y="811" on="0"/>
        <pt x="756" y="761" on="0"/>
        <pt x="866" y="700" on="0"/>
        <pt x="951" y="615" on="0"/>
        <pt x="1004" y="498" on="0"/>
        <pt x="1004" y="416" on="1"/>
        <pt x="1004" y="369" on="0"/>
        <pt x="986" y="267" on="0"/>
        <pt x="942" y="169" on="0"/>
        <pt x="869" y="81" on="0"/>
        <pt x="759" y="14" on="0"/>
        <pt x="609" y="-25" on="0"/>
        <pt x="510" y="-25" on="1"/>
        <pt x="409" y="-25" on="0"/>
        <pt x="246" y="29" on="0"/>
        <pt x="131" y="134" on="0"/>
        <pt x="68" y="287" on="0"/>
        <pt x="68" y="385" on="1"/>
        <pt x="68" y="408" on="0"/>
        <pt x="69" y="454" on="0"/>
        <pt x="74" y="479" on="1"/>
        <pt x="260" y="479" on="1"/>
        <pt x="255" y="453" on="0"/>
        <pt x="250" y="405" on="0"/>
        <pt x="250" y="383" on="1"/>
        <pt x="250" y="320" on="0"/>
        <pt x="288" y="229" on="0"/>
        <pt x="360" y="169" on="0"/>
        <pt x="461" y="141" on="0"/>
        <pt x="524" y="141" on="1"/>
        <pt x="566" y="141" on="0"/>
        <pt x="667" y="163" on="0"/>
        <pt x="755" y="218" on="0"/>
        <pt x="815" y="314" on="0"/>
        <pt x="815" y="389" on="1"/>
        <pt x="815" y="447" on="0"/>
        <pt x="763" y="529" on="0"/>
        <pt x="677" y="593" on="0"/>
        <pt x="568" y="643" on="0"/>
        <pt x="454" y="695" on="0"/>
        <pt x="345" y="756" on="0"/>
        <pt x="259" y="838" on="0"/>
        <pt x="207" y="950" on="0"/>
        <pt x="207" y="1028" on="1"/>
        <pt x="207" y="1125" on="0"/>
        <pt x="266" y="1275" on="0"/>
        <pt x="378" y="1377" on="0"/>
        <pt x="540" y="1430" on="0"/>
      </contour>
    </TTGlyph>
    <TTGlyph name="Sacute" xMin="68" yMin="-25" xMax="1077" yMax="1809">
      <contour>
        <pt x="643" y="1430" on="1"/>
        <pt x="764" y="1430" on="0"/>
        <pt x="930" y="1363" on="0"/>
        <pt x="1032" y="1246" on="0"/>
        <pt x="1077" y="1086" on="0"/>
        <pt x="1077" y="993" on="1"/>
        <pt x="891" y="993" on="1"/>
        <pt x="891" y="1081" on="0"/>
        <pt x="843" y="1187" on="0"/>
        <pt x="768" y="1245" on="0"/>
        <pt x="676" y="1264" on="0"/>
        <pt x="633" y="1264" on="1"/>
        <pt x="606" y="1264" on="0"/>
        <pt x="524" y="1251" on="0"/>
        <pt x="448" y="1207" on="0"/>
        <pt x="393" y="1122" on="0"/>
        <pt x="393" y="1049" on="1"/>
        <pt x="393" y="994" on="0"/>
        <pt x="446" y="917" on="0"/>
        <pt x="531" y="859" on="0"/>
        <pt x="641" y="811" on="0"/>
        <pt x="756" y="761" on="0"/>
        <pt x="866" y="700" on="0"/>
        <pt x="951" y="615" on="0"/>
        <pt x="1004" y="498" on="0"/>
        <pt x="1004" y="416" on="1"/>
        <pt x="1004" y="369" on="0"/>
        <pt x="986" y="267" on="0"/>
        <pt x="942" y="169" on="0"/>
        <pt x="869" y="81" on="0"/>
        <pt x="759" y="14" on="0"/>
        <pt x="609" y="-25" on="0"/>
        <pt x="510" y="-25" on="1"/>
        <pt x="409" y="-25" on="0"/>
        <pt x="246" y="29" on="0"/>
        <pt x="131" y="134" on="0"/>
        <pt x="68" y="287" on="0"/>
        <pt x="68" y="385" on="1"/>
        <pt x="68" y="408" on="0"/>
        <pt x="69" y="454" on="0"/>
        <pt x="74" y="479" on="1"/>
        <pt x="260" y="479" on="1"/>
        <pt x="255" y="453" on="0"/>
        <pt x="250" y="405" on="0"/>
        <pt x="250" y="383" on="1"/>
        <pt x="250" y="320" on="0"/>
        <pt x="288" y="229" on="0"/>
        <pt x="360" y="169" on="0"/>
        <pt x="461" y="141" on="0"/>
        <pt x="524" y="141" on="1"/>
        <pt x="566" y="141" on="0"/>
        <pt x="667" y="163" on="0"/>
        <pt x="755" y="218" on="0"/>
        <pt x="815" y="314" on="0"/>
        <pt x="815" y="389" on="1"/>
        <pt x="815" y="447" on="0"/>
        <pt x="763" y="529" on="0"/>
        <pt x="677" y="593" on="0"/>
        <pt x="568" y="643" on="0"/>
        <pt x="454" y="695" on="0"/>
        <pt x="345" y="756" on="0"/>
        <pt x="259" y="838" on="0"/>
        <pt x="207" y="950" on="0"/>
        <pt x="207" y="1028" on="1"/>
        <pt x="207" y="1125" on="0"/>
        <pt x="266" y="1275" on="0"/>
        <pt x="378" y="1377" on="0"/>
        <pt x="540" y="1430" on="0"/>
      </contour>
      <contour>
        <pt x="969" y="1803" on="1"/>
        <pt x="748" y="1538" on="1"/>
        <pt x="606" y="1538" on="1"/>
        <pt x="782" y="1809" on="1"/>
        <pt x="967" y="1809" on="1"/>
      </contour>
    </TTGlyph>
    <TTGlyph name="Scaron" xMin="68" yMin="-25" xMax="1077" yMax="1809">
      <contour>
        <pt x="643" y="1430" on="1"/>
        <pt x="764" y="1430" on="0"/>
        <pt x="930" y="1363" on="0"/>
        <pt x="1032" y="1246" on="0"/>
        <pt x="1077" y="1086" on="0"/>
        <pt x="1077" y="993" on="1"/>
        <pt x="891" y="993" on="1"/>
        <pt x="891" y="1081" on="0"/>
        <pt x="843" y="1187" on="0"/>
        <pt x="768" y="1245" on="0"/>
        <pt x="676" y="1264" on="0"/>
        <pt x="633" y="1264" on="1"/>
        <pt x="606" y="1264" on="0"/>
        <pt x="524" y="1251" on="0"/>
        <pt x="448" y="1207" on="0"/>
        <pt x="393" y="1122" on="0"/>
        <pt x="393" y="1049" on="1"/>
        <pt x="393" y="994" on="0"/>
        <pt x="446" y="917" on="0"/>
        <pt x="531" y="859" on="0"/>
        <pt x="641" y="811" on="0"/>
        <pt x="756" y="761" on="0"/>
        <pt x="866" y="700" on="0"/>
        <pt x="951" y="615" on="0"/>
        <pt x="1004" y="498" on="0"/>
        <pt x="1004" y="416" on="1"/>
        <pt x="1004" y="369" on="0"/>
        <pt x="986" y="267" on="0"/>
        <pt x="942" y="169" on="0"/>
        <pt x="869" y="81" on="0"/>
        <pt x="759" y="14" on="0"/>
        <pt x="609" y="-25" on="0"/>
        <pt x="510" y="-25" on="1"/>
        <pt x="409" y="-25" on="0"/>
        <pt x="246" y="29" on="0"/>
        <pt x="131" y="134" on="0"/>
        <pt x="68" y="287" on="0"/>
        <pt x="68" y="385" on="1"/>
        <pt x="68" y="408" on="0"/>
        <pt x="69" y="454" on="0"/>
        <pt x="74" y="479" on="1"/>
        <pt x="260" y="479" on="1"/>
        <pt x="255" y="453" on="0"/>
        <pt x="250" y="405" on="0"/>
        <pt x="250" y="383" on="1"/>
        <pt x="250" y="320" on="0"/>
        <pt x="288" y="229" on="0"/>
        <pt x="360" y="169" on="0"/>
        <pt x="461" y="141" on="0"/>
        <pt x="524" y="141" on="1"/>
        <pt x="566" y="141" on="0"/>
        <pt x="667" y="163" on="0"/>
        <pt x="755" y="218" on="0"/>
        <pt x="815" y="314" on="0"/>
        <pt x="815" y="389" on="1"/>
        <pt x="815" y="447" on="0"/>
        <pt x="763" y="529" on="0"/>
        <pt x="677" y="593" on="0"/>
        <pt x="568" y="643" on="0"/>
        <pt x="454" y="695" on="0"/>
        <pt x="345" y="756" on="0"/>
        <pt x="259" y="838" on="0"/>
        <pt x="207" y="950" on="0"/>
        <pt x="207" y="1028" on="1"/>
        <pt x="207" y="1125" on="0"/>
        <pt x="266" y="1275" on="0"/>
        <pt x="378" y="1377" on="0"/>
        <pt x="540" y="1430" on="0"/>
      </contour>
      <contour>
        <pt x="788" y="1532" on="1"/>
        <pt x="629" y="1532" on="1"/>
        <pt x="494" y="1809" on="1"/>
        <pt x="657" y="1809" on="1"/>
        <pt x="725" y="1647" on="1"/>
        <pt x="833" y="1809" on="1"/>
        <pt x="1003" y="1809" on="1"/>
      </contour>
    </TTGlyph>
    <TTGlyph name="Scedilla" xMin="68" yMin="-373" xMax="1077" yMax="1430">
      <contour>
        <pt x="891" y="993" on="1"/>
        <pt x="891" y="1081" on="0"/>
        <pt x="843" y="1187" on="0"/>
        <pt x="768" y="1245" on="0"/>
        <pt x="676" y="1264" on="0"/>
        <pt x="633" y="1264" on="1"/>
        <pt x="606" y="1264" on="0"/>
        <pt x="524" y="1251" on="0"/>
        <pt x="448" y="1207" on="0"/>
        <pt x="393" y="1122" on="0"/>
        <pt x="393" y="1049" on="1"/>
        <pt x="393" y="994" on="0"/>
        <pt x="446" y="917" on="0"/>
        <pt x="531" y="859" on="0"/>
        <pt x="641" y="811" on="0"/>
        <pt x="756" y="761" on="0"/>
        <pt x="866" y="700" on="0"/>
        <pt x="951" y="615" on="0"/>
        <pt x="1004" y="498" on="0"/>
        <pt x="1004" y="416" on="1"/>
        <pt x="1004" y="370" on="0"/>
        <pt x="987" y="272" on="0"/>
        <pt x="946" y="176" on="0"/>
        <pt x="878" y="90" on="0"/>
        <pt x="776" y="22" on="0"/>
        <pt x="638" y="-20" on="0"/>
        <pt x="547" y="-24" on="1"/>
        <pt x="532" y="-74" on="1"/>
        <pt x="562" y="-76" on="0"/>
        <pt x="616" y="-90" on="0"/>
        <pt x="658" y="-116" on="0"/>
        <pt x="682" y="-156" on="0"/>
        <pt x="682" y="-184" on="1"/>
        <pt x="682" y="-243" on="0"/>
        <pt x="631" y="-317" on="0"/>
        <pt x="558" y="-358" on="0"/>
        <pt x="475" y="-373" on="0"/>
        <pt x="444" y="-373" on="1"/>
        <pt x="401" y="-373" on="0"/>
        <pt x="309" y="-364" on="0"/>
        <pt x="274" y="-356" on="1"/>
        <pt x="288" y="-256" on="1"/>
        <pt x="444" y="-256" on="1"/>
        <pt x="481" y="-256" on="0"/>
        <pt x="526" y="-232" on="0"/>
        <pt x="526" y="-195" on="1"/>
        <pt x="526" y="-176" on="0"/>
        <pt x="497" y="-158" on="0"/>
        <pt x="463" y="-158" on="1"/>
        <pt x="395" y="-158" on="1"/>
        <pt x="435" y="-21" on="1"/>
        <pt x="351" y="-11" on="0"/>
        <pt x="215" y="51" on="0"/>
        <pt x="119" y="154" on="0"/>
        <pt x="68" y="296" on="0"/>
        <pt x="68" y="385" on="1"/>
        <pt x="68" y="408" on="0"/>
        <pt x="69" y="454" on="0"/>
        <pt x="74" y="479" on="1"/>
        <pt x="260" y="479" on="1"/>
        <pt x="255" y="453" on="0"/>
        <pt x="250" y="405" on="0"/>
        <pt x="250" y="383" on="1"/>
        <pt x="250" y="320" on="0"/>
        <pt x="288" y="229" on="0"/>
        <pt x="360" y="169" on="0"/>
        <pt x="461" y="141" on="0"/>
        <pt x="524" y="141" on="1"/>
        <pt x="566" y="141" on="0"/>
        <pt x="667" y="163" on="0"/>
        <pt x="755" y="218" on="0"/>
        <pt x="815" y="314" on="0"/>
        <pt x="815" y="389" on="1"/>
        <pt x="815" y="447" on="0"/>
        <pt x="763" y="529" on="0"/>
        <pt x="677" y="593" on="0"/>
        <pt x="568" y="643" on="0"/>
        <pt x="454" y="695" on="0"/>
        <pt x="345" y="756" on="0"/>
        <pt x="259" y="838" on="0"/>
        <pt x="207" y="950" on="0"/>
        <pt x="207" y="1028" on="1"/>
        <pt x="207" y="1125" on="0"/>
        <pt x="266" y="1275" on="0"/>
        <pt x="378" y="1377" on="0"/>
        <pt x="540" y="1430" on="0"/>
        <pt x="643" y="1430" on="1"/>
        <pt x="764" y="1430" on="0"/>
        <pt x="930" y="1363" on="0"/>
        <pt x="1032" y="1246" on="0"/>
        <pt x="1077" y="1086" on="0"/>
        <pt x="1077" y="993" on="1"/>
      </contour>
    </TTGlyph>
    <TTGlyph name="Scircumflex" xMin="68" yMin="-25" xMax="1077" yMax="1809">
      <contour>
        <pt x="643" y="1430" on="1"/>
        <pt x="764" y="1430" on="0"/>
        <pt x="930" y="1363" on="0"/>
        <pt x="1032" y="1246" on="0"/>
        <pt x="1077" y="1086" on="0"/>
        <pt x="1077" y="993" on="1"/>
        <pt x="891" y="993" on="1"/>
        <pt x="891" y="1081" on="0"/>
        <pt x="843" y="1187" on="0"/>
        <pt x="768" y="1245" on="0"/>
        <pt x="676" y="1264" on="0"/>
        <pt x="633" y="1264" on="1"/>
        <pt x="606" y="1264" on="0"/>
        <pt x="524" y="1251" on="0"/>
        <pt x="448" y="1207" on="0"/>
        <pt x="393" y="1122" on="0"/>
        <pt x="393" y="1049" on="1"/>
        <pt x="393" y="994" on="0"/>
        <pt x="446" y="917" on="0"/>
        <pt x="531" y="859" on="0"/>
        <pt x="641" y="811" on="0"/>
        <pt x="756" y="761" on="0"/>
        <pt x="866" y="700" on="0"/>
        <pt x="951" y="615" on="0"/>
        <pt x="1004" y="498" on="0"/>
        <pt x="1004" y="416" on="1"/>
        <pt x="1004" y="369" on="0"/>
        <pt x="986" y="267" on="0"/>
        <pt x="942" y="169" on="0"/>
        <pt x="869" y="81" on="0"/>
        <pt x="759" y="14" on="0"/>
        <pt x="609" y="-25" on="0"/>
        <pt x="510" y="-25" on="1"/>
        <pt x="409" y="-25" on="0"/>
        <pt x="246" y="29" on="0"/>
        <pt x="131" y="134" on="0"/>
        <pt x="68" y="287" on="0"/>
        <pt x="68" y="385" on="1"/>
        <pt x="68" y="408" on="0"/>
        <pt x="69" y="454" on="0"/>
        <pt x="74" y="479" on="1"/>
        <pt x="260" y="479" on="1"/>
        <pt x="255" y="453" on="0"/>
        <pt x="250" y="405" on="0"/>
        <pt x="250" y="383" on="1"/>
        <pt x="250" y="320" on="0"/>
        <pt x="288" y="229" on="0"/>
        <pt x="360" y="169" on="0"/>
        <pt x="461" y="141" on="0"/>
        <pt x="524" y="141" on="1"/>
        <pt x="566" y="141" on="0"/>
        <pt x="667" y="163" on="0"/>
        <pt x="755" y="218" on="0"/>
        <pt x="815" y="314" on="0"/>
        <pt x="815" y="389" on="1"/>
        <pt x="815" y="447" on="0"/>
        <pt x="763" y="529" on="0"/>
        <pt x="677" y="593" on="0"/>
        <pt x="568" y="643" on="0"/>
        <pt x="454" y="695" on="0"/>
        <pt x="345" y="756" on="0"/>
        <pt x="259" y="838" on="0"/>
        <pt x="207" y="950" on="0"/>
        <pt x="207" y="1028" on="1"/>
        <pt x="207" y="1125" on="0"/>
        <pt x="266" y="1275" on="0"/>
        <pt x="378" y="1377" on="0"/>
        <pt x="540" y="1430" on="0"/>
      </contour>
      <contour>
        <pt x="960" y="1532" on="1"/>
        <pt x="802" y="1532" on="1"/>
        <pt x="735" y="1694" on="1"/>
        <pt x="620" y="1532" on="1"/>
        <pt x="450" y="1532" on="1"/>
        <pt x="665" y="1809" on="1"/>
        <pt x="825" y="1809" on="1"/>
      </contour>
    </TTGlyph>
    <TTGlyph name="T" xMin="131" yMin="0" xMax="1102" yMax="1405">
      <contour>
        <pt x="156" y="1405" on="1"/>
        <pt x="1102" y="1405" on="1"/>
        <pt x="1077" y="1241" on="1"/>
        <pt x="694" y="1241" on="1"/>
        <pt x="520" y="0" on="1"/>
        <pt x="340" y="0" on="1"/>
        <pt x="514" y="1241" on="1"/>
        <pt x="131" y="1241" on="1"/>
      </contour>
    </TTGlyph>
    <TTGlyph name="Tbar" xMin="131" yMin="0" xMax="1102" yMax="1405">
      <contour>
        <pt x="633" y="805" on="1"/>
        <pt x="899" y="805" on="1"/>
        <pt x="879" y="657" on="1"/>
        <pt x="612" y="657" on="1"/>
        <pt x="520" y="0" on="1"/>
        <pt x="340" y="0" on="1"/>
        <pt x="432" y="657" on="1"/>
        <pt x="188" y="657" on="1"/>
        <pt x="211" y="805" on="1"/>
        <pt x="453" y="805" on="1"/>
        <pt x="514" y="1241" on="1"/>
        <pt x="131" y="1241" on="1"/>
        <pt x="156" y="1405" on="1"/>
        <pt x="1102" y="1405" on="1"/>
        <pt x="1077" y="1241" on="1"/>
        <pt x="694" y="1241" on="1"/>
      </contour>
    </TTGlyph>
    <TTGlyph name="Tcaron" xMin="131" yMin="0" xMax="1102" yMax="1808">
      <contour>
        <pt x="723" y="1532" on="1"/>
        <pt x="563" y="1532" on="1"/>
        <pt x="428" y="1808" on="1"/>
        <pt x="592" y="1808" on="1"/>
        <pt x="659" y="1647" on="1"/>
        <pt x="768" y="1808" on="1"/>
        <pt x="938" y="1808" on="1"/>
      </contour>
      <contour>
        <pt x="156" y="1405" on="1"/>
        <pt x="1102" y="1405" on="1"/>
        <pt x="1077" y="1241" on="1"/>
        <pt x="694" y="1241" on="1"/>
        <pt x="520" y="0" on="1"/>
        <pt x="340" y="0" on="1"/>
        <pt x="514" y="1241" on="1"/>
        <pt x="131" y="1241" on="1"/>
      </contour>
    </TTGlyph>
    <TTGlyph name="Tcommaaccent" xMin="131" yMin="-451" xMax="1102" yMax="1405">
      <contour>
        <pt x="477" y="-295" on="1"/>
        <pt x="406" y="-451" on="1"/>
        <pt x="307" y="-451" on="1"/>
        <pt x="373" y="-309" on="1"/>
        <pt x="301" y="-309" on="1"/>
        <pt x="330" y="-123" on="1"/>
        <pt x="504" y="-123" on="1"/>
      </contour>
      <contour>
        <pt x="156" y="1405" on="1"/>
        <pt x="1102" y="1405" on="1"/>
        <pt x="1077" y="1241" on="1"/>
        <pt x="694" y="1241" on="1"/>
        <pt x="520" y="0" on="1"/>
        <pt x="340" y="0" on="1"/>
        <pt x="514" y="1241" on="1"/>
        <pt x="131" y="1241" on="1"/>
      </contour>
    </TTGlyph>
    <TTGlyph name="Thorn" xMin="70" yMin="0" xMax="1098" yMax="1405">
      <contour>
        <pt x="410" y="1128" on="1"/>
        <pt x="711" y="1128" on="1"/>
        <pt x="808" y="1128" on="0"/>
        <pt x="954" y="1078" on="0"/>
        <pt x="1050" y="986" on="0"/>
        <pt x="1098" y="857" on="0"/>
        <pt x="1098" y="778" on="1"/>
        <pt x="1098" y="667" on="0"/>
        <pt x="1027" y="489" on="0"/>
        <pt x="899" y="365" on="0"/>
        <pt x="721" y="299" on="0"/>
        <pt x="614" y="299" on="1"/>
        <pt x="293" y="299" on="1"/>
        <pt x="250" y="0" on="1"/>
        <pt x="70" y="0" on="1"/>
        <pt x="268" y="1405" on="1"/>
        <pt x="449" y="1405" on="1"/>
      </contour>
      <contour>
        <pt x="387" y="965" on="1"/>
        <pt x="315" y="463" on="1"/>
        <pt x="633" y="463" on="1"/>
        <pt x="691" y="463" on="0"/>
        <pt x="791" y="503" on="0"/>
        <pt x="865" y="576" on="0"/>
        <pt x="907" y="680" on="0"/>
        <pt x="907" y="745" on="1"/>
        <pt x="907" y="848" on="0"/>
        <pt x="803" y="965" on="0"/>
        <pt x="700" y="965" on="1"/>
      </contour>
    </TTGlyph>
    <TTGlyph name="U" xMin="117" yMin="-25" xMax="1186" yMax="1405">
      <contour>
        <pt x="1051" y="457" on="1"/>
        <pt x="1034" y="338" on="0"/>
        <pt x="949" y="158" on="0"/>
        <pt x="819" y="37" on="0"/>
        <pt x="646" y="-25" on="0"/>
        <pt x="541" y="-25" on="1"/>
        <pt x="339" y="-25" on="0"/>
        <pt x="117" y="168" on="0"/>
        <pt x="117" y="354" on="1"/>
        <pt x="117" y="372" on="0"/>
        <pt x="129" y="481" on="0"/>
        <pt x="149" y="635" on="0"/>
        <pt x="174" y="821" on="0"/>
        <pt x="188" y="915" on="1"/>
        <pt x="220" y="1136" on="0"/>
        <pt x="260" y="1405" on="1"/>
        <pt x="440" y="1405" on="1"/>
        <pt x="400" y="1130" on="0"/>
        <pt x="369" y="909" on="1"/>
        <pt x="356" y="815" on="0"/>
        <pt x="331" y="632" on="0"/>
        <pt x="311" y="484" on="0"/>
        <pt x="299" y="387" on="0"/>
        <pt x="299" y="379" on="1"/>
        <pt x="299" y="261" on="0"/>
        <pt x="427" y="141" on="0"/>
        <pt x="545" y="141" on="1"/>
        <pt x="677" y="141" on="0"/>
        <pt x="849" y="297" on="0"/>
        <pt x="870" y="446" on="1"/>
        <pt x="1006" y="1405" on="1"/>
        <pt x="1186" y="1405" on="1"/>
      </contour>
    </TTGlyph>
    <TTGlyph name="Uacute" xMin="117" yMin="-25" xMax="1186" yMax="1809">
      <contour>
        <pt x="1051" y="457" on="1"/>
        <pt x="1034" y="338" on="0"/>
        <pt x="949" y="158" on="0"/>
        <pt x="819" y="37" on="0"/>
        <pt x="646" y="-25" on="0"/>
        <pt x="541" y="-25" on="1"/>
        <pt x="339" y="-25" on="0"/>
        <pt x="117" y="168" on="0"/>
        <pt x="117" y="354" on="1"/>
        <pt x="117" y="372" on="0"/>
        <pt x="129" y="481" on="0"/>
        <pt x="149" y="635" on="0"/>
        <pt x="174" y="821" on="0"/>
        <pt x="188" y="915" on="1"/>
        <pt x="220" y="1136" on="0"/>
        <pt x="260" y="1405" on="1"/>
        <pt x="440" y="1405" on="1"/>
        <pt x="400" y="1130" on="0"/>
        <pt x="369" y="909" on="1"/>
        <pt x="356" y="815" on="0"/>
        <pt x="331" y="632" on="0"/>
        <pt x="311" y="484" on="0"/>
        <pt x="299" y="387" on="0"/>
        <pt x="299" y="379" on="1"/>
        <pt x="299" y="261" on="0"/>
        <pt x="427" y="141" on="0"/>
        <pt x="545" y="141" on="1"/>
        <pt x="677" y="141" on="0"/>
        <pt x="849" y="297" on="0"/>
        <pt x="870" y="446" on="1"/>
        <pt x="1006" y="1405" on="1"/>
        <pt x="1186" y="1405" on="1"/>
      </contour>
      <contour>
        <pt x="997" y="1803" on="1"/>
        <pt x="776" y="1538" on="1"/>
        <pt x="634" y="1538" on="1"/>
        <pt x="810" y="1809" on="1"/>
        <pt x="995" y="1809" on="1"/>
      </contour>
    </TTGlyph>
    <TTGlyph name="Ubreve" xMin="117" yMin="-25" xMax="1186" yMax="1809">
      <contour>
        <pt x="1051" y="457" on="1"/>
        <pt x="1034" y="338" on="0"/>
        <pt x="949" y="158" on="0"/>
        <pt x="819" y="37" on="0"/>
        <pt x="646" y="-25" on="0"/>
        <pt x="541" y="-25" on="1"/>
        <pt x="339" y="-25" on="0"/>
        <pt x="117" y="168" on="0"/>
        <pt x="117" y="354" on="1"/>
        <pt x="117" y="372" on="0"/>
        <pt x="129" y="481" on="0"/>
        <pt x="149" y="635" on="0"/>
        <pt x="174" y="821" on="0"/>
        <pt x="188" y="915" on="1"/>
        <pt x="220" y="1136" on="0"/>
        <pt x="260" y="1405" on="1"/>
        <pt x="440" y="1405" on="1"/>
        <pt x="400" y="1130" on="0"/>
        <pt x="369" y="909" on="1"/>
        <pt x="356" y="815" on="0"/>
        <pt x="331" y="632" on="0"/>
        <pt x="311" y="484" on="0"/>
        <pt x="299" y="387" on="0"/>
        <pt x="299" y="379" on="1"/>
        <pt x="299" y="261" on="0"/>
        <pt x="427" y="141" on="0"/>
        <pt x="545" y="141" on="1"/>
        <pt x="677" y="141" on="0"/>
        <pt x="849" y="297" on="0"/>
        <pt x="870" y="446" on="1"/>
        <pt x="1006" y="1405" on="1"/>
        <pt x="1186" y="1405" on="1"/>
      </contour>
      <contour>
        <pt x="1033" y="1809" on="1"/>
        <pt x="1028" y="1774" on="0"/>
        <pt x="985" y="1704" on="0"/>
        <pt x="914" y="1646" on="0"/>
        <pt x="819" y="1610" on="0"/>
        <pt x="762" y="1610" on="1"/>
        <pt x="705" y="1610" on="0"/>
        <pt x="617" y="1641" on="0"/>
        <pt x="557" y="1692" on="0"/>
        <pt x="525" y="1757" on="0"/>
        <pt x="525" y="1790" on="1"/>
        <pt x="525" y="1799" on="1"/>
        <pt x="525" y="1804" on="0"/>
        <pt x="527" y="1809" on="1"/>
        <pt x="658" y="1809" on="1"/>
        <pt x="659" y="1798" on="0"/>
        <pt x="675" y="1774" on="0"/>
        <pt x="704" y="1754" on="0"/>
        <pt x="745" y="1741" on="0"/>
        <pt x="771" y="1741" on="1"/>
        <pt x="797" y="1741" on="0"/>
        <pt x="842" y="1754" on="0"/>
        <pt x="876" y="1774" on="0"/>
        <pt x="899" y="1798" on="0"/>
        <pt x="902" y="1809" on="1"/>
      </contour>
    </TTGlyph>
    <TTGlyph name="Ucircumflex" xMin="117" yMin="-25" xMax="1186" yMax="1809">
      <contour>
        <pt x="1051" y="457" on="1"/>
        <pt x="1034" y="338" on="0"/>
        <pt x="949" y="158" on="0"/>
        <pt x="819" y="37" on="0"/>
        <pt x="646" y="-25" on="0"/>
        <pt x="541" y="-25" on="1"/>
        <pt x="339" y="-25" on="0"/>
        <pt x="117" y="168" on="0"/>
        <pt x="117" y="354" on="1"/>
        <pt x="117" y="372" on="0"/>
        <pt x="129" y="481" on="0"/>
        <pt x="149" y="635" on="0"/>
        <pt x="174" y="821" on="0"/>
        <pt x="188" y="915" on="1"/>
        <pt x="220" y="1136" on="0"/>
        <pt x="260" y="1405" on="1"/>
        <pt x="440" y="1405" on="1"/>
        <pt x="400" y="1130" on="0"/>
        <pt x="369" y="909" on="1"/>
        <pt x="356" y="815" on="0"/>
        <pt x="331" y="632" on="0"/>
        <pt x="311" y="484" on="0"/>
        <pt x="299" y="387" on="0"/>
        <pt x="299" y="379" on="1"/>
        <pt x="299" y="261" on="0"/>
        <pt x="427" y="141" on="0"/>
        <pt x="545" y="141" on="1"/>
        <pt x="677" y="141" on="0"/>
        <pt x="849" y="297" on="0"/>
        <pt x="870" y="446" on="1"/>
        <pt x="1006" y="1405" on="1"/>
        <pt x="1186" y="1405" on="1"/>
      </contour>
      <contour>
        <pt x="988" y="1532" on="1"/>
        <pt x="830" y="1532" on="1"/>
        <pt x="763" y="1694" on="1"/>
        <pt x="648" y="1532" on="1"/>
        <pt x="478" y="1532" on="1"/>
        <pt x="693" y="1809" on="1"/>
        <pt x="853" y="1809" on="1"/>
      </contour>
    </TTGlyph>
    <TTGlyph name="Udieresis" xMin="117" yMin="-25" xMax="1186" yMax="1809">
      <contour>
        <pt x="1051" y="457" on="1"/>
        <pt x="1034" y="338" on="0"/>
        <pt x="949" y="158" on="0"/>
        <pt x="819" y="37" on="0"/>
        <pt x="646" y="-25" on="0"/>
        <pt x="541" y="-25" on="1"/>
        <pt x="339" y="-25" on="0"/>
        <pt x="117" y="168" on="0"/>
        <pt x="117" y="354" on="1"/>
        <pt x="117" y="372" on="0"/>
        <pt x="129" y="481" on="0"/>
        <pt x="149" y="635" on="0"/>
        <pt x="174" y="821" on="0"/>
        <pt x="188" y="915" on="1"/>
        <pt x="220" y="1136" on="0"/>
        <pt x="260" y="1405" on="1"/>
        <pt x="440" y="1405" on="1"/>
        <pt x="400" y="1130" on="0"/>
        <pt x="369" y="909" on="1"/>
        <pt x="356" y="815" on="0"/>
        <pt x="331" y="632" on="0"/>
        <pt x="311" y="484" on="0"/>
        <pt x="299" y="387" on="0"/>
        <pt x="299" y="379" on="1"/>
        <pt x="299" y="261" on="0"/>
        <pt x="427" y="141" on="0"/>
        <pt x="545" y="141" on="1"/>
        <pt x="677" y="141" on="0"/>
        <pt x="849" y="297" on="0"/>
        <pt x="870" y="446" on="1"/>
        <pt x="1006" y="1405" on="1"/>
        <pt x="1186" y="1405" on="1"/>
      </contour>
      <contour>
        <pt x="998" y="1614" on="1"/>
        <pt x="820" y="1614" on="1"/>
        <pt x="847" y="1809" on="1"/>
        <pt x="1025" y="1809" on="1"/>
      </contour>
      <contour>
        <pt x="691" y="1614" on="1"/>
        <pt x="513" y="1614" on="1"/>
        <pt x="540" y="1809" on="1"/>
        <pt x="718" y="1809" on="1"/>
      </contour>
    </TTGlyph>
    <TTGlyph name="Ugrave" xMin="117" yMin="-25" xMax="1186" yMax="1809">
      <contour>
        <pt x="1051" y="457" on="1"/>
        <pt x="1034" y="338" on="0"/>
        <pt x="949" y="158" on="0"/>
        <pt x="819" y="37" on="0"/>
        <pt x="646" y="-25" on="0"/>
        <pt x="541" y="-25" on="1"/>
        <pt x="339" y="-25" on="0"/>
        <pt x="117" y="168" on="0"/>
        <pt x="117" y="354" on="1"/>
        <pt x="117" y="372" on="0"/>
        <pt x="129" y="481" on="0"/>
        <pt x="149" y="635" on="0"/>
        <pt x="174" y="821" on="0"/>
        <pt x="188" y="915" on="1"/>
        <pt x="220" y="1136" on="0"/>
        <pt x="260" y="1405" on="1"/>
        <pt x="440" y="1405" on="1"/>
        <pt x="400" y="1130" on="0"/>
        <pt x="369" y="909" on="1"/>
        <pt x="356" y="815" on="0"/>
        <pt x="331" y="632" on="0"/>
        <pt x="311" y="484" on="0"/>
        <pt x="299" y="387" on="0"/>
        <pt x="299" y="379" on="1"/>
        <pt x="299" y="261" on="0"/>
        <pt x="427" y="141" on="0"/>
        <pt x="545" y="141" on="1"/>
        <pt x="677" y="141" on="0"/>
        <pt x="849" y="297" on="0"/>
        <pt x="870" y="446" on="1"/>
        <pt x="1006" y="1405" on="1"/>
        <pt x="1186" y="1405" on="1"/>
      </contour>
      <contour>
        <pt x="864" y="1538" on="1"/>
        <pt x="722" y="1538" on="1"/>
        <pt x="538" y="1803" on="1"/>
        <pt x="542" y="1809" on="1"/>
        <pt x="726" y="1809" on="1"/>
      </contour>
    </TTGlyph>
    <TTGlyph name="Uhungarumlaut" xMin="117" yMin="-25" xMax="1186" yMax="1809">
      <contour>
        <pt x="1051" y="457" on="1"/>
        <pt x="1034" y="338" on="0"/>
        <pt x="949" y="158" on="0"/>
        <pt x="819" y="37" on="0"/>
        <pt x="646" y="-25" on="0"/>
        <pt x="541" y="-25" on="1"/>
        <pt x="339" y="-25" on="0"/>
        <pt x="117" y="168" on="0"/>
        <pt x="117" y="354" on="1"/>
        <pt x="117" y="372" on="0"/>
        <pt x="129" y="481" on="0"/>
        <pt x="149" y="635" on="0"/>
        <pt x="174" y="821" on="0"/>
        <pt x="188" y="915" on="1"/>
        <pt x="220" y="1136" on="0"/>
        <pt x="260" y="1405" on="1"/>
        <pt x="440" y="1405" on="1"/>
        <pt x="400" y="1130" on="0"/>
        <pt x="369" y="909" on="1"/>
        <pt x="356" y="815" on="0"/>
        <pt x="331" y="632" on="0"/>
        <pt x="311" y="484" on="0"/>
        <pt x="299" y="387" on="0"/>
        <pt x="299" y="379" on="1"/>
        <pt x="299" y="261" on="0"/>
        <pt x="427" y="141" on="0"/>
        <pt x="545" y="141" on="1"/>
        <pt x="677" y="141" on="0"/>
        <pt x="849" y="297" on="0"/>
        <pt x="870" y="446" on="1"/>
        <pt x="1006" y="1405" on="1"/>
        <pt x="1186" y="1405" on="1"/>
      </contour>
      <contour>
        <pt x="1054" y="1803" on="1"/>
        <pt x="882" y="1538" on="1"/>
        <pt x="740" y="1538" on="1"/>
        <pt x="867" y="1809" on="1"/>
        <pt x="1052" y="1809" on="1"/>
      </contour>
      <contour>
        <pt x="788" y="1803" on="1"/>
        <pt x="616" y="1538" on="1"/>
        <pt x="474" y="1538" on="1"/>
        <pt x="601" y="1809" on="1"/>
        <pt x="785" y="1809" on="1"/>
      </contour>
    </TTGlyph>
    <TTGlyph name="Umacron" xMin="117" yMin="-25" xMax="1186" yMax="1702">
      <contour>
        <pt x="1051" y="457" on="1"/>
        <pt x="1034" y="338" on="0"/>
        <pt x="949" y="158" on="0"/>
        <pt x="819" y="37" on="0"/>
        <pt x="646" y="-25" on="0"/>
        <pt x="541" y="-25" on="1"/>
        <pt x="339" y="-25" on="0"/>
        <pt x="117" y="168" on="0"/>
        <pt x="117" y="354" on="1"/>
        <pt x="117" y="372" on="0"/>
        <pt x="129" y="481" on="0"/>
        <pt x="149" y="635" on="0"/>
        <pt x="174" y="821" on="0"/>
        <pt x="188" y="915" on="1"/>
        <pt x="220" y="1136" on="0"/>
        <pt x="260" y="1405" on="1"/>
        <pt x="440" y="1405" on="1"/>
        <pt x="400" y="1130" on="0"/>
        <pt x="369" y="909" on="1"/>
        <pt x="356" y="815" on="0"/>
        <pt x="331" y="632" on="0"/>
        <pt x="311" y="484" on="0"/>
        <pt x="299" y="387" on="0"/>
        <pt x="299" y="379" on="1"/>
        <pt x="299" y="261" on="0"/>
        <pt x="427" y="141" on="0"/>
        <pt x="545" y="141" on="1"/>
        <pt x="677" y="141" on="0"/>
        <pt x="849" y="297" on="0"/>
        <pt x="870" y="446" on="1"/>
        <pt x="1006" y="1405" on="1"/>
        <pt x="1186" y="1405" on="1"/>
      </contour>
      <contour>
        <pt x="992" y="1555" on="1"/>
        <pt x="480" y="1555" on="1"/>
        <pt x="502" y="1702" on="1"/>
        <pt x="1014" y="1702" on="1"/>
      </contour>
    </TTGlyph>
    <TTGlyph name="Uogonek" xMin="117" yMin="-379" xMax="1186" yMax="1405">
      <contour>
        <pt x="1051" y="457" on="1"/>
        <pt x="1026" y="282" on="0"/>
        <pt x="868" y="58" on="0"/>
        <pt x="743" y="10" on="1"/>
        <pt x="730" y="-3" on="0"/>
        <pt x="700" y="-40" on="0"/>
        <pt x="675" y="-85" on="0"/>
        <pt x="659" y="-135" on="0"/>
        <pt x="659" y="-160" on="1"/>
        <pt x="659" y="-195" on="0"/>
        <pt x="694" y="-246" on="0"/>
        <pt x="737" y="-246" on="1"/>
        <pt x="803" y="-246" on="1"/>
        <pt x="788" y="-350" on="1"/>
        <pt x="754" y="-364" on="0"/>
        <pt x="690" y="-379" on="0"/>
        <pt x="659" y="-379" on="1"/>
        <pt x="627" y="-379" on="0"/>
        <pt x="567" y="-364" on="0"/>
        <pt x="520" y="-326" on="0"/>
        <pt x="491" y="-264" on="0"/>
        <pt x="491" y="-217" on="1"/>
        <pt x="491" y="-152" on="0"/>
        <pt x="540" y="-60" on="0"/>
        <pt x="575" y="-24" on="1"/>
        <pt x="567" y="-25" on="0"/>
        <pt x="558" y="-25" on="1"/>
        <pt x="541" y="-25" on="1"/>
        <pt x="339" y="-25" on="0"/>
        <pt x="117" y="168" on="0"/>
        <pt x="117" y="354" on="1"/>
        <pt x="117" y="372" on="0"/>
        <pt x="129" y="481" on="0"/>
        <pt x="149" y="635" on="0"/>
        <pt x="174" y="821" on="0"/>
        <pt x="188" y="915" on="1"/>
        <pt x="220" y="1136" on="0"/>
        <pt x="260" y="1405" on="1"/>
        <pt x="440" y="1405" on="1"/>
        <pt x="400" y="1130" on="0"/>
        <pt x="369" y="909" on="1"/>
        <pt x="356" y="815" on="0"/>
        <pt x="331" y="632" on="0"/>
        <pt x="311" y="484" on="0"/>
        <pt x="299" y="387" on="0"/>
        <pt x="299" y="379" on="1"/>
        <pt x="299" y="261" on="0"/>
        <pt x="427" y="141" on="0"/>
        <pt x="545" y="141" on="1"/>
        <pt x="677" y="141" on="0"/>
        <pt x="849" y="297" on="0"/>
        <pt x="870" y="446" on="1"/>
        <pt x="1006" y="1405" on="1"/>
        <pt x="1186" y="1405" on="1"/>
      </contour>
    </TTGlyph>
    <TTGlyph name="Uring" xMin="117" yMin="-25" xMax="1186" yMax="1837">
      <contour>
        <pt x="1051" y="457" on="1"/>
        <pt x="1034" y="338" on="0"/>
        <pt x="949" y="158" on="0"/>
        <pt x="819" y="37" on="0"/>
        <pt x="646" y="-25" on="0"/>
        <pt x="541" y="-25" on="1"/>
        <pt x="339" y="-25" on="0"/>
        <pt x="117" y="168" on="0"/>
        <pt x="117" y="354" on="1"/>
        <pt x="117" y="372" on="0"/>
        <pt x="129" y="481" on="0"/>
        <pt x="149" y="635" on="0"/>
        <pt x="174" y="821" on="0"/>
        <pt x="188" y="915" on="1"/>
        <pt x="220" y="1136" on="0"/>
        <pt x="260" y="1405" on="1"/>
        <pt x="440" y="1405" on="1"/>
        <pt x="400" y="1130" on="0"/>
        <pt x="369" y="909" on="1"/>
        <pt x="356" y="815" on="0"/>
        <pt x="331" y="632" on="0"/>
        <pt x="311" y="484" on="0"/>
        <pt x="299" y="387" on="0"/>
        <pt x="299" y="379" on="1"/>
        <pt x="299" y="261" on="0"/>
        <pt x="427" y="141" on="0"/>
        <pt x="545" y="141" on="1"/>
        <pt x="677" y="141" on="0"/>
        <pt x="849" y="297" on="0"/>
        <pt x="870" y="446" on="1"/>
        <pt x="1006" y="1405" on="1"/>
        <pt x="1186" y="1405" on="1"/>
      </contour>
      <contour>
        <pt x="769" y="1837" on="1"/>
        <pt x="807" y="1837" on="0"/>
        <pt x="871" y="1811" on="0"/>
        <pt x="918" y="1765" on="0"/>
        <pt x="945" y="1702" on="0"/>
        <pt x="945" y="1665" on="1"/>
        <pt x="945" y="1623" on="0"/>
        <pt x="912" y="1550" on="0"/>
        <pt x="856" y="1496" on="0"/>
        <pt x="783" y="1465" on="0"/>
        <pt x="743" y="1465" on="1"/>
        <pt x="705" y="1465" on="0"/>
        <pt x="640" y="1490" on="0"/>
        <pt x="593" y="1536" on="0"/>
        <pt x="566" y="1599" on="0"/>
        <pt x="566" y="1637" on="1"/>
        <pt x="566" y="1681" on="0"/>
        <pt x="600" y="1755" on="0"/>
        <pt x="657" y="1808" on="0"/>
        <pt x="730" y="1837" on="0"/>
      </contour>
      <contour>
        <pt x="763" y="1755" on="1"/>
        <pt x="741" y="1755" on="0"/>
        <pt x="702" y="1738" on="0"/>
        <pt x="674" y="1708" on="0"/>
        <pt x="657" y="1667" on="0"/>
        <pt x="657" y="1643" on="1"/>
        <pt x="657" y="1624" on="0"/>
        <pt x="671" y="1589" on="0"/>
        <pt x="695" y="1563" on="0"/>
        <pt x="729" y="1547" on="0"/>
        <pt x="749" y="1547" on="1"/>
        <pt x="770" y="1547" on="0"/>
        <pt x="809" y="1564" on="0"/>
        <pt x="838" y="1594" on="0"/>
        <pt x="855" y="1635" on="0"/>
        <pt x="855" y="1659" on="1"/>
        <pt x="855" y="1678" on="0"/>
        <pt x="841" y="1713" on="0"/>
        <pt x="817" y="1739" on="0"/>
        <pt x="783" y="1755" on="0"/>
      </contour>
    </TTGlyph>
    <TTGlyph name="Utilde" xMin="117" yMin="-25" xMax="1186" yMax="1809">
      <contour>
        <pt x="1051" y="457" on="1"/>
        <pt x="1034" y="338" on="0"/>
        <pt x="949" y="158" on="0"/>
        <pt x="819" y="37" on="0"/>
        <pt x="646" y="-25" on="0"/>
        <pt x="541" y="-25" on="1"/>
        <pt x="339" y="-25" on="0"/>
        <pt x="117" y="168" on="0"/>
        <pt x="117" y="354" on="1"/>
        <pt x="117" y="372" on="0"/>
        <pt x="129" y="481" on="0"/>
        <pt x="149" y="635" on="0"/>
        <pt x="174" y="821" on="0"/>
        <pt x="188" y="915" on="1"/>
        <pt x="220" y="1136" on="0"/>
        <pt x="260" y="1405" on="1"/>
        <pt x="440" y="1405" on="1"/>
        <pt x="400" y="1130" on="0"/>
        <pt x="369" y="909" on="1"/>
        <pt x="356" y="815" on="0"/>
        <pt x="331" y="632" on="0"/>
        <pt x="311" y="484" on="0"/>
        <pt x="299" y="387" on="0"/>
        <pt x="299" y="379" on="1"/>
        <pt x="299" y="261" on="0"/>
        <pt x="427" y="141" on="0"/>
        <pt x="545" y="141" on="1"/>
        <pt x="677" y="141" on="0"/>
        <pt x="849" y="297" on="0"/>
        <pt x="870" y="446" on="1"/>
        <pt x="1006" y="1405" on="1"/>
        <pt x="1186" y="1405" on="1"/>
      </contour>
      <contour>
        <pt x="1073" y="1809" on="1"/>
        <pt x="1068" y="1773" on="0"/>
        <pt x="1038" y="1698" on="0"/>
        <pt x="990" y="1636" on="0"/>
        <pt x="921" y="1596" on="0"/>
        <pt x="877" y="1596" on="1"/>
        <pt x="842" y="1596" on="0"/>
        <pt x="783" y="1616" on="0"/>
        <pt x="728" y="1639" on="0"/>
        <pt x="674" y="1659" on="0"/>
        <pt x="643" y="1659" on="1"/>
        <pt x="615" y="1659" on="0"/>
        <pt x="573" y="1631" on="0"/>
        <pt x="563" y="1596" on="1"/>
        <pt x="446" y="1596" on="1"/>
        <pt x="452" y="1631" on="0"/>
        <pt x="480" y="1707" on="0"/>
        <pt x="528" y="1769" on="0"/>
        <pt x="596" y="1809" on="0"/>
        <pt x="641" y="1809" on="1"/>
        <pt x="675" y="1809" on="0"/>
        <pt x="734" y="1789" on="0"/>
        <pt x="789" y="1765" on="0"/>
        <pt x="844" y="1745" on="0"/>
        <pt x="875" y="1745" on="1"/>
        <pt x="902" y="1745" on="0"/>
        <pt x="945" y="1774" on="0"/>
        <pt x="954" y="1809" on="1"/>
      </contour>
    </TTGlyph>
    <TTGlyph name="V" xMin="152" yMin="0" xMax="1239" yMax="1405">
      <contour>
        <pt x="612" y="0" on="1"/>
        <pt x="381" y="0" on="1"/>
        <pt x="152" y="1405" on="1"/>
        <pt x="338" y="1405" on="1"/>
        <pt x="526" y="197" on="1"/>
        <pt x="535" y="197" on="1"/>
        <pt x="1059" y="1405" on="1"/>
        <pt x="1239" y="1405" on="1"/>
      </contour>
    </TTGlyph>
    <TTGlyph name="W" xMin="158" yMin="0" xMax="1702" yMax="1405">
      <contour>
        <pt x="1178" y="0" on="1"/>
        <pt x="944" y="0" on="1"/>
        <pt x="903" y="1235" on="1"/>
        <pt x="893" y="1235" on="1"/>
        <pt x="880" y="1181" on="0"/>
        <pt x="868" y="1129" on="1"/>
        <pt x="863" y="1107" on="0"/>
        <pt x="851" y="1059" on="0"/>
        <pt x="838" y="1013" on="0"/>
        <pt x="826" y="970" on="0"/>
        <pt x="821" y="952" on="1"/>
        <pt x="518" y="0" on="1"/>
        <pt x="285" y="0" on="1"/>
        <pt x="158" y="1405" on="1"/>
        <pt x="340" y="1405" on="1"/>
        <pt x="420" y="434" on="1"/>
        <pt x="422" y="403" on="0"/>
        <pt x="425" y="317" on="0"/>
        <pt x="426" y="278" on="1"/>
        <pt x="427" y="232" on="0"/>
        <pt x="428" y="184" on="1"/>
        <pt x="436" y="184" on="1"/>
        <pt x="446" y="222" on="0"/>
        <pt x="457" y="263" on="1"/>
        <pt x="467" y="298" on="0"/>
        <pt x="492" y="387" on="0"/>
        <pt x="506" y="434" on="1"/>
        <pt x="801" y="1405" on="1"/>
        <pt x="1061" y="1405" on="1"/>
        <pt x="1096" y="434" on="1"/>
        <pt x="1097" y="410" on="0"/>
        <pt x="1098" y="327" on="0"/>
        <pt x="1098" y="285" on="1"/>
        <pt x="1098" y="184" on="1"/>
        <pt x="1106" y="184" on="1"/>
        <pt x="1120" y="229" on="0"/>
        <pt x="1133" y="274" on="1"/>
        <pt x="1144" y="312" on="0"/>
        <pt x="1171" y="399" on="0"/>
        <pt x="1184" y="434" on="1"/>
        <pt x="1534" y="1405" on="1"/>
        <pt x="1702" y="1405" on="1"/>
      </contour>
    </TTGlyph>
    <TTGlyph name="Wacute" xMin="158" yMin="0" xMax="1702" yMax="1809">
      <contour>
        <pt x="1178" y="0" on="1"/>
        <pt x="944" y="0" on="1"/>
        <pt x="903" y="1235" on="1"/>
        <pt x="893" y="1235" on="1"/>
        <pt x="880" y="1181" on="0"/>
        <pt x="868" y="1129" on="1"/>
        <pt x="863" y="1107" on="0"/>
        <pt x="851" y="1059" on="0"/>
        <pt x="838" y="1013" on="0"/>
        <pt x="826" y="970" on="0"/>
        <pt x="821" y="952" on="1"/>
        <pt x="518" y="0" on="1"/>
        <pt x="285" y="0" on="1"/>
        <pt x="158" y="1405" on="1"/>
        <pt x="340" y="1405" on="1"/>
        <pt x="420" y="434" on="1"/>
        <pt x="422" y="403" on="0"/>
        <pt x="425" y="317" on="0"/>
        <pt x="426" y="278" on="1"/>
        <pt x="427" y="232" on="0"/>
        <pt x="428" y="184" on="1"/>
        <pt x="436" y="184" on="1"/>
        <pt x="446" y="222" on="0"/>
        <pt x="457" y="263" on="1"/>
        <pt x="467" y="298" on="0"/>
        <pt x="492" y="387" on="0"/>
        <pt x="506" y="434" on="1"/>
        <pt x="801" y="1405" on="1"/>
        <pt x="1061" y="1405" on="1"/>
        <pt x="1096" y="434" on="1"/>
        <pt x="1097" y="410" on="0"/>
        <pt x="1098" y="327" on="0"/>
        <pt x="1098" y="285" on="1"/>
        <pt x="1098" y="184" on="1"/>
        <pt x="1106" y="184" on="1"/>
        <pt x="1120" y="229" on="0"/>
        <pt x="1133" y="274" on="1"/>
        <pt x="1144" y="312" on="0"/>
        <pt x="1171" y="399" on="0"/>
        <pt x="1184" y="434" on="1"/>
        <pt x="1534" y="1405" on="1"/>
        <pt x="1702" y="1405" on="1"/>
      </contour>
      <contour>
        <pt x="1198" y="1803" on="1"/>
        <pt x="977" y="1538" on="1"/>
        <pt x="835" y="1538" on="1"/>
        <pt x="1011" y="1809" on="1"/>
        <pt x="1196" y="1809" on="1"/>
      </contour>
    </TTGlyph>
    <TTGlyph name="Wcircumflex" xMin="158" yMin="0" xMax="1702" yMax="1809">
      <contour>
        <pt x="1178" y="0" on="1"/>
        <pt x="944" y="0" on="1"/>
        <pt x="903" y="1235" on="1"/>
        <pt x="893" y="1235" on="1"/>
        <pt x="880" y="1181" on="0"/>
        <pt x="868" y="1129" on="1"/>
        <pt x="863" y="1107" on="0"/>
        <pt x="851" y="1059" on="0"/>
        <pt x="838" y="1013" on="0"/>
        <pt x="826" y="970" on="0"/>
        <pt x="821" y="952" on="1"/>
        <pt x="518" y="0" on="1"/>
        <pt x="285" y="0" on="1"/>
        <pt x="158" y="1405" on="1"/>
        <pt x="340" y="1405" on="1"/>
        <pt x="420" y="434" on="1"/>
        <pt x="422" y="403" on="0"/>
        <pt x="425" y="317" on="0"/>
        <pt x="426" y="278" on="1"/>
        <pt x="427" y="232" on="0"/>
        <pt x="428" y="184" on="1"/>
        <pt x="436" y="184" on="1"/>
        <pt x="446" y="222" on="0"/>
        <pt x="457" y="263" on="1"/>
        <pt x="467" y="298" on="0"/>
        <pt x="492" y="387" on="0"/>
        <pt x="506" y="434" on="1"/>
        <pt x="801" y="1405" on="1"/>
        <pt x="1061" y="1405" on="1"/>
        <pt x="1096" y="434" on="1"/>
        <pt x="1097" y="410" on="0"/>
        <pt x="1098" y="327" on="0"/>
        <pt x="1098" y="285" on="1"/>
        <pt x="1098" y="184" on="1"/>
        <pt x="1106" y="184" on="1"/>
        <pt x="1120" y="229" on="0"/>
        <pt x="1133" y="274" on="1"/>
        <pt x="1144" y="312" on="0"/>
        <pt x="1171" y="399" on="0"/>
        <pt x="1184" y="434" on="1"/>
        <pt x="1534" y="1405" on="1"/>
        <pt x="1702" y="1405" on="1"/>
      </contour>
      <contour>
        <pt x="1189" y="1532" on="1"/>
        <pt x="1031" y="1532" on="1"/>
        <pt x="964" y="1694" on="1"/>
        <pt x="849" y="1532" on="1"/>
        <pt x="679" y="1532" on="1"/>
        <pt x="894" y="1809" on="1"/>
        <pt x="1054" y="1809" on="1"/>
      </contour>
    </TTGlyph>
    <TTGlyph name="Wdieresis" xMin="158" yMin="0" xMax="1702" yMax="1809">
      <contour>
        <pt x="1178" y="0" on="1"/>
        <pt x="944" y="0" on="1"/>
        <pt x="903" y="1235" on="1"/>
        <pt x="893" y="1235" on="1"/>
        <pt x="880" y="1181" on="0"/>
        <pt x="868" y="1129" on="1"/>
        <pt x="863" y="1107" on="0"/>
        <pt x="851" y="1059" on="0"/>
        <pt x="838" y="1013" on="0"/>
        <pt x="826" y="970" on="0"/>
        <pt x="821" y="952" on="1"/>
        <pt x="518" y="0" on="1"/>
        <pt x="285" y="0" on="1"/>
        <pt x="158" y="1405" on="1"/>
        <pt x="340" y="1405" on="1"/>
        <pt x="420" y="434" on="1"/>
        <pt x="422" y="403" on="0"/>
        <pt x="425" y="317" on="0"/>
        <pt x="426" y="278" on="1"/>
        <pt x="427" y="232" on="0"/>
        <pt x="428" y="184" on="1"/>
        <pt x="436" y="184" on="1"/>
        <pt x="446" y="222" on="0"/>
        <pt x="457" y="263" on="1"/>
        <pt x="467" y="298" on="0"/>
        <pt x="492" y="387" on="0"/>
        <pt x="506" y="434" on="1"/>
        <pt x="801" y="1405" on="1"/>
        <pt x="1061" y="1405" on="1"/>
        <pt x="1096" y="434" on="1"/>
        <pt x="1097" y="410" on="0"/>
        <pt x="1098" y="327" on="0"/>
        <pt x="1098" y="285" on="1"/>
        <pt x="1098" y="184" on="1"/>
        <pt x="1106" y="184" on="1"/>
        <pt x="1120" y="229" on="0"/>
        <pt x="1133" y="274" on="1"/>
        <pt x="1144" y="312" on="0"/>
        <pt x="1171" y="399" on="0"/>
        <pt x="1184" y="434" on="1"/>
        <pt x="1534" y="1405" on="1"/>
        <pt x="1702" y="1405" on="1"/>
      </contour>
      <contour>
        <pt x="1199" y="1614" on="1"/>
        <pt x="1021" y="1614" on="1"/>
        <pt x="1048" y="1809" on="1"/>
        <pt x="1226" y="1809" on="1"/>
      </contour>
      <contour>
        <pt x="892" y="1614" on="1"/>
        <pt x="714" y="1614" on="1"/>
        <pt x="741" y="1809" on="1"/>
        <pt x="919" y="1809" on="1"/>
      </contour>
    </TTGlyph>
    <TTGlyph name="Wgrave" xMin="158" yMin="0" xMax="1702" yMax="1809">
      <contour>
        <pt x="1178" y="0" on="1"/>
        <pt x="944" y="0" on="1"/>
        <pt x="903" y="1235" on="1"/>
        <pt x="893" y="1235" on="1"/>
        <pt x="880" y="1181" on="0"/>
        <pt x="868" y="1129" on="1"/>
        <pt x="863" y="1107" on="0"/>
        <pt x="851" y="1059" on="0"/>
        <pt x="838" y="1013" on="0"/>
        <pt x="826" y="970" on="0"/>
        <pt x="821" y="952" on="1"/>
        <pt x="518" y="0" on="1"/>
        <pt x="285" y="0" on="1"/>
        <pt x="158" y="1405" on="1"/>
        <pt x="340" y="1405" on="1"/>
        <pt x="420" y="434" on="1"/>
        <pt x="422" y="403" on="0"/>
        <pt x="425" y="317" on="0"/>
        <pt x="426" y="278" on="1"/>
        <pt x="427" y="232" on="0"/>
        <pt x="428" y="184" on="1"/>
        <pt x="436" y="184" on="1"/>
        <pt x="446" y="222" on="0"/>
        <pt x="457" y="263" on="1"/>
        <pt x="467" y="298" on="0"/>
        <pt x="492" y="387" on="0"/>
        <pt x="506" y="434" on="1"/>
        <pt x="801" y="1405" on="1"/>
        <pt x="1061" y="1405" on="1"/>
        <pt x="1096" y="434" on="1"/>
        <pt x="1097" y="410" on="0"/>
        <pt x="1098" y="327" on="0"/>
        <pt x="1098" y="285" on="1"/>
        <pt x="1098" y="184" on="1"/>
        <pt x="1106" y="184" on="1"/>
        <pt x="1120" y="229" on="0"/>
        <pt x="1133" y="274" on="1"/>
        <pt x="1144" y="312" on="0"/>
        <pt x="1171" y="399" on="0"/>
        <pt x="1184" y="434" on="1"/>
        <pt x="1534" y="1405" on="1"/>
        <pt x="1702" y="1405" on="1"/>
      </contour>
      <contour>
        <pt x="1065" y="1538" on="1"/>
        <pt x="923" y="1538" on="1"/>
        <pt x="739" y="1803" on="1"/>
        <pt x="743" y="1809" on="1"/>
        <pt x="927" y="1809" on="1"/>
      </contour>
    </TTGlyph>
    <TTGlyph name="X" xMin="-63" yMin="0" xMax="1192" yMax="1405">
      <contour>
        <pt x="1192" y="1405" on="1"/>
        <pt x="1170" y="1376" on="1"/>
        <pt x="1149" y="1347" on="0"/>
        <pt x="1079" y="1253" on="0"/>
        <pt x="989" y="1133" on="0"/>
        <pt x="942" y="1071" on="1"/>
        <pt x="692" y="739" on="1"/>
        <pt x="1038" y="0" on="1"/>
        <pt x="836" y="0" on="1"/>
        <pt x="567" y="573" on="1"/>
        <pt x="135" y="0" on="1"/>
        <pt x="-63" y="0" on="1"/>
        <pt x="489" y="737" on="1"/>
        <pt x="174" y="1405" on="1"/>
        <pt x="379" y="1405" on="1"/>
        <pt x="616" y="903" on="1"/>
        <pt x="802" y="1153" on="1"/>
        <pt x="837" y="1200" on="0"/>
        <pt x="904" y="1290" on="0"/>
        <pt x="957" y="1361" on="0"/>
        <pt x="973" y="1383" on="1"/>
        <pt x="989" y="1405" on="1"/>
      </contour>
    </TTGlyph>
    <TTGlyph name="Y" xMin="143" yMin="0" xMax="1231" yMax="1405">
      <contour>
        <pt x="662" y="582" on="1"/>
        <pt x="580" y="0" on="1"/>
        <pt x="399" y="0" on="1"/>
        <pt x="481" y="582" on="1"/>
        <pt x="143" y="1405" on="1"/>
        <pt x="340" y="1405" on="1"/>
        <pt x="596" y="754" on="1"/>
        <pt x="604" y="754" on="1"/>
        <pt x="1042" y="1405" on="1"/>
        <pt x="1231" y="1405" on="1"/>
      </contour>
    </TTGlyph>
    <TTGlyph name="Yacute" xMin="143" yMin="0" xMax="1231" yMax="1809">
      <contour>
        <pt x="662" y="582" on="1"/>
        <pt x="580" y="0" on="1"/>
        <pt x="399" y="0" on="1"/>
        <pt x="481" y="582" on="1"/>
        <pt x="143" y="1405" on="1"/>
        <pt x="340" y="1405" on="1"/>
        <pt x="596" y="754" on="1"/>
        <pt x="604" y="754" on="1"/>
        <pt x="1042" y="1405" on="1"/>
        <pt x="1231" y="1405" on="1"/>
      </contour>
      <contour>
        <pt x="968" y="1803" on="1"/>
        <pt x="747" y="1538" on="1"/>
        <pt x="605" y="1538" on="1"/>
        <pt x="781" y="1809" on="1"/>
        <pt x="966" y="1809" on="1"/>
      </contour>
    </TTGlyph>
    <TTGlyph name="Ycircumflex" xMin="143" yMin="0" xMax="1231" yMax="1809">
      <contour>
        <pt x="662" y="582" on="1"/>
        <pt x="580" y="0" on="1"/>
        <pt x="399" y="0" on="1"/>
        <pt x="481" y="582" on="1"/>
        <pt x="143" y="1405" on="1"/>
        <pt x="340" y="1405" on="1"/>
        <pt x="596" y="754" on="1"/>
        <pt x="604" y="754" on="1"/>
        <pt x="1042" y="1405" on="1"/>
        <pt x="1231" y="1405" on="1"/>
      </contour>
      <contour>
        <pt x="959" y="1532" on="1"/>
        <pt x="801" y="1532" on="1"/>
        <pt x="734" y="1694" on="1"/>
        <pt x="619" y="1532" on="1"/>
        <pt x="449" y="1532" on="1"/>
        <pt x="664" y="1809" on="1"/>
        <pt x="824" y="1809" on="1"/>
      </contour>
    </TTGlyph>
    <TTGlyph name="Ydieresis" xMin="143" yMin="0" xMax="1231" yMax="1809">
      <contour>
        <pt x="662" y="582" on="1"/>
        <pt x="580" y="0" on="1"/>
        <pt x="399" y="0" on="1"/>
        <pt x="481" y="582" on="1"/>
        <pt x="143" y="1405" on="1"/>
        <pt x="340" y="1405" on="1"/>
        <pt x="596" y="754" on="1"/>
        <pt x="604" y="754" on="1"/>
        <pt x="1042" y="1405" on="1"/>
        <pt x="1231" y="1405" on="1"/>
      </contour>
      <contour>
        <pt x="969" y="1614" on="1"/>
        <pt x="791" y="1614" on="1"/>
        <pt x="818" y="1809" on="1"/>
        <pt x="996" y="1809" on="1"/>
      </contour>
      <contour>
        <pt x="662" y="1614" on="1"/>
        <pt x="484" y="1614" on="1"/>
        <pt x="511" y="1809" on="1"/>
        <pt x="689" y="1809" on="1"/>
      </contour>
    </TTGlyph>
    <TTGlyph name="Ygrave" xMin="143" yMin="0" xMax="1231" yMax="1809">
      <contour>
        <pt x="662" y="582" on="1"/>
        <pt x="580" y="0" on="1"/>
        <pt x="399" y="0" on="1"/>
        <pt x="481" y="582" on="1"/>
        <pt x="143" y="1405" on="1"/>
        <pt x="340" y="1405" on="1"/>
        <pt x="596" y="754" on="1"/>
        <pt x="604" y="754" on="1"/>
        <pt x="1042" y="1405" on="1"/>
        <pt x="1231" y="1405" on="1"/>
      </contour>
      <contour>
        <pt x="835" y="1538" on="1"/>
        <pt x="693" y="1538" on="1"/>
        <pt x="509" y="1803" on="1"/>
        <pt x="513" y="1809" on="1"/>
        <pt x="697" y="1809" on="1"/>
      </contour>
    </TTGlyph>
    <TTGlyph name="Z" xMin="-33" yMin="0" xMax="1077" yMax="1405">
      <contour>
        <pt x="-33" y="0" on="1"/>
        <pt x="-27" y="78" on="1"/>
        <pt x="795" y="1241" on="1"/>
        <pt x="176" y="1241" on="1"/>
        <pt x="201" y="1405" on="1"/>
        <pt x="1077" y="1405" on="1"/>
        <pt x="1071" y="1327" on="1"/>
        <pt x="248" y="164" on="1"/>
        <pt x="924" y="164" on="1"/>
        <pt x="899" y="0" on="1"/>
      </contour>
    </TTGlyph>
    <TTGlyph name="Zacute" xMin="-33" yMin="0" xMax="1077" yMax="1808">
      <contour>
        <pt x="913" y="1802" on="1"/>
        <pt x="692" y="1538" on="1"/>
        <pt x="551" y="1538" on="1"/>
        <pt x="725" y="1808" on="1"/>
        <pt x="911" y="1808" on="1"/>
      </contour>
      <contour>
        <pt x="-33" y="0" on="1"/>
        <pt x="-27" y="78" on="1"/>
        <pt x="795" y="1241" on="1"/>
        <pt x="176" y="1241" on="1"/>
        <pt x="201" y="1405" on="1"/>
        <pt x="1077" y="1405" on="1"/>
        <pt x="1071" y="1327" on="1"/>
        <pt x="248" y="164" on="1"/>
        <pt x="924" y="164" on="1"/>
        <pt x="899" y="0" on="1"/>
      </contour>
    </TTGlyph>
    <TTGlyph name="Zcaron" xMin="-33" yMin="0" xMax="1077" yMax="1808">
      <contour>
        <pt x="731" y="1532" on="1"/>
        <pt x="573" y="1532" on="1"/>
        <pt x="438" y="1808" on="1"/>
        <pt x="600" y="1808" on="1"/>
        <pt x="670" y="1647" on="1"/>
        <pt x="776" y="1808" on="1"/>
        <pt x="946" y="1808" on="1"/>
      </contour>
      <contour>
        <pt x="-33" y="0" on="1"/>
        <pt x="-27" y="78" on="1"/>
        <pt x="795" y="1241" on="1"/>
        <pt x="176" y="1241" on="1"/>
        <pt x="201" y="1405" on="1"/>
        <pt x="1077" y="1405" on="1"/>
        <pt x="1071" y="1327" on="1"/>
        <pt x="248" y="164" on="1"/>
        <pt x="924" y="164" on="1"/>
        <pt x="899" y="0" on="1"/>
      </contour>
    </TTGlyph>
    <TTGlyph name="Zdotaccent" xMin="-33" yMin="0" xMax="1077" yMax="1808">
      <contour>
        <pt x="758" y="1614" on="1"/>
        <pt x="580" y="1614" on="1"/>
        <pt x="606" y="1808" on="1"/>
        <pt x="784" y="1808" on="1"/>
      </contour>
      <contour>
        <pt x="-33" y="0" on="1"/>
        <pt x="-27" y="78" on="1"/>
        <pt x="795" y="1241" on="1"/>
        <pt x="176" y="1241" on="1"/>
        <pt x="201" y="1405" on="1"/>
        <pt x="1077" y="1405" on="1"/>
        <pt x="1071" y="1327" on="1"/>
        <pt x="248" y="164" on="1"/>
        <pt x="924" y="164" on="1"/>
        <pt x="899" y="0" on="1"/>
      </contour>
    </TTGlyph>
    <TTGlyph name="a" xMin="68" yMin="-25" xMax="877" yMax="1102">
      <contour>
        <pt x="483" y="1102" on="1"/>
        <pt x="520" y="1102" on="0"/>
        <pt x="588" y="1085" on="0"/>
        <pt x="646" y="1045" on="0"/>
        <pt x="692" y="978" on="0"/>
        <pt x="707" y="928" on="1"/>
        <pt x="743" y="1077" on="1"/>
        <pt x="877" y="1077" on="1"/>
        <pt x="841" y="833" on="0"/>
        <pt x="814" y="639" on="1"/>
        <pt x="802" y="556" on="0"/>
        <pt x="780" y="396" on="0"/>
        <pt x="763" y="268" on="0"/>
        <pt x="752" y="186" on="0"/>
        <pt x="752" y="182" on="1"/>
        <pt x="752" y="151" on="0"/>
        <pt x="781" y="125" on="0"/>
        <pt x="801" y="125" on="1"/>
        <pt x="866" y="125" on="1"/>
        <pt x="850" y="8" on="1"/>
        <pt x="834" y="-3" on="0"/>
        <pt x="775" y="-25" on="0"/>
        <pt x="735" y="-25" on="1"/>
        <pt x="703" y="-25" on="0"/>
        <pt x="649" y="-6" on="0"/>
        <pt x="611" y="36" on="0"/>
        <pt x="589" y="100" on="0"/>
        <pt x="588" y="145" on="1"/>
        <pt x="529" y="58" on="0"/>
        <pt x="412" y="-25" on="0"/>
        <pt x="340" y="-25" on="1"/>
        <pt x="281" y="-25" on="0"/>
        <pt x="181" y="22" on="0"/>
        <pt x="109" y="120" on="0"/>
        <pt x="68" y="271" on="0"/>
        <pt x="68" y="375" on="1"/>
        <pt x="68" y="560" on="0"/>
        <pt x="141" y="833" on="0"/>
        <pt x="260" y="1013" on="0"/>
        <pt x="408" y="1102" on="0"/>
      </contour>
      <contour>
        <pt x="508" y="952" on="1"/>
        <pt x="453" y="952" on="0"/>
        <pt x="371" y="889" on="0"/>
        <pt x="311" y="786" on="0"/>
        <pt x="272" y="657" on="0"/>
        <pt x="249" y="525" on="0"/>
        <pt x="240" y="402" on="0"/>
        <pt x="240" y="358" on="1"/>
        <pt x="240" y="125" on="0"/>
        <pt x="391" y="125" on="1"/>
        <pt x="440" y="125" on="0"/>
        <pt x="516" y="191" on="0"/>
        <pt x="573" y="296" on="0"/>
        <pt x="613" y="427" on="0"/>
        <pt x="638" y="560" on="0"/>
        <pt x="649" y="680" on="0"/>
        <pt x="649" y="721" on="1"/>
        <pt x="649" y="952" on="0"/>
      </contour>
    </TTGlyph>
    <TTGlyph name="aacute" xMin="68" yMin="-25" xMax="877" yMax="1481">
      <contour>
        <pt x="815" y="1475" on="1"/>
        <pt x="596" y="1210" on="1"/>
        <pt x="453" y="1210" on="1"/>
        <pt x="629" y="1481" on="1"/>
        <pt x="813" y="1481" on="1"/>
      </contour>
      <contour>
        <pt x="483" y="1102" on="1"/>
        <pt x="520" y="1102" on="0"/>
        <pt x="588" y="1085" on="0"/>
        <pt x="646" y="1045" on="0"/>
        <pt x="692" y="978" on="0"/>
        <pt x="707" y="928" on="1"/>
        <pt x="743" y="1077" on="1"/>
        <pt x="877" y="1077" on="1"/>
        <pt x="841" y="833" on="0"/>
        <pt x="814" y="639" on="1"/>
        <pt x="802" y="556" on="0"/>
        <pt x="780" y="396" on="0"/>
        <pt x="763" y="268" on="0"/>
        <pt x="752" y="186" on="0"/>
        <pt x="752" y="182" on="1"/>
        <pt x="752" y="151" on="0"/>
        <pt x="781" y="125" on="0"/>
        <pt x="801" y="125" on="1"/>
        <pt x="866" y="125" on="1"/>
        <pt x="850" y="8" on="1"/>
        <pt x="834" y="-3" on="0"/>
        <pt x="775" y="-25" on="0"/>
        <pt x="735" y="-25" on="1"/>
        <pt x="703" y="-25" on="0"/>
        <pt x="649" y="-6" on="0"/>
        <pt x="611" y="36" on="0"/>
        <pt x="589" y="100" on="0"/>
        <pt x="588" y="145" on="1"/>
        <pt x="529" y="58" on="0"/>
        <pt x="412" y="-25" on="0"/>
        <pt x="340" y="-25" on="1"/>
        <pt x="281" y="-25" on="0"/>
        <pt x="181" y="22" on="0"/>
        <pt x="109" y="120" on="0"/>
        <pt x="68" y="271" on="0"/>
        <pt x="68" y="375" on="1"/>
        <pt x="68" y="560" on="0"/>
        <pt x="141" y="833" on="0"/>
        <pt x="260" y="1013" on="0"/>
        <pt x="408" y="1102" on="0"/>
      </contour>
      <contour>
        <pt x="508" y="952" on="1"/>
        <pt x="453" y="952" on="0"/>
        <pt x="371" y="889" on="0"/>
        <pt x="311" y="786" on="0"/>
        <pt x="272" y="657" on="0"/>
        <pt x="249" y="525" on="0"/>
        <pt x="240" y="402" on="0"/>
        <pt x="240" y="358" on="1"/>
        <pt x="240" y="125" on="0"/>
        <pt x="391" y="125" on="1"/>
        <pt x="440" y="125" on="0"/>
        <pt x="516" y="191" on="0"/>
        <pt x="573" y="296" on="0"/>
        <pt x="613" y="427" on="0"/>
        <pt x="638" y="560" on="0"/>
        <pt x="649" y="680" on="0"/>
        <pt x="649" y="721" on="1"/>
        <pt x="649" y="952" on="0"/>
      </contour>
    </TTGlyph>
</ttFont>
